<?xml version="1.0" encoding="UTF-8"?>
<svg width="297px" height="638px" viewBox="0 0 297 638" version="1.1" xmlns="http://www.w3.org/2000/svg" xmlns:xlink="http://www.w3.org/1999/xlink">
    <!-- Generator: Sketch 46 (44423) - http://www.bohemiancoding.com/sketch -->
    <title>feature-min copy</title>
    <desc>Created with Sketch.</desc>
    <defs></defs>
    <g id="Mobile" stroke="none" stroke-width="1" fill="none" fill-rule="evenodd">
        <g id="iPhone-7" transform="translate(-18.000000, -898.000000)">
            <g id="Exp" transform="translate(-17.000000, 647.000000)">
                <g id="feature-min-copy" transform="translate(35.000000, 252.000000)">
                    <g id="Group-4-Copy" opacity="0.812103714" transform="translate(117.604361, 0.786791)" stroke-width="1.8" stroke="#FFFFFF">
                        <polygon id="Shape" points="37.2375563 4.4408921e-16 0 4.4408921e-16 37.2375563 13.242981"></polygon>
                        <polygon id="Shape" points="66.1965439 4.4408921e-16 103.685125 4.4408921e-16 66.1965439 13.242981"></polygon>
                        <path d="M22.7447184,37.200214 L22.7447184,0 L37.3715383,0 L37.3715383,36.8303302 C37.3715383,47.4317605 42.7858912,52.9200357 51.7150655,52.9200357 C60.6442398,52.9200357 66.0566946,47.6174164 66.0566946,37.2944701 L66.0566946,0.000476040873 L80.6854126,0.000476040873 L80.6854126,36.7375023 C80.6854126,56.4532111 69.3812307,66.1254095 51.5243057,66.1254095 C33.6673806,66.1254095 22.7447184,56.359907 22.7447184,37.200214 Z" id="Shape" fill="#073B4B"></path>
                    </g>
                    <g id="benefits1" transform="translate(8.000000, 224.000000)">
                        <g id="Features">
                            <path d="M80.0507812,28.6054688 L78.4804688,28.6054688 L78.4804688,27.0351562 C76.9023359,26.9179682 75.6328173,26.4375042 74.671875,25.59375 C73.7109327,24.7499958 73.2265625,23.6757878 73.21875,22.3710938 L75.2226562,22.3710938 C75.2851566,23.1523477 75.6015596,23.7929662 76.171875,24.2929688 C76.7421904,24.7929713 77.5117139,25.1015619 78.4804688,25.21875 L78.4804688,19.125 L77.5429688,18.8671875 C76.2929625,18.5390609 75.3281284,18.0000038 74.6484375,17.25 C73.9687466,16.4999962 73.6289062,15.5820367 73.6289062,14.4960938 C73.6289062,13.2148373 74.0644488,12.1640666 74.9355469,11.34375 C75.806645,10.5234334 76.9882738,10.0390632 78.4804688,9.890625 L78.4804688,8.25 L80.0507812,8.25 L80.0507812,9.87890625 C81.5195386,10.0039069 82.6992143,10.4843708 83.5898438,11.3203125 C84.4804732,12.1562542 84.9453123,13.2070249 84.984375,14.4726562 L82.9921875,14.4726562 C82.9687499,13.7460901 82.6894558,13.1269557 82.1542969,12.6152344 C81.6191379,12.1035131 80.9179731,11.7968755 80.0507812,11.6953125 L80.0507812,17.4257812 L81.046875,17.671875 C82.4765696,18.0546894 83.539059,18.6113245 84.234375,19.3417969 C84.929691,20.0722693 85.2773438,21.0312441 85.2773438,22.21875 C85.2773438,23.609382 84.818364,24.7246052 83.9003906,25.5644531 C82.9824173,26.4043011 81.699227,26.8906243 80.0507812,27.0234375 L80.0507812,28.6054688 Z M83.25,22.3828125 C83.25,21.6093711 82.9941432,20.9843774 82.4824219,20.5078125 C81.9707006,20.0312476 81.1601618,19.6757824 80.0507812,19.4414062 L80.0507812,25.2539062 C81.0742239,25.1992185 81.8632785,24.9199244 82.4179688,24.4160156 C82.972659,23.9121069 83.25,23.2343793 83.25,22.3828125 Z M75.6445312,14.3789062 C75.6445312,15.0742222 75.8867163,15.6503883 76.3710938,16.1074219 C76.8554712,16.5644554 77.5585891,16.890624 78.4804688,17.0859375 L78.4804688,11.6953125 C77.6601521,11.7421877 76.9824246,12.0156225 76.4472656,12.515625 C75.9121067,13.0156275 75.6445312,13.636715 75.6445312,14.3789062 Z M101.870052,27.28125 C100.080981,27.28125 98.6122453,26.8261764 97.4638021,25.9160156 C96.3153589,25.0058548 95.7411458,23.8437571 95.7411458,22.4296875 C95.7411458,21.3749947 96.0751269,20.4492227 96.743099,19.6523438 C97.4110711,18.8554648 98.2880154,18.3320325 99.3739583,18.0820312 L99.3739583,18.0351562 C98.4598913,17.7539048 97.7372423,17.275394 97.2059896,16.5996094 C96.6747369,15.9238247 96.4091146,15.1406295 96.4091146,14.25 C96.4091146,12.9687436 96.9266875,11.9082073 97.961849,11.0683594 C98.9970104,10.2285114 100.299732,9.80859375 101.870052,9.80859375 C103.455998,9.80859375 104.760672,10.2285114 105.784115,11.0683594 C106.807557,11.9082073 107.319271,12.9726498 107.319271,14.2617188 C107.319271,15.1367231 107.057555,15.9101529 106.534115,16.5820312 C106.010674,17.2539096 105.288025,17.7382798 104.366146,18.0351562 L104.366146,18.0820312 C105.459901,18.339845 106.340752,18.8671835 107.008724,19.6640625 C107.676696,20.4609415 108.010677,21.3828073 108.010677,22.4296875 C108.010677,23.8437571 107.436464,25.0058548 106.288021,25.9160156 C105.139578,26.8261764 103.666936,27.28125 101.870052,27.28125 Z M101.870052,25.4414062 C103.03412,25.4414062 103.989189,25.1445342 104.735286,24.5507812 C105.481384,23.9570283 105.854427,23.1992234 105.854427,22.2773438 C105.854427,21.3476516 105.481384,20.5859405 104.735286,19.9921875 C103.989189,19.3984345 103.03412,19.1015625 101.870052,19.1015625 C100.713796,19.1015625 99.7606808,19.3984345 99.0106771,19.9921875 C98.2606733,20.5859405 97.8856771,21.3476516 97.8856771,22.2773438 C97.8856771,23.1992234 98.2606733,23.9570283 99.0106771,24.5507812 C99.7606808,25.1445342 100.713796,25.4414062 101.870052,25.4414062 Z M101.870052,17.25 C102.854432,17.25 103.661065,16.9882839 104.289974,16.4648438 C104.918883,15.9414036 105.233333,15.2695354 105.233333,14.4492188 C105.233333,13.6132771 104.920836,12.9335964 104.295833,12.4101562 C103.67083,11.8867161 102.862245,11.625 101.870052,11.625 C100.87786,11.625 100.069274,11.8886692 99.4442708,12.4160156 C98.8192677,12.943362 98.5067708,13.6210896 98.5067708,14.4492188 C98.5067708,15.2695354 98.8192677,15.9414036 99.4442708,16.4648438 C100.069274,16.9882839 100.87786,17.25 101.870052,17.25 Z M112.639063,30.0117188 L114.396875,24.6328125 L112.228906,24.6328125 L111.057031,30.0117188 L112.639063,30.0117188 Z M124.533073,27.28125 C122.556501,27.28125 121.023313,26.4921954 119.933464,24.9140625 C118.843614,23.3359296 118.298698,21.2109509 118.298698,18.5390625 C118.298698,15.8906118 118.847521,13.7734454 119.945182,12.1875 C121.042844,10.6015546 122.572126,9.80859375 124.533073,9.80859375 C126.49402,9.80859375 128.019396,10.5976484 129.109245,12.1757812 C130.199094,13.7539141 130.74401,15.8710805 130.74401,18.5273438 C130.74401,21.1992321 130.201047,23.326164 129.115104,24.9082031 C128.029161,26.4902423 126.501833,27.28125 124.533073,27.28125 Z M124.533073,25.4414062 C125.853392,25.4414062 126.865101,24.8183656 127.568229,23.5722656 C128.271358,22.3261656 128.622917,20.648448 128.622917,18.5390625 C128.622917,16.4609271 128.267452,14.7949281 127.55651,13.5410156 C126.845569,12.2871031 125.837767,11.6601562 124.533073,11.6601562 C123.228379,11.6601562 122.21667,12.2890562 121.497917,13.546875 C120.779163,14.8046938 120.419792,16.4648334 120.419792,18.5273438 C120.419792,20.6367293 120.775257,22.3164 121.486198,23.5664062 C122.197139,24.8164125 123.212754,25.4414062 124.533073,25.4414062 Z M140.30599,27.28125 C138.329417,27.28125 136.796229,26.4921954 135.70638,24.9140625 C134.616531,23.3359296 134.071615,21.2109509 134.071615,18.5390625 C134.071615,15.8906118 134.620437,13.7734454 135.718099,12.1875 C136.815761,10.6015546 138.345042,9.80859375 140.30599,9.80859375 C142.266937,9.80859375 143.792312,10.5976484 144.882161,12.1757812 C145.972011,13.7539141 146.516927,15.8710805 146.516927,18.5273438 C146.516927,21.1992321 145.973964,23.326164 144.888021,24.9082031 C143.802078,26.4902423 142.274749,27.28125 140.30599,27.28125 Z M140.30599,25.4414062 C141.626309,25.4414062 142.638017,24.8183656 143.341146,23.5722656 C144.044274,22.3261656 144.395833,20.648448 144.395833,18.5390625 C144.395833,16.4609271 144.040368,14.7949281 143.329427,13.5410156 C142.618486,12.2871031 141.610684,11.6601562 140.30599,11.6601562 C139.001296,11.6601562 137.989587,12.2890562 137.270833,13.546875 C136.55208,14.8046938 136.192708,16.4648334 136.192708,18.5273438 C136.192708,20.6367293 136.548174,22.3164 137.259115,23.5664062 C137.970056,24.8164125 138.985671,25.4414062 140.30599,25.4414062 Z M156.078906,27.28125 C154.102334,27.28125 152.569146,26.4921954 151.479297,24.9140625 C150.389448,23.3359296 149.844531,21.2109509 149.844531,18.5390625 C149.844531,15.8906118 150.393354,13.7734454 151.491016,12.1875 C152.588677,10.6015546 154.117959,9.80859375 156.078906,9.80859375 C158.039854,9.80859375 159.565229,10.5976484 160.655078,12.1757812 C161.744927,13.7539141 162.289844,15.8710805 162.289844,18.5273438 C162.289844,21.1992321 161.74688,23.326164 160.660938,24.9082031 C159.574995,26.4902423 158.047666,27.28125 156.078906,27.28125 Z M156.078906,25.4414062 C157.399225,25.4414062 158.410934,24.8183656 159.114063,23.5722656 C159.817191,22.3261656 160.16875,20.648448 160.16875,18.5390625 C160.16875,16.4609271 159.813285,14.7949281 159.102344,13.5410156 C158.391403,12.2871031 157.3836,11.6601562 156.078906,11.6601562 C154.774212,11.6601562 153.762504,12.2890562 153.04375,13.546875 C152.324996,14.8046938 151.965625,16.4648334 151.965625,18.5273438 C151.965625,20.6367293 152.32109,22.3164 153.032031,23.5664062 C153.742972,24.8164125 154.758587,25.4414062 156.078906,25.4414062 Z M172.90599,27 L174.945052,27 L174.945052,19.1601562 C174.945052,18.2773393 175.222393,17.5410186 175.777083,16.9511719 C176.331774,16.3613252 177.030985,16.0664062 177.87474,16.0664062 C178.663806,16.0664062 179.298565,16.2968727 179.779037,16.7578125 C180.259508,17.2187523 180.49974,17.8320274 180.49974,18.5976562 L180.49974,27 L182.538802,27 L182.538802,19.0546875 C182.538802,18.1874957 182.810284,17.4726591 183.353255,16.9101562 C183.896227,16.3476534 184.589579,16.0664062 185.433333,16.0664062 C186.277088,16.0664062 186.931378,16.3105444 187.396224,16.7988281 C187.86107,17.2871118 188.09349,17.9687456 188.09349,18.84375 L188.09349,27 L190.132552,27 L190.132552,18.375 C190.132552,17.1171812 189.759509,16.1152381 189.013412,15.3691406 C188.267314,14.6230431 187.269277,14.25 186.019271,14.25 C185.136454,14.25 184.343493,14.4609354 183.640365,14.8828125 C182.937236,15.3046896 182.405991,15.8906213 182.046615,16.640625 L181.99974,16.640625 C181.726301,15.8749962 181.282946,15.2851583 180.669662,14.8710938 C180.056377,14.4570292 179.320056,14.25 178.460677,14.25 C177.640361,14.25 176.911852,14.4433574 176.27513,14.8300781 C175.638408,15.2167988 175.171616,15.7460904 174.87474,16.4179688 L174.827865,16.4179688 L174.827865,14.3671875 L172.90599,14.3671875 L172.90599,27 Z M194.175,27 L196.214063,27 L196.214063,14.3671875 L194.175,14.3671875 L194.175,27 Z M195.194531,12.328125 C195.553908,12.328125 195.858593,12.2011731 196.108594,11.9472656 C196.358595,11.6933581 196.483594,11.3906268 196.483594,11.0390625 C196.483594,10.6796857 196.358595,10.3750012 196.108594,10.125 C195.858593,9.87499875 195.553908,9.75 195.194531,9.75 C194.842967,9.75 194.540236,9.87499875 194.286328,10.125 C194.032421,10.3750012 193.905469,10.6796857 193.905469,11.0390625 C193.905469,11.3906268 194.032421,11.6933581 194.286328,11.9472656 C194.540236,12.2011731 194.842967,12.328125 195.194531,12.328125 Z M200.432292,27 L202.471354,27 L202.471354,9.3515625 L200.432292,9.3515625 L200.432292,27 Z M206.689583,27 L208.728646,27 L208.728646,9.3515625 L206.689583,9.3515625 L206.689583,27 Z M218.032813,27.1171875 C216.259366,27.1171875 214.845318,26.533209 213.790625,25.3652344 C212.735932,24.1972598 212.208594,22.6367285 212.208594,20.6835938 C212.208594,18.7226464 212.735932,17.1601621 213.790625,15.9960938 C214.845318,14.8320254 216.259366,14.25 218.032813,14.25 C219.806259,14.25 221.220307,14.8320254 222.275,15.9960938 C223.329693,17.1601621 223.857031,18.7226464 223.857031,20.6835938 C223.857031,22.6367285 223.329693,24.1972598 222.275,25.3652344 C221.220307,26.533209 219.806259,27.1171875 218.032813,27.1171875 Z M218.032813,25.3007812 C219.212506,25.3007812 220.132419,24.8925822 220.792578,24.0761719 C221.452738,23.2597615 221.782813,22.1289135 221.782813,20.6835938 C221.782813,19.2304615 221.452738,18.0976603 220.792578,17.2851562 C220.132419,16.4726522 219.212506,16.0664062 218.032813,16.0664062 C216.853119,16.0664062 215.933207,16.4746053 215.273047,17.2910156 C214.612887,18.107426 214.282813,19.238274 214.282813,20.6835938 C214.282813,22.1289135 214.614841,23.2597615 215.278906,24.0761719 C215.942972,24.8925822 216.860932,25.3007812 218.032813,25.3007812 Z M227.219792,27 L229.258854,27 L229.258854,19.6640625 C229.258854,18.5781196 229.553773,17.7070345 230.14362,17.0507812 C230.733467,16.394528 231.547912,16.0664062 232.586979,16.0664062 C233.586984,16.0664062 234.329164,16.339841 234.813542,16.8867188 C235.297919,17.4335965 235.540104,18.2226511 235.540104,19.2539062 L235.540104,27 L237.579167,27 L237.579167,18.9023438 C237.579167,17.4648366 237.196358,16.3300823 236.430729,15.4980469 C235.6651,14.6660115 234.586986,14.25 233.196354,14.25 C232.219787,14.25 231.407295,14.4316388 230.758854,14.7949219 C230.110414,15.1582049 229.586981,15.6992152 229.188542,16.4179688 L229.141667,16.4179688 L229.141667,14.3671875 L227.219792,14.3671875 L227.219792,27 Z M246.54349,16.0429688 C245.551297,16.0429688 244.72904,16.3710905 244.076693,17.0273438 C243.424346,17.683597 243.063021,18.5468696 242.992708,19.6171875 L249.941927,19.6171875 C249.91849,18.5468696 249.596227,17.683597 248.97513,17.0273438 C248.354033,16.3710905 247.543495,16.0429688 246.54349,16.0429688 Z M249.895052,23.390625 L251.910677,23.390625 C251.738801,24.4765679 251.160682,25.3691371 250.176302,26.0683594 C249.191922,26.7675816 248.023965,27.1171875 246.672396,27.1171875 C244.89895,27.1171875 243.490761,26.5410214 242.447787,25.3886719 C241.404813,24.2363224 240.883333,22.6836035 240.883333,20.7304688 C240.883333,18.7695214 241.402859,17.1992246 242.441927,16.0195312 C243.480995,14.8398379 244.859887,14.25 246.578646,14.25 C248.266154,14.25 249.602079,14.804682 250.586458,15.9140625 C251.570838,17.023443 252.063021,18.5351467 252.063021,20.4492188 L252.063021,21.2460938 L242.992708,21.2460938 L242.992708,21.3632812 C242.992708,22.5664123 243.332549,23.5273402 244.01224,24.2460938 C244.691931,24.9648473 245.594265,25.3242188 246.719271,25.3242188 C247.508337,25.3242188 248.189971,25.1503924 248.764193,24.8027344 C249.338414,24.4550764 249.715364,23.984378 249.895052,23.390625 Z M255.214844,17.8945312 C255.214844,19.5742271 256.312489,20.6992159 258.507813,21.2695312 L260.722656,21.84375 C261.44141,22.0312509 261.949217,22.2558581 262.246094,22.5175781 C262.54297,22.7792982 262.691406,23.1328103 262.691406,23.578125 C262.691406,24.1484404 262.439456,24.5996077 261.935547,24.9316406 C261.431638,25.2636735 260.750004,25.4296875 259.890625,25.4296875 C259.031246,25.4296875 258.347659,25.2597673 257.839844,24.9199219 C257.332029,24.5800764 257.023438,24.089847 256.914063,23.4492188 L254.863281,23.4492188 C254.964844,24.5429742 255.464839,25.427731 256.363281,26.1035156 C257.261723,26.7793003 258.390618,27.1171875 259.75,27.1171875 C261.210945,27.1171875 262.408199,26.7734409 263.341797,26.0859375 C264.275395,25.3984341 264.742188,24.5156304 264.742188,23.4375 C264.742188,22.5156204 264.484378,21.8027369 263.96875,21.2988281 C263.453123,20.7949194 262.554694,20.3828141 261.273438,20.0625 L259.351563,19.5820312 C258.624996,19.4023429 258.087892,19.1660171 257.740234,18.8730469 C257.392577,18.5800767 257.21875,18.2187521 257.21875,17.7890625 C257.21875,17.2343722 257.457029,16.7890642 257.933594,16.453125 C258.410159,16.1171858 259.039059,15.9492188 259.820313,15.9492188 C260.593754,15.9492188 261.222654,16.121092 261.707031,16.4648438 C262.191409,16.8085955 262.464844,17.2773408 262.527344,17.8710938 L264.484375,17.8710938 C264.445312,16.8320261 263.990239,15.9707065 263.119141,15.2871094 C262.248043,14.6035122 261.171882,14.2617188 259.890625,14.2617188 C258.523431,14.2617188 257.402348,14.599606 256.527344,15.2753906 C255.652339,15.9511753 255.214844,16.8242134 255.214844,17.8945312 Z" id="$-8,000-millones" fill="#FFFFFF"></path>
                            <path d="M46.59027,15.5797595 L46.59027,11.2497269 C46.59027,8.90353228 44.6869351,7 42.3390526,7 C39.9959475,7 38.0878352,8.90266756 38.0878352,11.2497269 L38.0878352,15.5797595 L34.2497269,15.5797595 C31.9035323,15.5797595 30,17.4830944 30,19.8309769 C30,22.174082 31.9026676,24.0821943 34.2497269,24.0821943 L38.0878352,24.0821943 L38.0878352,27.8022532 C38.0878352,30.1484478 39.99117,32.0519801 42.3390526,32.0519801 C44.6821576,32.0519801 46.59027,30.1493126 46.59027,27.8022532 L46.59027,24.0821943 L50.8022532,24.0821943 C53.1484478,24.0821943 55.0519801,22.1788594 55.0519801,19.8309769 C55.0519801,17.4878719 53.1493126,15.5797595 50.8022532,15.5797595 L46.59027,15.5797595 Z" id="Combined-Shape-Copy-6" fill="#EA4A73"></path>
                            <path d="M11.2105034,50.8691406 C10.3836763,50.8691406 9.69846185,51.1425754 9.15483934,51.6894531 C8.61121683,52.2363309 8.31011307,52.9557247 8.25151902,53.8476562 L14.0425346,53.8476562 C14.0230033,52.9557247 13.7544513,52.2363309 13.2368706,51.6894531 C12.7192899,51.1425754 12.0438409,50.8691406 11.2105034,50.8691406 Z M14.0034721,56.9921875 L15.6831596,56.9921875 C15.5399298,57.8971399 15.0581638,58.6409476 14.2378471,59.2236328 C13.4175305,59.806318 12.444233,60.0976562 11.3179253,60.0976562 C9.8400533,60.0976562 8.66656243,59.6175178 7.79741746,58.6572266 C6.92827249,57.6969353 6.49370652,56.4030029 6.49370652,54.7753906 C6.49370652,53.1412679 6.9266449,51.8326872 7.79253465,50.8496094 C8.6584244,49.8665315 9.80750145,49.375 11.2398003,49.375 C12.6460573,49.375 13.7593274,49.837235 14.579644,50.7617188 C15.3999606,51.6862025 15.8101128,52.9459556 15.8101128,54.5410156 L15.8101128,55.2050781 L8.25151902,55.2050781 L8.25151902,55.3027344 C8.25151902,56.3053436 8.53471932,57.1061168 9.1011284,57.7050781 C9.66753748,58.3040395 10.4194831,58.6035156 11.3569878,58.6035156 C12.0145431,58.6035156 12.5825713,58.4586603 13.0610893,58.1689453 C13.5396074,57.8792303 13.8537318,57.4869816 14.0034721,56.9921875 Z M18.6807724,60 L20.3799912,60 L20.3799912,53.8867188 C20.3799912,52.9817663 20.6257569,52.2558621 21.1172959,51.7089844 C21.6088348,51.1621066 22.2875389,50.8886719 23.1534287,50.8886719 C23.9867662,50.8886719 24.6052496,51.1165342 25.0088974,51.5722656 C25.4125453,52.0279971 25.6143662,52.6855426 25.6143662,53.5449219 L25.6143662,60 L27.3135849,60 L27.3135849,53.2519531 C27.3135849,52.0540305 26.9945777,51.1084019 26.3565537,50.4150391 C25.7185297,49.7216762 24.8201011,49.375 23.6612412,49.375 C22.847435,49.375 22.1703585,49.5263657 21.6299912,49.8291016 C21.0896239,50.1318375 20.6534303,50.5826793 20.3213974,51.1816406 L20.2823349,51.1816406 L20.2823349,49.4726562 L18.6807724,49.4726562 L18.6807724,60 Z M36.4240448,49.9707031 L36.4240448,49.9804688 L38.1232636,49.9804688 L38.1232636,49.9707031 C38.1232636,49.1829388 38.3999535,48.5253933 38.9533417,47.9980469 C39.5067299,47.4707005 40.1968272,47.2070312 41.0236542,47.2070312 C41.7983977,47.2070312 42.4575708,47.4446591 43.0011933,47.9199219 C43.5448158,48.3951847 43.816623,48.9713508 43.816623,49.6484375 C43.816623,50.2343779 43.6636297,50.7845026 43.3576386,51.2988281 C43.0516475,51.8131536 42.4233986,52.5683544 41.472873,53.5644531 L36.5119355,58.7890625 L36.5119355,60 L45.8088105,60 L45.8088105,58.4375 L38.9435761,58.4375 L38.9435761,58.3984375 L42.5080292,54.7167969 C43.6864205,53.4993429 44.4920765,52.5293005 44.9250214,51.8066406 C45.3579663,51.0839808 45.5744355,50.32878 45.5744355,49.5410156 C45.5744355,48.4602811 45.1398695,47.5455767 44.2707245,46.796875 C43.4015796,46.0481733 42.3355095,45.6738281 41.0724823,45.6738281 C39.7443507,45.6738281 38.6375909,46.0823527 37.7521698,46.8994141 C36.8667488,47.7164754 36.4240448,48.7402282 36.4240448,49.9707031 Z M53.7575951,60.234375 C55.2289566,60.234375 56.4333717,59.7851607 57.3708764,58.8867188 C58.3083811,57.9882768 58.7771264,56.8326894 58.7771264,55.4199219 C58.7771264,54.0527275 58.3393052,52.9248091 57.4636498,52.0361328 C56.5879944,51.1474565 55.4730967,50.703125 54.1189232,50.703125 C53.448347,50.703125 52.8347463,50.8235665 52.2781029,51.0644531 C51.7214595,51.3053397 51.2836384,51.6373677 50.9646264,52.0605469 L50.9255639,52.0605469 L51.3552514,47.4707031 L57.9763451,47.4707031 L57.9763451,45.9082031 L49.9099389,45.9082031 L49.1384545,53.7988281 L50.7888451,53.7988281 C51.4073378,52.7441354 52.4131871,52.2167969 53.8064232,52.2167969 C54.7439279,52.2167969 55.513777,52.5211558 56.1159936,53.1298828 C56.7182101,53.7386098 57.0193139,54.5182244 57.0193139,55.46875 C57.0193139,56.4127651 56.7182101,57.1858694 56.1159936,57.7880859 C55.513777,58.3903025 54.7341624,58.6914062 53.7771264,58.6914062 C52.930768,58.6914062 52.2178845,58.455406 51.6384545,57.9833984 C51.0590245,57.5113909 50.7302518,56.9010454 50.6521264,56.1523438 L48.9236107,56.1523438 C48.9952257,57.3502664 49.4818745,58.3300743 50.3835717,59.0917969 C51.2852689,59.8535194 52.4099321,60.234375 53.7575951,60.234375 Z M68.1317269,47.0996094 L68.1317269,49.4726562 L66.6668832,49.4726562 L66.6668832,50.8789062 L68.1317269,50.8789062 L68.1317269,57.265625 C68.1317269,58.2747446 68.3351754,58.9957661 68.7420785,59.4287109 C69.1489816,59.8616558 69.8276857,60.078125 70.7782113,60.078125 C70.9800352,60.078125 71.1867389,60.0699871 71.3983285,60.0537109 C71.6099181,60.0374348 71.7677941,60.0162762 71.8719613,59.9902344 L71.8719613,58.5546875 C71.8133673,58.5611979 71.7026913,58.5709635 71.53993,58.5839844 C71.3771688,58.5970053 71.2437066,58.6035156 71.1395394,58.6035156 C70.6903184,58.6035156 70.3599181,58.4895845 70.1483285,58.2617188 C69.9367389,58.033853 69.8309457,57.6790389 69.8309457,57.1972656 L69.8309457,50.8789062 L71.8817269,50.8789062 L71.8817269,49.4726562 L69.8309457,49.4726562 L69.8309457,47.0996094 L68.1317269,47.0996094 Z M74.8500428,60 L76.5492616,60 L76.5492616,53.4863281 C76.5492616,52.7441369 76.7559652,52.1451846 77.1693788,51.6894531 C77.5827923,51.2337217 78.1312894,51.0058594 78.8148866,51.0058594 C79.0232209,51.0058594 79.2136487,51.0156249 79.3861756,51.0351562 C79.5587025,51.0546876 79.6775165,51.0774738 79.7426209,51.1035156 L79.7426209,49.4335938 C79.671006,49.4205729 79.5733507,49.4075521 79.4496522,49.3945312 C79.3259537,49.3815104 79.1892363,49.375 79.0394959,49.375 C78.4275137,49.375 77.8887821,49.5377588 77.423285,49.8632812 C76.9577879,50.1888037 76.6469186,50.6282524 76.4906678,51.1816406 L76.4516053,51.1816406 L76.4516053,49.4726562 L74.8500428,49.4726562 L74.8500428,60 Z M85.5136712,58.6230469 C86.3730505,58.6230469 87.0843064,58.3740259 87.6474603,57.8759766 C88.2106141,57.3779272 88.4921868,56.7513059 88.4921868,55.9960938 L88.4921868,55.1464844 L85.7382806,55.3222656 C84.1367101,55.4199224 83.3359368,55.9830678 83.3359368,57.0117188 C83.3359368,57.5000024 83.532875,57.8906235 83.9267572,58.1835938 C84.3206393,58.476564 84.8496054,58.6230469 85.5136712,58.6230469 Z M85.1523431,60.0976562 C84.0846294,60.0976562 83.225263,59.814456 82.5742181,59.2480469 C81.9231732,58.6816378 81.5976556,57.9329474 81.5976556,57.0019531 C81.5976556,55.1464751 82.9127466,54.1373706 85.5429681,53.9746094 L88.4921868,53.7988281 L88.4921868,52.9199219 C88.4921868,52.2623665 88.2838556,51.7594418 87.8671868,51.4111328 C87.4505181,51.0628238 86.8548209,50.8886719 86.0800775,50.8886719 C85.4680952,50.8886719 84.9521499,51.0335272 84.5322259,51.3232422 C84.1123019,51.6129572 83.8502603,52.008461 83.7460931,52.5097656 L82.1152337,52.5097656 C82.1412755,51.6178341 82.5367794,50.8723988 83.3017572,50.2734375 C84.0667349,49.6744762 84.9993428,49.375 86.0996087,49.375 C87.3431045,49.375 88.3359331,49.6826141 89.0781243,50.2978516 C89.8203156,50.913089 90.1914056,51.7382761 90.1914056,52.7734375 L90.1914056,60 L88.5800775,60 L88.5800775,58.1738281 L88.541015,58.1738281 C88.2415343,58.7597686 87.7858097,59.2268863 87.1738275,59.5751953 C86.5618452,59.9235043 85.8880239,60.0976562 85.1523431,60.0976562 Z M93.5308152,60 L95.230034,60 L95.230034,53.8867188 C95.230034,52.9817663 95.4757998,52.2558621 95.9673387,51.7089844 C96.4588776,51.1621066 97.1375817,50.8886719 98.0034715,50.8886719 C98.836809,50.8886719 99.4552924,51.1165342 99.8589402,51.5722656 C100.262588,52.0279971 100.464409,52.6855426 100.464409,53.5449219 L100.464409,60 L102.163628,60 L102.163628,53.2519531 C102.163628,52.0540305 101.844621,51.1084019 101.206596,50.4150391 C100.568572,49.7216762 99.670144,49.375 98.511284,49.375 C97.6974778,49.375 97.0204013,49.5263657 96.480034,49.8291016 C95.9396667,50.1318375 95.5034732,50.5826793 95.1714402,51.1816406 L95.1323777,51.1816406 L95.1323777,49.4726562 L93.5308152,49.4726562 L93.5308152,60 Z M105.327256,52.4121094 C105.327256,53.811856 106.241961,54.7493466 108.071397,55.2246094 L109.9171,55.703125 C110.516061,55.8593758 110.939234,56.0465484 111.186631,56.2646484 C111.434028,56.4827485 111.557725,56.7773419 111.557725,57.1484375 C111.557725,57.6237003 111.347766,57.9996731 110.927842,58.2763672 C110.507918,58.5530613 109.93989,58.6914062 109.223741,58.6914062 C108.507591,58.6914062 107.937935,58.5498061 107.514756,58.2666016 C107.091577,57.983397 106.834418,57.5748725 106.743272,57.0410156 L105.034287,57.0410156 C105.118923,57.9524785 105.535586,58.6897758 106.284287,59.2529297 C107.032989,59.8160835 107.973735,60.0976562 109.106553,60.0976562 C110.324007,60.0976562 111.321718,59.8112008 112.099717,59.2382812 C112.877716,58.6653617 113.266709,57.929692 113.266709,57.03125 C113.266709,56.263017 113.051868,55.6689474 112.622178,55.2490234 C112.192488,54.8290995 111.443798,54.4856784 110.376084,54.21875 L108.774522,53.8183594 C108.16905,53.668619 107.721463,53.4716809 107.431748,53.2275391 C107.142033,52.9833972 106.997178,52.6822935 106.997178,52.3242188 C106.997178,51.8619769 107.195744,51.4908868 107.592881,51.2109375 C107.990019,50.9309882 108.514102,50.7910156 109.165147,50.7910156 C109.809681,50.7910156 110.333765,50.9342434 110.737412,51.2207031 C111.14106,51.5071629 111.368923,51.897784 111.421006,52.3925781 L113.051866,52.3925781 C113.019313,51.5266884 112.640085,50.8089221 111.91417,50.2392578 C111.188255,49.6695935 110.291454,49.3847656 109.223741,49.3847656 C108.084412,49.3847656 107.150176,49.6663383 106.421006,50.2294922 C105.691836,50.792646 105.327256,51.5201778 105.327256,52.4121094 Z M119.633463,58.6230469 C120.492842,58.6230469 121.204098,58.3740259 121.767252,57.8759766 C122.330406,57.3779272 122.611978,56.7513059 122.611978,55.9960938 L122.611978,55.1464844 L119.858072,55.3222656 C118.256502,55.4199224 117.455728,55.9830678 117.455728,57.0117188 C117.455728,57.5000024 117.652666,57.8906235 118.046549,58.1835938 C118.440431,58.476564 118.969397,58.6230469 119.633463,58.6230469 Z M119.272135,60.0976562 C118.204421,60.0976562 117.345054,59.814456 116.69401,59.2480469 C116.042965,58.6816378 115.717447,57.9329474 115.717447,57.0019531 C115.717447,55.1464751 117.032538,54.1373706 119.66276,53.9746094 L122.611978,53.7988281 L122.611978,52.9199219 C122.611978,52.2623665 122.403647,51.7594418 121.986978,51.4111328 C121.57031,51.0628238 120.974612,50.8886719 120.199869,50.8886719 C119.587887,50.8886719 119.071941,51.0335272 118.652017,51.3232422 C118.232093,51.6129572 117.970052,52.008461 117.865885,52.5097656 L116.235025,52.5097656 C116.261067,51.6178341 116.656571,50.8723988 117.421549,50.2734375 C118.186526,49.6744762 119.119134,49.375 120.2194,49.375 C121.462896,49.375 122.455725,49.6826141 123.197916,50.2978516 C123.940107,50.913089 124.311197,51.7382761 124.311197,52.7734375 L124.311197,60 L122.699869,60 L122.699869,58.1738281 L122.660806,58.1738281 C122.361326,58.7597686 121.905601,59.2268863 121.293619,59.5751953 C120.681637,59.9235043 120.007815,60.0976562 119.272135,60.0976562 Z M136.351779,52.9003906 C136.247611,51.9759068 135.811418,51.1572301 135.043185,50.4443359 C134.274952,49.7314417 133.239806,49.375 131.937716,49.375 C130.498907,49.375 129.338437,49.864904 128.456271,50.8447266 C127.574105,51.8245492 127.133029,53.1217367 127.133029,54.7363281 C127.133029,56.3899822 127.575732,57.6969353 128.461154,58.6572266 C129.346575,59.6175178 130.511928,60.0976562 131.957247,60.0976562 C133.16168,60.0976562 134.162647,59.7753938 134.960177,59.1308594 C135.757707,58.4863249 136.22808,57.6529999 136.37131,56.6308594 L134.701388,56.6308594 C134.558158,57.2623729 134.250544,57.7457666 133.778536,58.0810547 C133.306529,58.4163428 132.702694,58.5839844 131.967013,58.5839844 C131.04904,58.5839844 130.301977,58.2421909 129.725802,57.5585938 C129.149627,56.8749966 128.861544,55.9342508 128.861544,54.7363281 C128.861544,53.5709577 129.146372,52.6383499 129.716036,51.9384766 C130.285701,51.2386033 131.029508,50.8886719 131.947482,50.8886719 C132.741756,50.8886719 133.370005,51.0839824 133.832247,51.4746094 C134.294489,51.8652363 134.57769,52.340492 134.681857,52.9003906 L136.351779,52.9003906 Z M147.786891,52.9003906 C147.682724,51.9759068 147.246531,51.1572301 146.478298,50.4443359 C145.710065,49.7314417 144.674919,49.375 143.372829,49.375 C141.93402,49.375 140.773549,49.864904 139.891384,50.8447266 C139.009218,51.8245492 138.568141,53.1217367 138.568141,54.7363281 C138.568141,56.3899822 139.010845,57.6969353 139.896266,58.6572266 C140.781687,59.6175178 141.94704,60.0976562 143.39236,60.0976562 C144.596793,60.0976562 145.59776,59.7753938 146.39529,59.1308594 C147.19282,58.4863249 147.663193,57.6529999 147.806423,56.6308594 L146.136501,56.6308594 C145.993271,57.2623729 145.685657,57.7457666 145.213649,58.0810547 C144.741642,58.4163428 144.137806,58.5839844 143.402126,58.5839844 C142.484152,58.5839844 141.73709,58.2421909 141.160915,57.5585938 C140.58474,56.8749966 140.296657,55.9342508 140.296657,54.7363281 C140.296657,53.5709577 140.581485,52.6383499 141.151149,51.9384766 C141.720813,51.2386033 142.464621,50.8886719 143.382594,50.8886719 C144.176869,50.8886719 144.805118,51.0839824 145.26736,51.4746094 C145.729602,51.8652363 146.012802,52.340492 146.116969,52.9003906 L147.786891,52.9003906 Z M150.618488,60 L152.317707,60 L152.317707,49.4726562 L150.618488,49.4726562 L150.618488,60 Z M151.468098,47.7734375 C151.767579,47.7734375 152.021482,47.6676443 152.229817,47.4560547 C152.438151,47.2444651 152.542317,46.992189 152.542317,46.6992188 C152.542317,46.3997381 152.438151,46.1458344 152.229817,45.9375 C152.021482,45.7291656 151.767579,45.625 151.468098,45.625 C151.175128,45.625 150.922852,45.7291656 150.711262,45.9375 C150.499672,46.1458344 150.393879,46.3997381 150.393879,46.6992188 C150.393879,46.992189 150.499672,47.2444651 150.711262,47.4560547 C150.922852,47.6676443 151.175128,47.7734375 151.468098,47.7734375 Z M160.139539,60.0976562 C158.661667,60.0976562 157.483293,59.6110075 156.604383,58.6376953 C155.725472,57.6643832 155.286023,56.3639404 155.286023,54.7363281 C155.286023,53.1022054 155.725472,51.8001351 156.604383,50.8300781 C157.483293,49.8600212 158.661667,49.375 160.139539,49.375 C161.617411,49.375 162.795784,49.8600212 163.674695,50.8300781 C164.553606,51.8001351 164.993054,53.1022054 164.993054,54.7363281 C164.993054,56.3639404 164.553606,57.6643832 163.674695,58.6376953 C162.795784,59.6110075 161.617411,60.0976562 160.139539,60.0976562 Z M160.139539,58.5839844 C161.122617,58.5839844 161.88921,58.2438185 162.439343,57.5634766 C162.989476,56.8831346 163.264539,55.9407612 163.264539,54.7363281 C163.264539,53.5253846 162.989476,52.5813836 162.439343,51.9042969 C161.88921,51.2272102 161.122617,50.8886719 160.139539,50.8886719 C159.156461,50.8886719 158.389867,51.2288377 157.839734,51.9091797 C157.289601,52.5895216 157.014539,53.531895 157.014539,54.7363281 C157.014539,55.9407612 157.291229,56.8831346 157.844617,57.5634766 C158.398005,58.2438185 159.162971,58.5839844 160.139539,58.5839844 Z M167.863714,60 L169.562933,60 L169.562933,53.8867188 C169.562933,52.9817663 169.808699,52.2558621 170.300237,51.7089844 C170.791776,51.1621066 171.470481,50.8886719 172.33637,50.8886719 C173.169708,50.8886719 173.788191,51.1165342 174.191839,51.5722656 C174.595487,52.0279971 174.797308,52.6855426 174.797308,53.5449219 L174.797308,60 L176.496527,60 L176.496527,53.2519531 C176.496527,52.0540305 176.177519,51.1084019 175.539495,50.4150391 C174.901471,49.7216762 174.003043,49.375 172.844183,49.375 C172.030377,49.375 171.3533,49.5263657 170.812933,49.8291016 C170.272566,50.1318375 169.836372,50.5826793 169.504339,51.1816406 L169.465277,51.1816406 L169.465277,49.4726562 L167.863714,49.4726562 L167.863714,60 Z M184.035155,50.8691406 C183.208328,50.8691406 182.523113,51.1425754 181.979491,51.6894531 C181.435868,52.2363309 181.134765,52.9557247 181.076171,53.8476562 L186.867186,53.8476562 C186.847655,52.9557247 186.579103,52.2363309 186.061522,51.6894531 C185.543941,51.1425754 184.868492,50.8691406 184.035155,50.8691406 Z M186.828124,56.9921875 L188.507811,56.9921875 C188.364581,57.8971399 187.882815,58.6409476 187.062499,59.2236328 C186.242182,59.806318 185.268885,60.0976562 184.142577,60.0976562 C182.664705,60.0976562 181.491214,59.6175178 180.622069,58.6572266 C179.752924,57.6969353 179.318358,56.4030029 179.318358,54.7753906 C179.318358,53.1412679 179.751296,51.8326872 180.617186,50.8496094 C181.483076,49.8665315 182.632153,49.375 184.064452,49.375 C185.470709,49.375 186.583979,49.837235 187.404296,50.7617188 C188.224612,51.6862025 188.634764,52.9459556 188.634764,54.5410156 L188.634764,55.2050781 L181.076171,55.2050781 L181.076171,55.3027344 C181.076171,56.3053436 181.359371,57.1061168 181.92578,57.7050781 C182.492189,58.3040395 183.244135,58.6035156 184.181639,58.6035156 C184.839195,58.6035156 185.407223,58.4586603 185.885741,58.1689453 C186.364259,57.8792303 186.678383,57.4869816 186.828124,56.9921875 Z M191.329643,52.4121094 C191.329643,53.811856 192.244347,54.7493466 194.073783,55.2246094 L195.919486,55.703125 C196.518448,55.8593758 196.941621,56.0465484 197.189018,56.2646484 C197.436415,56.4827485 197.560111,56.7773419 197.560111,57.1484375 C197.560111,57.6237003 197.350153,57.9996731 196.930229,58.2763672 C196.510305,58.5530613 195.942277,58.6914062 195.226127,58.6914062 C194.509978,58.6914062 193.940322,58.5498061 193.517143,58.2666016 C193.093964,57.983397 192.836805,57.5748725 192.745658,57.0410156 L191.036674,57.0410156 C191.12131,57.9524785 191.537972,58.6897758 192.286674,59.2529297 C193.035376,59.8160835 193.976121,60.0976562 195.10894,60.0976562 C196.326394,60.0976562 197.324105,59.8112008 198.102104,59.2382812 C198.880102,58.6653617 199.269096,57.929692 199.269096,57.03125 C199.269096,56.263017 199.054254,55.6689474 198.624565,55.2490234 C198.194875,54.8290995 197.446185,54.4856784 196.378471,54.21875 L194.776908,53.8183594 C194.171437,53.668619 193.72385,53.4716809 193.434135,53.2275391 C193.14442,52.9833972 192.999565,52.6822935 192.999565,52.3242188 C192.999565,51.8619769 193.19813,51.4908868 193.595268,51.2109375 C193.992405,50.9309882 194.516488,50.7910156 195.167533,50.7910156 C195.812068,50.7910156 196.336151,50.9342434 196.739799,51.2207031 C197.143447,51.5071629 197.371309,51.897784 197.423393,52.3925781 L199.054252,52.3925781 C199.0217,51.5266884 198.642472,50.8089221 197.916557,50.2392578 C197.190642,49.6695935 196.293841,49.3847656 195.226127,49.3847656 C194.086798,49.3847656 193.152563,49.6663383 192.423393,50.2294922 C191.694222,50.792646 191.329643,51.5201778 191.329643,52.4121094 Z M212.266275,50.8691406 C211.439447,50.8691406 210.754233,51.1425754 210.21061,51.6894531 C209.666988,52.2363309 209.365884,52.9557247 209.30729,53.8476562 L215.098306,53.8476562 C215.078774,52.9557247 214.810222,52.2363309 214.292642,51.6894531 C213.775061,51.1425754 213.099612,50.8691406 212.266275,50.8691406 Z M215.059243,56.9921875 L216.738931,56.9921875 C216.595701,57.8971399 216.113935,58.6409476 215.293618,59.2236328 C214.473302,59.806318 213.500004,60.0976562 212.373696,60.0976562 C210.895824,60.0976562 209.722334,59.6175178 208.853189,58.6572266 C207.984044,57.6969353 207.549478,56.4030029 207.549478,54.7753906 C207.549478,53.1412679 207.982416,51.8326872 208.848306,50.8496094 C209.714196,49.8665315 210.863273,49.375 212.295571,49.375 C213.701828,49.375 214.815099,49.837235 215.635415,50.7617188 C216.455732,51.6862025 216.865884,52.9459556 216.865884,54.5410156 L216.865884,55.2050781 L209.30729,55.2050781 L209.30729,55.3027344 C209.30729,56.3053436 209.59049,57.1061168 210.1569,57.7050781 C210.723309,58.3040395 211.475254,58.6035156 212.412759,58.6035156 C213.070314,58.6035156 213.638342,58.4586603 214.11686,58.1689453 C214.595378,57.8792303 214.909503,57.4869816 215.059243,56.9921875 Z M223.232637,55.9667969 L225.781465,60 L227.675997,60 L224.160372,54.6679688 L227.724825,49.4726562 L225.830294,49.4726562 L223.291231,53.4472656 L223.252169,53.4472656 L220.683809,49.4726562 L218.789278,49.4726562 L222.3342,54.7363281 L218.730684,60 L220.625215,60 L223.193575,55.9667969 L223.232637,55.9667969 Z M230.400172,60 L232.099391,60 L232.099391,49.4726562 L230.400172,49.4726562 L230.400172,60 Z M231.249781,47.7734375 C231.549262,47.7734375 231.803166,47.6676443 232.0115,47.4560547 C232.219834,47.2444651 232.324,46.992189 232.324,46.6992188 C232.324,46.3997381 232.219834,46.1458344 232.0115,45.9375 C231.803166,45.7291656 231.549262,45.625 231.249781,45.625 C230.956811,45.625 230.704535,45.7291656 230.492945,45.9375 C230.281356,46.1458344 230.175563,46.3997381 230.175563,46.6992188 C230.175563,46.992189 230.281356,47.2444651 230.492945,47.4560547 C230.704535,47.6676443 230.956811,47.7734375 231.249781,47.7734375 Z M236.141925,47.0996094 L236.141925,49.4726562 L234.677082,49.4726562 L234.677082,50.8789062 L236.141925,50.8789062 L236.141925,57.265625 C236.141925,58.2747446 236.345374,58.9957661 236.752277,59.4287109 C237.15918,59.8616558 237.837884,60.078125 238.78841,60.078125 C238.990234,60.078125 239.196937,60.0699871 239.408527,60.0537109 C239.620116,60.0374348 239.777993,60.0162762 239.88216,59.9902344 L239.88216,58.5546875 C239.823566,58.5611979 239.71289,58.5709635 239.550128,58.5839844 C239.387367,58.5970053 239.253905,58.6035156 239.149738,58.6035156 C238.700517,58.6035156 238.370116,58.4895845 238.158527,58.2617188 C237.946937,58.033853 237.841144,57.6790389 237.841144,57.1972656 L237.841144,50.8789062 L239.891925,50.8789062 L239.891925,49.4726562 L237.841144,49.4726562 L237.841144,47.0996094 L236.141925,47.0996094 Z M246.90321,60.0976562 C245.425338,60.0976562 244.246964,59.6110075 243.368054,58.6376953 C242.489143,57.6643832 242.049694,56.3639404 242.049694,54.7363281 C242.049694,53.1022054 242.489143,51.8001351 243.368054,50.8300781 C244.246964,49.8600212 245.425338,49.375 246.90321,49.375 C248.381082,49.375 249.559456,49.8600212 250.438366,50.8300781 C251.317277,51.8001351 251.756726,53.1022054 251.756726,54.7363281 C251.756726,56.3639404 251.317277,57.6643832 250.438366,58.6376953 C249.559456,59.6110075 248.381082,60.0976562 246.90321,60.0976562 Z M246.90321,58.5839844 C247.886288,58.5839844 248.652882,58.2438185 249.203015,57.5634766 C249.753148,56.8831346 250.02821,55.9407612 250.02821,54.7363281 C250.02821,53.5253846 249.753148,52.5813836 249.203015,51.9042969 C248.652882,51.2272102 247.886288,50.8886719 246.90321,50.8886719 C245.920132,50.8886719 245.153538,51.2288377 244.603405,51.9091797 C244.053272,52.5895216 243.77821,53.531895 243.77821,54.7363281 C243.77821,55.9407612 244.0549,56.8831346 244.608288,57.5634766 C245.161676,58.2438185 245.926643,58.5839844 246.90321,58.5839844 Z M254.451604,52.4121094 C254.451604,53.811856 255.366308,54.7493466 257.195745,55.2246094 L259.041448,55.703125 C259.640409,55.8593758 260.063582,56.0465484 260.310979,56.2646484 C260.558376,56.4827485 260.682073,56.7773419 260.682073,57.1484375 C260.682073,57.6237003 260.472114,57.9996731 260.05219,58.2763672 C259.632266,58.5530613 259.064238,58.6914062 258.348088,58.6914062 C257.631939,58.6914062 257.062283,58.5498061 256.639104,58.2666016 C256.215925,57.983397 255.958766,57.5748725 255.86762,57.0410156 L254.158635,57.0410156 C254.243271,57.9524785 254.659934,58.6897758 255.408635,59.2529297 C256.157337,59.8160835 257.098083,60.0976562 258.230901,60.0976562 C259.448355,60.0976562 260.446066,59.8112008 261.224065,59.2382812 C262.002064,58.6653617 262.391057,57.929692 262.391057,57.03125 C262.391057,56.263017 262.176216,55.6689474 261.746526,55.2490234 C261.316836,54.8290995 260.568146,54.4856784 259.500432,54.21875 L257.89887,53.8183594 C257.293398,53.668619 256.845811,53.4716809 256.556096,53.2275391 C256.266381,52.9833972 256.121526,52.6822935 256.121526,52.3242188 C256.121526,51.8619769 256.320092,51.4908868 256.717229,51.2109375 C257.114366,50.9309882 257.63845,50.7910156 258.289495,50.7910156 C258.934029,50.7910156 259.458112,50.9342434 259.86176,51.2207031 C260.265408,51.5071629 260.49327,51.897784 260.545354,52.3925781 L262.176213,52.3925781 C262.143661,51.5266884 261.764433,50.8089221 261.038518,50.2392578 C260.312603,49.6695935 259.415802,49.3847656 258.348088,49.3847656 C257.20876,49.3847656 256.274524,49.6663383 255.545354,50.2294922 C254.816184,50.792646 254.451604,51.5201778 254.451604,52.4121094 Z M268.757811,58.6230469 C269.61719,58.6230469 270.328446,58.3740259 270.8916,57.8759766 C271.454753,57.3779272 271.736326,56.7513059 271.736326,55.9960938 L271.736326,55.1464844 L268.98242,55.3222656 C267.380849,55.4199224 266.580076,55.9830678 266.580076,57.0117188 C266.580076,57.5000024 266.777014,57.8906235 267.170896,58.1835938 C267.564779,58.476564 268.093745,58.6230469 268.757811,58.6230469 Z M268.396482,60.0976562 C267.328769,60.0976562 266.469402,59.814456 265.818357,59.2480469 C265.167312,58.6816378 264.841795,57.9329474 264.841795,57.0019531 C264.841795,55.1464751 266.156886,54.1373706 268.787107,53.9746094 L271.736326,53.7988281 L271.736326,52.9199219 C271.736326,52.2623665 271.527995,51.7594418 271.111326,51.4111328 C270.694657,51.0628238 270.09896,50.8886719 269.324217,50.8886719 C268.712235,50.8886719 268.196289,51.0335272 267.776365,51.3232422 C267.356441,51.6129572 267.0944,52.008461 266.990232,52.5097656 L265.359373,52.5097656 C265.385415,51.6178341 265.780919,50.8723988 266.545896,50.2734375 C267.310874,49.6744762 268.243482,49.375 269.343748,49.375 C270.587244,49.375 271.580072,49.6826141 272.322264,50.2978516 C273.064455,50.913089 273.435545,51.7382761 273.435545,52.7734375 L273.435545,60 L271.824217,60 L271.824217,58.1738281 L271.785154,58.1738281 C271.485674,58.7597686 271.029949,59.2268863 270.417967,59.5751953 C269.805985,59.9235043 269.132163,60.0976562 268.396482,60.0976562 Z M276.599173,52.4121094 C276.599173,53.811856 277.513878,54.7493466 279.343314,55.2246094 L281.189017,55.703125 C281.787978,55.8593758 282.211151,56.0465484 282.458548,56.2646484 C282.705945,56.4827485 282.829642,56.7773419 282.829642,57.1484375 C282.829642,57.6237003 282.619683,57.9996731 282.199759,58.2763672 C281.779835,58.5530613 281.211807,58.6914062 280.495658,58.6914062 C279.779508,58.6914062 279.209853,58.5498061 278.786673,58.2666016 C278.363494,57.983397 278.106335,57.5748725 278.015189,57.0410156 L276.306205,57.0410156 C276.39084,57.9524785 276.807503,58.6897758 277.556205,59.2529297 C278.304906,59.8160835 279.245652,60.0976562 280.37847,60.0976562 C281.595924,60.0976562 282.593636,59.8112008 283.371634,59.2382812 C284.149633,58.6653617 284.538626,57.929692 284.538626,57.03125 C284.538626,56.263017 284.323785,55.6689474 283.894095,55.2490234 C283.464406,54.8290995 282.715715,54.4856784 281.648001,54.21875 L280.046439,53.8183594 C279.440967,53.668619 278.99338,53.4716809 278.703665,53.2275391 C278.413951,52.9833972 278.269095,52.6822935 278.269095,52.3242188 C278.269095,51.8619769 278.467661,51.4908868 278.864798,51.2109375 C279.261936,50.9309882 279.786019,50.7910156 280.437064,50.7910156 C281.081598,50.7910156 281.605682,50.9342434 282.00933,51.2207031 C282.412977,51.5071629 282.64084,51.897784 282.692923,52.3925781 L284.323783,52.3925781 C284.29123,51.5266884 283.912002,50.8089221 283.186087,50.2392578 C282.460172,49.6695935 281.563371,49.3847656 280.495658,49.3847656 C279.356329,49.3847656 278.422094,49.6663383 277.692923,50.2294922 C276.963753,50.792646 276.599173,51.5201778 276.599173,52.4121094 Z" id="en-25-transacciones" fill="#FFFFFF"></path>
                        </g>
                    </g>
                    <g id="benefits1-copy" transform="translate(0.000000, 451.257410)">
                        <g id="Features">
                            <path d="M77.671875,20 L79.7109375,20 L79.7109375,3.08984375 L77.6484375,3.08984375 L76.96875,3.57617188 C76.5156227,3.90039225 75.9921905,4.2773416 75.3984375,4.70703125 C74.8046845,5.1367209 74.2812523,5.51367025 73.828125,5.83789062 L73.1484375,6.32421875 L73.1484375,8.55078125 L73.8222656,8.06445312 C74.2714866,7.74023275 74.7929658,7.3652365 75.3867188,6.93945312 C75.9804717,6.51366975 76.5019509,6.1386735 76.9511719,5.81445312 L77.625,5.328125 L77.671875,5.328125 L77.671875,20 Z M91.0307292,20.28125 C92.796363,20.28125 94.241661,19.7421929 95.3666667,18.6640625 C96.4916723,17.5859321 97.0541667,16.1992272 97.0541667,14.5039062 C97.0541667,12.863273 96.5287813,11.509771 95.4779948,10.4433594 C94.4272083,9.37694779 93.089331,8.84375 91.4643229,8.84375 C90.6596314,8.84375 89.9233106,8.9882798 89.2553385,9.27734375 C88.5873665,9.5664077 88.0619811,9.96484121 87.6791667,10.4726562 L87.6322917,10.4726562 L88.1479167,4.96484375 L96.0932292,4.96484375 L96.0932292,3.08984375 L86.4135417,3.08984375 L85.4877604,12.5585938 L87.4682292,12.5585938 C88.2104204,11.2929624 89.4174396,10.6601562 91.0893229,10.6601562 C92.2143285,10.6601562 93.1381474,11.025387 93.8608073,11.7558594 C94.5834672,12.4863318 94.9447917,13.4218693 94.9447917,14.5625 C94.9447917,15.6953182 94.5834672,16.6230433 93.8608073,17.3457031 C93.1381474,18.068363 92.2026099,18.4296875 91.0541667,18.4296875 C90.0385366,18.4296875 89.1830764,18.1464872 88.4877604,17.5800781 C87.7924444,17.013669 87.3979171,16.2812545 87.3041667,15.3828125 L85.2299479,15.3828125 C85.3158859,16.8203197 85.8998644,17.9960892 86.981901,18.9101562 C88.0639377,19.8242233 89.4135336,20.28125 91.0307292,20.28125 Z M106.39349,20.28125 C104.416917,20.28125 102.883729,19.4921954 101.79388,17.9140625 C100.704031,16.3359296 100.159115,14.2109509 100.159115,11.5390625 C100.159115,8.89061176 100.707937,6.77344543 101.805599,5.1875 C102.903261,3.60155457 104.432542,2.80859375 106.39349,2.80859375 C108.354437,2.80859375 109.879812,3.59764836 110.969661,5.17578125 C112.059511,6.75391414 112.604427,8.87108047 112.604427,11.5273438 C112.604427,14.1992321 112.061464,16.326164 110.975521,17.9082031 C109.889578,19.4902423 108.362249,20.28125 106.39349,20.28125 Z M106.39349,18.4414062 C107.713809,18.4414062 108.725517,17.8183656 109.428646,16.5722656 C110.131774,15.3261656 110.483333,13.648448 110.483333,11.5390625 C110.483333,9.46092711 110.127868,7.79492814 109.416927,6.54101562 C108.705986,5.28710311 107.698184,4.66015625 106.39349,4.66015625 C105.088796,4.66015625 104.077087,5.28905621 103.358333,6.546875 C102.63958,7.80469379 102.280208,9.46483344 102.280208,11.5273438 C102.280208,13.6367293 102.635674,15.3164 103.346615,16.5664062 C104.057556,17.8164125 105.07317,18.4414062 106.39349,18.4414062 Z M120.689844,15.1601562 L123.748438,20 L126.021875,20 L121.803125,13.6015625 L126.080469,7.3671875 L123.807031,7.3671875 L120.760156,12.1367188 L120.713281,12.1367188 L117.63125,7.3671875 L115.357813,7.3671875 L119.611719,13.6835938 L115.2875,20 L117.560938,20 L120.642969,15.1601562 L120.689844,15.1601562 Z M140.845052,20.1171875 C139.259107,20.1171875 137.960292,19.5273496 136.948568,18.3476562 C135.936844,17.1679629 135.43099,15.6132909 135.43099,13.6835938 C135.43099,11.7538966 135.932938,10.1992246 136.936849,9.01953125 C137.94076,7.83983785 139.227857,7.25 140.798177,7.25 C141.704432,7.25 142.507158,7.43749812 143.20638,7.8125 C143.905602,8.18750188 144.446613,8.72265277 144.829427,9.41796875 L144.876302,9.41796875 L144.876302,2.3515625 L146.915365,2.3515625 L146.915365,20 L144.970052,20 L144.970052,17.8671875 L144.934896,17.8671875 C144.528644,18.5937536 143.973962,19.1503887 143.270833,19.5371094 C142.567705,19.9238301 141.759119,20.1171875 140.845052,20.1171875 Z M141.208333,9.06640625 C140.098953,9.06640625 139.206384,9.48632393 138.530599,10.3261719 C137.854814,11.1660198 137.516927,12.2851493 137.516927,13.6835938 C137.516927,15.0820382 137.854814,16.2011677 138.530599,17.0410156 C139.206384,17.8808636 140.098953,18.3007812 141.208333,18.3007812 C142.302089,18.3007812 143.188799,17.8750043 143.86849,17.0234375 C144.548181,16.1718707 144.888021,15.0586006 144.888021,13.6835938 C144.888021,12.3085869 144.548181,11.1953168 143.86849,10.34375 C143.188799,9.49218324 142.302089,9.06640625 141.208333,9.06640625 Z M156.055469,9.04296875 C155.063276,9.04296875 154.241019,9.37109047 153.588672,10.0273438 C152.936325,10.683597 152.575,11.5468696 152.504688,12.6171875 L159.453906,12.6171875 C159.430469,11.5468696 159.108206,10.683597 158.487109,10.0273438 C157.866013,9.37109047 157.055474,9.04296875 156.055469,9.04296875 Z M159.407031,16.390625 L161.422656,16.390625 C161.25078,17.4765679 160.672661,18.3691371 159.688281,19.0683594 C158.703901,19.7675816 157.535944,20.1171875 156.184375,20.1171875 C154.410929,20.1171875 153.00274,19.5410214 151.959766,18.3886719 C150.916792,17.2363224 150.395313,15.6836035 150.395313,13.7304688 C150.395313,11.7695214 150.914839,10.1992246 151.953906,9.01953125 C152.992974,7.83983785 154.371866,7.25 156.090625,7.25 C157.778133,7.25 159.114058,7.80468195 160.098438,8.9140625 C161.082817,10.023443 161.575,11.5351467 161.575,13.4492188 L161.575,14.2460938 L152.504688,14.2460938 L152.504688,14.3632812 C152.504688,15.5664123 152.844528,16.5273402 153.524219,17.2460938 C154.20391,17.9648473 155.106244,18.3242188 156.23125,18.3242188 C157.020316,18.3242188 157.70195,18.1503924 158.276172,17.8027344 C158.850394,17.4550764 159.227343,16.984378 159.407031,16.390625 Z M177.007552,18.1835938 C178.116933,18.1835938 179.013408,17.7636761 179.697005,16.9238281 C180.380602,16.0839802 180.722396,14.988288 180.722396,13.6367188 C180.722396,12.277337 180.380602,11.1757855 179.697005,10.3320312 C179.013408,9.48827703 178.116933,9.06640625 177.007552,9.06640625 C175.905984,9.06640625 175.02318,9.48241771 174.359115,10.3144531 C173.695049,11.1464885 173.363021,12.2538993 173.363021,13.6367188 C173.363021,15.0117256 173.695049,16.1132771 174.359115,16.9414062 C175.02318,17.7695354 175.905984,18.1835938 177.007552,18.1835938 Z M177.077865,24.7578125 C175.71067,24.7578125 174.530995,24.4082066 173.538802,23.7089844 C172.54661,23.0097621 171.960678,22.1250054 171.78099,21.0546875 L173.890365,21.0546875 C174.093491,21.6406279 174.491924,22.1113263 175.085677,22.4667969 C175.67943,22.8222674 176.374736,23 177.171615,23 C178.273183,23 179.140361,22.7070342 179.773177,22.1210938 C180.405993,21.5351533 180.722396,20.7656298 180.722396,19.8125 L180.722396,17.8320312 L180.675521,17.8320312 C180.277081,18.5195347 179.722399,19.0527325 179.011458,19.4316406 C178.300517,19.8105488 177.50365,20 176.620833,20 C175.019263,20 173.72826,19.4160215 172.747787,18.2480469 C171.767313,17.0800723 171.277083,15.5429783 171.277083,13.6367188 C171.277083,11.7070216 171.769266,10.1601621 172.753646,8.99609375 C173.738026,7.83202543 175.0427,7.25 176.667708,7.25 C177.558338,7.25 178.361064,7.43749812 179.075912,7.8125 C179.790759,8.18750188 180.359113,8.72265277 180.78099,9.41796875 L180.816146,9.41796875 L180.816146,7.3671875 L182.761458,7.3671875 L182.761458,19.7421875 C182.761458,21.2500075 182.247792,22.462886 181.220443,23.3808594 C180.193094,24.2988327 178.812248,24.7578125 177.077865,24.7578125 Z M191.784375,9.04296875 C190.792183,9.04296875 189.969925,9.37109047 189.317578,10.0273438 C188.665231,10.683597 188.303907,11.5468696 188.233594,12.6171875 L195.182813,12.6171875 C195.159375,11.5468696 194.837113,10.683597 194.216016,10.0273438 C193.594919,9.37109047 192.78438,9.04296875 191.784375,9.04296875 Z M195.135938,16.390625 L197.151563,16.390625 C196.979687,17.4765679 196.401567,18.3691371 195.417188,19.0683594 C194.432808,19.7675816 193.264851,20.1171875 191.913281,20.1171875 C190.139835,20.1171875 188.731646,19.5410214 187.688672,18.3886719 C186.645698,17.2363224 186.124219,15.6836035 186.124219,13.7304688 C186.124219,11.7695214 186.643745,10.1992246 187.682813,9.01953125 C188.72188,7.83983785 190.100773,7.25 191.819531,7.25 C193.50704,7.25 194.842964,7.80468195 195.827344,8.9140625 C196.811724,10.023443 197.303906,11.5351467 197.303906,13.4492188 L197.303906,14.2460938 L188.233594,14.2460938 L188.233594,14.3632812 C188.233594,15.5664123 188.573434,16.5273402 189.253125,17.2460938 C189.932816,17.9648473 190.835151,18.3242188 191.960156,18.3242188 C192.749223,18.3242188 193.430857,18.1503924 194.005078,17.8027344 C194.5793,17.4550764 194.956249,16.984378 195.135938,16.390625 Z M200.666667,20 L202.705729,20 L202.705729,12.6640625 C202.705729,11.5781196 203.000648,10.7070345 203.590495,10.0507812 C204.180342,9.39452797 204.994787,9.06640625 206.033854,9.06640625 C207.033859,9.06640625 207.776039,9.33984102 208.260417,9.88671875 C208.744794,10.4335965 208.986979,11.2226511 208.986979,12.2539062 L208.986979,20 L211.026042,20 L211.026042,11.9023438 C211.026042,10.4648366 210.643233,9.33008229 209.877604,8.49804688 C209.111975,7.66601146 208.033861,7.25 206.643229,7.25 C205.666662,7.25 204.85417,7.43163881 204.205729,7.79492187 C203.557289,8.15820494 203.033856,8.69921516 202.635417,9.41796875 L202.588542,9.41796875 L202.588542,7.3671875 L200.666667,7.3671875 L200.666667,20 Z M219.990365,9.04296875 C218.998172,9.04296875 218.175915,9.37109047 217.523568,10.0273438 C216.871221,10.683597 216.509896,11.5468696 216.439583,12.6171875 L223.388802,12.6171875 C223.365365,11.5468696 223.043102,10.683597 222.422005,10.0273438 C221.800908,9.37109047 220.99037,9.04296875 219.990365,9.04296875 Z M223.341927,16.390625 L225.357552,16.390625 C225.185676,17.4765679 224.607557,18.3691371 223.623177,19.0683594 C222.638797,19.7675816 221.47084,20.1171875 220.119271,20.1171875 C218.345825,20.1171875 216.937636,19.5410214 215.894662,18.3886719 C214.851688,17.2363224 214.330208,15.6836035 214.330208,13.7304688 C214.330208,11.7695214 214.849734,10.1992246 215.888802,9.01953125 C216.92787,7.83983785 218.306762,7.25 220.025521,7.25 C221.713029,7.25 223.048953,7.80468195 224.033333,8.9140625 C225.017713,10.023443 225.509896,11.5351467 225.509896,13.4492188 L225.509896,14.2460938 L216.439583,14.2460938 L216.439583,14.3632812 C216.439583,15.5664123 216.779424,16.5273402 217.459115,17.2460938 C218.138806,17.9648473 219.04114,18.3242188 220.166146,18.3242188 C220.955212,18.3242188 221.636846,18.1503924 222.211068,17.8027344 C222.785289,17.4550764 223.162239,16.984378 223.341927,16.390625 Z M228.872656,20 L230.911719,20 L230.911719,12.1835938 C230.911719,11.2929643 231.159763,10.5742215 231.655859,10.0273438 C232.151956,9.48046602 232.810152,9.20703125 233.630469,9.20703125 C233.88047,9.20703125 234.108983,9.21874988 234.316016,9.2421875 C234.523048,9.26562512 234.665625,9.29296859 234.74375,9.32421875 L234.74375,7.3203125 C234.657812,7.30468742 234.540626,7.28906258 234.392188,7.2734375 C234.243749,7.25781242 234.079688,7.25 233.9,7.25 C233.165621,7.25 232.519144,7.44531055 231.960547,7.8359375 C231.40195,8.22656445 231.028907,8.75390293 230.841406,9.41796875 L230.794531,9.41796875 L230.794531,7.3671875 L228.872656,7.3671875 L228.872656,20 Z M241.586979,18.3476562 C242.618234,18.3476562 243.471742,18.0488311 244.147526,17.4511719 C244.823311,16.8535126 245.161198,16.101567 245.161198,15.1953125 L245.161198,14.1757812 L241.856511,14.3867188 C239.934626,14.5039068 238.973698,15.1796813 238.973698,16.4140625 C238.973698,17.0000029 239.210024,17.4687482 239.682682,17.8203125 C240.155341,18.1718768 240.7901,18.3476562 241.586979,18.3476562 Z M241.153386,20.1171875 C239.872129,20.1171875 238.840889,19.7773471 238.059636,19.0976562 C237.278382,18.4179654 236.887761,17.5195368 236.887761,16.4023438 C236.887761,14.1757701 238.46587,12.9648447 241.622136,12.7695312 L245.161198,12.5585938 L245.161198,11.5039062 C245.161198,10.7148398 244.911201,10.1113302 244.411198,9.69335938 C243.911196,9.27538854 243.196359,9.06640625 242.266667,9.06640625 C241.532288,9.06640625 240.913154,9.24023264 240.409245,9.58789062 C239.905336,9.93554861 239.590886,10.4101532 239.465886,11.0117188 L237.508854,11.0117188 C237.540104,9.9414009 238.014709,9.04687859 238.932682,8.328125 C239.850656,7.60937141 240.969785,7.25 242.290104,7.25 C243.782299,7.25 244.973694,7.61913693 245.864323,8.35742188 C246.754952,9.09570682 247.200261,10.0859313 247.200261,11.328125 L247.200261,20 L245.266667,20 L245.266667,17.8085938 L245.219792,17.8085938 C244.860415,18.5117223 244.313545,19.0722635 243.579167,19.4902344 C242.844788,19.9082052 242.036202,20.1171875 241.153386,20.1171875 Z M261.566927,11.4804688 C261.441927,10.3710882 260.918494,9.38867615 259.996615,8.53320312 C259.074735,7.6777301 257.83256,7.25 256.270052,7.25 C254.543481,7.25 253.150917,7.83788475 252.092318,9.01367188 C251.033719,10.189459 250.504427,11.7460841 250.504427,13.6835938 C250.504427,15.6679787 251.035672,17.2363224 252.098177,18.3886719 C253.160683,19.5410214 254.559106,20.1171875 256.29349,20.1171875 C257.738809,20.1171875 258.939969,19.7304726 259.897005,18.9570312 C260.854041,18.1835899 261.418489,17.1835999 261.590365,15.9570312 L259.586458,15.9570312 C259.414583,16.7148475 259.045446,17.2949199 258.479037,17.6972656 C257.912627,18.0996114 257.188025,18.3007812 256.305208,18.3007812 C255.20364,18.3007812 254.307165,17.8906291 253.615755,17.0703125 C252.924346,16.2499959 252.578646,15.1211009 252.578646,13.6835938 C252.578646,12.2851493 252.920439,11.1660198 253.604037,10.3261719 C254.287634,9.48632393 255.180203,9.06640625 256.281771,9.06640625 C257.234901,9.06640625 257.988799,9.30077891 258.54349,9.76953125 C259.09818,10.2382836 259.43802,10.8085904 259.563021,11.4804688 L261.566927,11.4804688 Z M264.882813,20 L266.921875,20 L266.921875,7.3671875 L264.882813,7.3671875 L264.882813,20 Z M266.769531,5.3515625 L269.828125,1.8359375 L267.507813,1.8359375 L265.035156,5.3515625 L266.769531,5.3515625 Z M276.226042,20.1171875 C274.452595,20.1171875 273.038547,19.533209 271.983854,18.3652344 C270.929162,17.1972598 270.401823,15.6367285 270.401823,13.6835938 C270.401823,11.7226464 270.929162,10.1601621 271.983854,8.99609375 C273.038547,7.83202543 274.452595,7.25 276.226042,7.25 C277.999488,7.25 279.413537,7.83202543 280.468229,8.99609375 C281.522922,10.1601621 282.050261,11.7226464 282.050261,13.6835938 C282.050261,15.6367285 281.522922,17.1972598 280.468229,18.3652344 C279.413537,19.533209 277.999488,20.1171875 276.226042,20.1171875 Z M276.226042,18.3007812 C277.405735,18.3007812 278.325648,17.8925822 278.985807,17.0761719 C279.645967,16.2597615 279.976042,15.1289135 279.976042,13.6835938 C279.976042,12.2304615 279.645967,11.0976603 278.985807,10.2851562 C278.325648,9.47265219 277.405735,9.06640625 276.226042,9.06640625 C275.046348,9.06640625 274.126436,9.47460529 273.466276,10.2910156 C272.806117,11.107426 272.476042,12.238274 272.476042,13.6835938 C272.476042,15.1289135 272.80807,16.2597615 273.472136,17.0761719 C274.136201,17.8925822 275.054161,18.3007812 276.226042,18.3007812 Z M285.413021,20 L287.452083,20 L287.452083,12.6640625 C287.452083,11.5781196 287.747002,10.7070345 288.336849,10.0507812 C288.926696,9.39452797 289.741141,9.06640625 290.780208,9.06640625 C291.780213,9.06640625 292.522394,9.33984102 293.006771,9.88671875 C293.491148,10.4335965 293.733333,11.2226511 293.733333,12.2539062 L293.733333,20 L295.772396,20 L295.772396,11.9023438 C295.772396,10.4648366 295.389587,9.33008229 294.623958,8.49804688 C293.85833,7.66601146 292.780215,7.25 291.389583,7.25 C290.413016,7.25 289.600524,7.43163881 288.952083,7.79492187 C288.303643,8.15820494 287.78021,8.69921516 287.381771,9.41796875 L287.334896,9.41796875 L287.334896,7.3671875 L285.413021,7.3671875 L285.413021,20 Z" id="150x-de-generacon" fill="#FFFFFF"></path>
                            <path d="M46.59027,8.57975953 L46.59027,4.24972694 C46.59027,1.90353228 44.6869351,0 42.3390526,0 C39.9959475,0 38.0878352,1.90266756 38.0878352,4.24972694 L38.0878352,8.57975953 L34.2497269,8.57975953 C31.9035323,8.57975953 30,10.4830944 30,12.8309769 C30,15.174082 31.9026676,17.0821943 34.2497269,17.0821943 L38.0878352,17.0821943 L38.0878352,20.8022532 C38.0878352,23.1484478 39.99117,25.0519801 42.3390526,25.0519801 C44.6821576,25.0519801 46.59027,23.1493126 46.59027,20.8022532 L46.59027,17.0821943 L50.8022532,17.0821943 C53.1484478,17.0821943 55.0519801,15.1788594 55.0519801,12.8309769 C55.0519801,10.4878719 53.1493126,8.57975953 50.8022532,8.57975953 L46.59027,8.57975953 Z" id="Combined-Shape-Copy-6" fill="#EA4A73"></path>
                            <path d="M5.13671875,53.0976562 C3.81509756,53.0976562 2.73275161,52.6061247 1.88964844,51.6230469 C1.04654526,50.639969 0.625,49.3444091 0.625,47.7363281 C0.625,46.1282472 1.04329009,44.8326872 1.87988281,43.8496094 C2.71647554,42.8665315 3.78905596,42.375 5.09765625,42.375 C5.85286836,42.375 6.52180698,42.5312484 7.10449219,42.84375 C7.68717739,43.1562516 8.13801924,43.6022106 8.45703125,44.1816406 L8.49609375,44.1816406 L8.49609375,38.2929688 L10.1953125,38.2929688 L10.1953125,53 L8.57421875,53 L8.57421875,51.2226562 L8.54492188,51.2226562 C8.20637852,51.828128 7.74414355,52.2919906 7.15820312,52.6142578 C6.5722627,52.936525 5.89844131,53.0976562 5.13671875,53.0976562 Z M5.43945312,43.8886719 C4.51496934,43.8886719 3.77116167,44.2386033 3.20800781,44.9384766 C2.64485396,45.6383499 2.36328125,46.5709577 2.36328125,47.7363281 C2.36328125,48.9016985 2.64485396,49.8343064 3.20800781,50.5341797 C3.77116167,51.234053 4.51496934,51.5839844 5.43945312,51.5839844 C6.35091602,51.5839844 7.08984092,51.2291702 7.65625,50.5195312 C8.22265908,49.8098923 8.50585938,48.8821672 8.50585938,47.7363281 C8.50585938,46.5904891 8.22265908,45.662764 7.65625,44.953125 C7.08984092,44.243486 6.35091602,43.8886719 5.43945312,43.8886719 Z M17.8804253,43.8691406 C17.0535982,43.8691406 16.3683837,44.1425754 15.8247612,44.6894531 C15.2811387,45.2363309 14.9800349,45.9557247 14.9214409,46.8476562 L20.7124565,46.8476562 C20.6929252,45.9557247 20.4243732,45.2363309 19.9067925,44.6894531 C19.3892117,44.1425754 18.7137628,43.8691406 17.8804253,43.8691406 Z M20.673394,49.9921875 L22.3530815,49.9921875 C22.2098516,50.8971399 21.7280856,51.6409476 20.907769,52.2236328 C20.0874524,52.806318 19.1141549,53.0976562 17.9878471,53.0976562 C16.5099752,53.0976562 15.3364843,52.6175178 14.4673393,51.6572266 C13.5981944,50.6969353 13.1636284,49.4030029 13.1636284,47.7753906 C13.1636284,46.1412679 13.5965668,44.8326872 14.4624565,43.8496094 C15.3283463,42.8665315 16.4774233,42.375 17.9097221,42.375 C19.3159792,42.375 20.4292493,42.837235 21.2495659,43.7617188 C22.0698825,44.6862025 22.4800346,45.9459556 22.4800346,47.5410156 L22.4800346,48.2050781 L14.9214409,48.2050781 L14.9214409,48.3027344 C14.9214409,49.3053436 15.2046412,50.1061168 15.7710503,50.7050781 C16.3374594,51.3040395 17.089405,51.6035156 18.0269096,51.6035156 C18.684465,51.6035156 19.2524932,51.4586603 19.7310112,51.1689453 C20.2095292,50.8792303 20.5236537,50.4869816 20.673394,49.9921875 Z M39.8033852,42.4726562 L38.0358071,42.4726562 L35.0768227,51.1640625 L35.0377602,51.1640625 L32.0885414,42.4726562 L30.3111977,42.4726562 L34.1979164,53 L35.9166664,53 L36.3072914,51.9355469 C36.5677094,51.2259079 36.8915994,50.348638 37.2789711,49.3037109 L38.4410805,46.1689453 C38.8284522,45.1240182 39.1523422,44.2467483 39.4127602,43.5371094 L39.8033852,42.4726562 Z M45.5256073,51.6230469 C46.3849866,51.6230469 47.0962426,51.3740259 47.6593964,50.8759766 C48.2225503,50.3779272 48.504123,49.7513059 48.504123,48.9960938 L48.504123,48.1464844 L45.7502167,48.3222656 C44.1486462,48.4199224 43.347873,48.9830678 43.347873,50.0117188 C43.347873,50.5000024 43.5448111,50.8906235 43.9386933,51.1835938 C44.3325755,51.476564 44.8615415,51.6230469 45.5256073,51.6230469 Z M45.1642792,53.0976562 C44.0965656,53.0976562 43.2371991,52.814456 42.5861542,52.2480469 C41.9351093,51.6816378 41.6095917,50.9329474 41.6095917,50.0019531 C41.6095917,48.1464751 42.9246827,47.1373706 45.5549042,46.9746094 L48.504123,46.7988281 L48.504123,45.9199219 C48.504123,45.2623665 48.2957917,44.7594418 47.879123,44.4111328 C47.4624542,44.0628238 46.8667571,43.8886719 46.0920136,43.8886719 C45.4800314,43.8886719 44.964086,44.0335272 44.544162,44.3232422 C44.1242381,44.6129572 43.8621964,45.008461 43.7580292,45.5097656 L42.1271698,45.5097656 C42.1532116,44.6178341 42.5487155,43.8723988 43.3136933,43.2734375 C44.0786711,42.6744762 45.0112789,42.375 46.1115448,42.375 C47.3550406,42.375 48.3478693,42.6826141 49.0900605,43.2978516 C49.8322517,43.913089 50.2033417,44.7382761 50.2033417,45.7734375 L50.2033417,53 L48.5920136,53 L48.5920136,51.1738281 L48.5529511,51.1738281 C48.2534704,51.7597686 47.7977458,52.2268863 47.1857636,52.5751953 C46.5737814,52.9235043 45.89996,53.0976562 45.1642792,53.0976562 Z M53.6404076,53 L55.3396264,53 L55.3396264,38.2929688 L53.6404076,38.2929688 L53.6404076,53 Z M63.1614579,53.0976562 C61.6835859,53.0976562 60.5052123,52.6110075 59.6263016,51.6376953 C58.747391,50.6643832 58.3079423,49.3639404 58.3079423,47.7363281 C58.3079423,46.1022054 58.747391,44.8001351 59.6263016,43.8300781 C60.5052123,42.8600212 61.6835859,42.375 63.1614579,42.375 C64.6393299,42.375 65.8177035,42.8600212 66.6966141,43.8300781 C67.5755248,44.8001351 68.0149735,46.1022054 68.0149735,47.7363281 C68.0149735,49.3639404 67.5755248,50.6643832 66.6966141,51.6376953 C65.8177035,52.6110075 64.6393299,53.0976562 63.1614579,53.0976562 Z M63.1614579,51.5839844 C64.1445357,51.5839844 64.9111296,51.2438185 65.4612626,50.5634766 C66.0113955,49.8831346 66.2864579,48.9407612 66.2864579,47.7363281 C66.2864579,46.5253846 66.0113955,45.5813836 65.4612626,44.9042969 C64.9111296,44.2272102 64.1445357,43.8886719 63.1614579,43.8886719 C62.1783801,43.8886719 61.4117862,44.2288377 60.8616532,44.9091797 C60.3115202,45.5895216 60.0364579,46.531895 60.0364579,47.7363281 C60.0364579,48.9407612 60.3131478,49.8831346 60.866536,50.5634766 C61.4199242,51.2438185 62.1848905,51.5839844 63.1614579,51.5839844 Z M70.8856332,53 L72.5848519,53 L72.5848519,46.4863281 C72.5848519,45.7441369 72.7915556,45.1451846 73.2049691,44.6894531 C73.6183826,44.2337217 74.1668798,44.0058594 74.8504769,44.0058594 C75.0588113,44.0058594 75.2492391,44.0156249 75.421766,44.0351562 C75.5942929,44.0546876 75.7131068,44.0774738 75.7782113,44.1035156 L75.7782113,42.4335938 C75.7065964,42.4205729 75.6089411,42.4075521 75.4852425,42.3945312 C75.361544,42.3815104 75.2248266,42.375 75.0750863,42.375 C74.4631041,42.375 73.9243725,42.5377588 73.4588754,42.8632812 C72.9933782,43.1888037 72.682509,43.6282524 72.5262582,44.1816406 L72.4871957,44.1816406 L72.4871957,42.4726562 L70.8856332,42.4726562 L70.8856332,53 Z M88.3749993,43.8691406 C87.5481723,43.8691406 86.8629578,44.1425754 86.3193353,44.6894531 C85.7757128,45.2363309 85.474609,45.9557247 85.416015,46.8476562 L91.2070306,46.8476562 C91.1874992,45.9557247 90.9189472,45.2363309 90.4013665,44.6894531 C89.8837858,44.1425754 89.2083368,43.8691406 88.3749993,43.8691406 Z M91.1679681,49.9921875 L92.8476556,49.9921875 C92.7044257,50.8971399 92.2226597,51.6409476 91.4023431,52.2236328 C90.5820265,52.806318 89.6087289,53.0976562 88.4824212,53.0976562 C87.0045492,53.0976562 85.8310584,52.6175178 84.9619134,51.6572266 C84.0927684,50.6969353 83.6582025,49.4030029 83.6582025,47.7753906 C83.6582025,46.1412679 84.0911408,44.8326872 84.9570306,43.8496094 C85.8229203,42.8665315 86.9719974,42.375 88.4042962,42.375 C89.8105533,42.375 90.9238234,42.837235 91.74414,43.7617188 C92.5644566,44.6862025 92.9746087,45.9459556 92.9746087,47.5410156 L92.9746087,48.2050781 L85.416015,48.2050781 L85.416015,48.3027344 C85.416015,49.3053436 85.6992153,50.1061168 86.2656243,50.7050781 C86.8320334,51.3040395 87.583979,51.6035156 88.5214837,51.6035156 C89.1790391,51.6035156 89.7470673,51.4586603 90.2255853,51.1689453 C90.7041033,50.8792303 91.0182278,50.4869816 91.1679681,49.9921875 Z M95.8452684,53 L97.5444871,53 L97.5444871,46.8867188 C97.5444871,45.9817663 97.7902529,45.2558621 98.2817918,44.7089844 C98.7733307,44.1621066 99.4520349,43.8886719 100.317925,43.8886719 C101.151262,43.8886719 101.769746,44.1165342 102.173393,44.5722656 C102.577041,45.0279971 102.778862,45.6855426 102.778862,46.5449219 L102.778862,53 L104.478081,53 L104.478081,46.2519531 C104.478081,45.0540305 104.159074,44.1084019 103.52105,43.4150391 C102.883026,42.7216762 101.984597,42.375 100.825737,42.375 C100.011931,42.375 99.3348544,42.5263657 98.7944871,42.8291016 C98.2541198,43.1318375 97.8179263,43.5826793 97.4858934,44.1816406 L97.4468309,44.1816406 L97.4468309,42.4726562 L95.8452684,42.4726562 L95.8452684,53 Z M122.270181,42.4726562 L120.570963,42.4726562 L120.570963,48.5859375 C120.570963,49.4908899 120.325197,50.2167941 119.833658,50.7636719 C119.342119,51.3105496 118.663415,51.5839844 117.797525,51.5839844 C116.970698,51.5839844 116.353842,51.3577497 115.946939,50.9052734 C115.540036,50.4527972 115.336588,49.7936241 115.336588,48.9277344 L115.336588,42.4726562 L113.637369,42.4726562 L113.637369,49.2207031 C113.637369,50.4186258 113.956376,51.3642543 114.5944,52.0576172 C115.232424,52.75098 116.127598,53.0976562 117.279947,53.0976562 C118.087243,53.0976562 118.765947,52.9430354 119.31608,52.6337891 C119.866213,52.3245427 120.304034,51.8671905 120.629556,51.2617188 L120.668619,51.2617188 L120.668619,53 L122.270181,53 L122.270181,42.4726562 Z M125.658419,53 L127.357638,53 L127.357638,46.8867188 C127.357638,45.9817663 127.603404,45.2558621 128.094943,44.7089844 C128.586482,44.1621066 129.265186,43.8886719 130.131075,43.8886719 C130.964413,43.8886719 131.582896,44.1165342 131.986544,44.5722656 C132.390192,45.0279971 132.592013,45.6855426 132.592013,46.5449219 L132.592013,53 L134.291232,53 L134.291232,46.2519531 C134.291232,45.0540305 133.972224,44.1084019 133.3342,43.4150391 C132.696176,42.7216762 131.797748,42.375 130.638888,42.375 C129.825082,42.375 129.148005,42.5263657 128.607638,42.8291016 C128.067271,43.1318375 127.631077,43.5826793 127.299044,44.1816406 L127.259982,44.1816406 L127.259982,42.4726562 L125.658419,42.4726562 L125.658419,53 Z M147.698567,43.8691406 C146.87174,43.8691406 146.186525,44.1425754 145.642903,44.6894531 C145.09928,45.2363309 144.798176,45.9557247 144.739582,46.8476562 L150.530598,46.8476562 C150.511067,45.9557247 150.242515,45.2363309 149.724934,44.6894531 C149.207353,44.1425754 148.531904,43.8691406 147.698567,43.8691406 Z M150.491535,49.9921875 L152.171223,49.9921875 C152.027993,50.8971399 151.546227,51.6409476 150.72591,52.2236328 C149.905594,52.806318 148.932296,53.0976562 147.805988,53.0976562 C146.328117,53.0976562 145.154626,52.6175178 144.285481,51.6572266 C143.416336,50.6969353 142.98177,49.4030029 142.98177,47.7753906 C142.98177,46.1412679 143.414708,44.8326872 144.280598,43.8496094 C145.146488,42.8665315 146.295565,42.375 147.727863,42.375 C149.134121,42.375 150.247391,42.837235 151.067707,43.7617188 C151.888024,44.6862025 152.298176,45.9459556 152.298176,47.5410156 L152.298176,48.2050781 L144.739582,48.2050781 L144.739582,48.3027344 C144.739582,49.3053436 145.022783,50.1061168 145.589192,50.7050781 C146.155601,51.3040395 146.907546,51.6035156 147.845051,51.6035156 C148.502606,51.6035156 149.070635,51.4586603 149.549153,51.1689453 C150.027671,50.8792303 150.341795,50.4869816 150.491535,49.9921875 Z M155.168836,53 L156.868054,53 L156.868054,46.4667969 C156.868054,45.7311161 157.099172,45.1175155 157.561414,44.6259766 C158.023656,44.1344376 158.606332,43.8886719 159.309461,43.8886719 C159.967016,43.8886719 160.495982,44.0807272 160.896375,44.4648438 C161.296767,44.8489603 161.496961,45.3600229 161.496961,45.9980469 L161.496961,53 L163.196179,53 L163.196179,46.3789062 C163.196179,45.6562464 163.422414,45.0605492 163.87489,44.5917969 C164.327367,44.1230445 164.90516,43.8886719 165.608289,43.8886719 C166.311417,43.8886719 166.856659,44.0921204 167.244031,44.4990234 C167.631403,44.9059265 167.825086,45.4739547 167.825086,46.203125 L167.825086,53 L169.524304,53 L169.524304,45.8125 C169.524304,44.7643177 169.213435,43.9293651 168.591687,43.3076172 C167.969939,42.6858693 167.138242,42.375 166.09657,42.375 C165.360889,42.375 164.700089,42.5507795 164.114148,42.9023438 C163.528208,43.253908 163.085504,43.7421844 162.786023,44.3671875 L162.746961,44.3671875 C162.519095,43.7291635 162.149632,43.2376319 161.638562,42.8925781 C161.127492,42.5475243 160.513891,42.375 159.797742,42.375 C159.114145,42.375 158.507054,42.5361312 157.976453,42.8583984 C157.445851,43.1806657 157.056858,43.621742 156.809461,44.1816406 L156.770398,44.1816406 L156.770398,42.4726562 L155.168836,42.4726562 L155.168836,53 Z M177.922308,42.375 C179.26346,42.375 180.350689,42.8665315 181.184027,43.8496094 C182.017364,44.8326872 182.434027,46.1282472 182.434027,47.7363281 C182.434027,49.3444091 182.020619,50.639969 181.193792,51.6230469 C180.366965,52.6061247 179.289502,53.0976562 177.96137,53.0976562 C177.212669,53.0976562 176.548613,52.9397802 175.969183,52.6240234 C175.389753,52.3082667 174.934028,51.8639352 174.601995,51.2910156 L174.562933,51.2910156 L174.562933,56.515625 L172.863714,56.515625 L172.863714,42.4726562 L174.475042,42.4726562 L174.475042,44.1816406 L174.514105,44.1816406 C174.820096,43.6347629 175.282331,43.1969417 175.900823,42.8681641 C176.519316,42.5393864 177.193137,42.375 177.922308,42.375 Z M177.609808,51.5839844 C178.540802,51.5839844 179.287865,51.234053 179.851019,50.5341797 C180.414173,49.8343064 180.695745,48.9016985 180.695745,47.7363281 C180.695745,46.5709577 180.414173,45.6383499 179.851019,44.9384766 C179.287865,44.2386033 178.540802,43.8886719 177.609808,43.8886719 C176.704855,43.8886719 175.969186,44.243486 175.402777,44.953125 C174.836367,45.662764 174.553167,46.5904891 174.553167,47.7363281 C174.553167,48.8821672 174.836367,49.8098923 175.402777,50.5195312 C175.969186,51.2291702 176.704855,51.5839844 177.609808,51.5839844 Z M185.304686,53 L187.003905,53 L187.003905,46.4863281 C187.003905,45.7441369 187.210609,45.1451846 187.624022,44.6894531 C188.037436,44.2337217 188.585933,44.0058594 189.26953,44.0058594 C189.477864,44.0058594 189.668292,44.0156249 189.840819,44.0351562 C190.013346,44.0546876 190.13216,44.0774738 190.197264,44.1035156 L190.197264,42.4335938 C190.125649,42.4205729 190.027994,42.4075521 189.904296,42.3945312 C189.780597,42.3815104 189.64388,42.375 189.494139,42.375 C188.882157,42.375 188.343425,42.5377588 187.877928,42.8632812 C187.412431,43.1888037 187.101562,43.6282524 186.945311,44.1816406 L186.906249,44.1816406 L186.906249,42.4726562 L185.304686,42.4726562 L185.304686,53 Z M196.437065,43.8691406 C195.610238,43.8691406 194.925023,44.1425754 194.381401,44.6894531 C193.837778,45.2363309 193.536674,45.9557247 193.47808,46.8476562 L199.269096,46.8476562 C199.249564,45.9557247 198.981012,45.2363309 198.463432,44.6894531 C197.945851,44.1425754 197.270402,43.8691406 196.437065,43.8691406 Z M199.230033,49.9921875 L200.909721,49.9921875 C200.766491,50.8971399 200.284725,51.6409476 199.464408,52.2236328 C198.644092,52.806318 197.670794,53.0976562 196.544486,53.0976562 C195.066614,53.0976562 193.893124,52.6175178 193.023979,51.6572266 C192.154834,50.6969353 191.720268,49.4030029 191.720268,47.7753906 C191.720268,46.1412679 192.153206,44.8326872 193.019096,43.8496094 C193.884986,42.8665315 195.034063,42.375 196.466361,42.375 C197.872618,42.375 198.985889,42.837235 199.806205,43.7617188 C200.626522,44.6862025 201.036674,45.9459556 201.036674,47.5410156 L201.036674,48.2050781 L193.47808,48.2050781 L193.47808,48.3027344 C193.47808,49.3053436 193.761281,50.1061168 194.32769,50.7050781 C194.894099,51.3040395 195.646044,51.6035156 196.583549,51.6035156 C197.241104,51.6035156 197.809133,51.4586603 198.287651,51.1689453 C198.766169,50.8792303 199.080293,50.4869816 199.230033,49.9921875 Z M203.907334,53 L205.606552,53 L205.606552,46.8867188 C205.606552,45.9817663 205.852318,45.2558621 206.343857,44.7089844 C206.835396,44.1621066 207.5141,43.8886719 208.37999,43.8886719 C209.213327,43.8886719 209.831811,44.1165342 210.235459,44.5722656 C210.639106,45.0279971 210.840927,45.6855426 210.840927,46.5449219 L210.840927,53 L212.540146,53 L212.540146,46.2519531 C212.540146,45.0540305 212.221139,44.1084019 211.583115,43.4150391 C210.945091,42.7216762 210.046662,42.375 208.887802,42.375 C208.073996,42.375 207.39692,42.5263657 206.856552,42.8291016 C206.316185,43.1318375 205.879992,43.5826793 205.547959,44.1816406 L205.508896,44.1816406 L205.508896,42.4726562 L203.907334,42.4726562 L203.907334,53 Z M219.873696,53.0976562 C218.552075,53.0976562 217.469729,52.6061247 216.626626,51.6230469 C215.783523,50.639969 215.361978,49.3444091 215.361978,47.7363281 C215.361978,46.1282472 215.780268,44.8326872 216.61686,43.8496094 C217.453453,42.8665315 218.526034,42.375 219.834634,42.375 C220.589846,42.375 221.258785,42.5312484 221.84147,42.84375 C222.424155,43.1562516 222.874997,43.6022106 223.194009,44.1816406 L223.233071,44.1816406 L223.233071,38.2929688 L224.93229,38.2929688 L224.93229,53 L223.311196,53 L223.311196,51.2226562 L223.2819,51.2226562 C222.943356,51.828128 222.481121,52.2919906 221.895181,52.6142578 C221.30924,52.936525 220.635419,53.0976562 219.873696,53.0976562 Z M220.176431,43.8886719 C219.251947,43.8886719 218.508139,44.2386033 217.944985,44.9384766 C217.381832,45.6383499 217.100259,46.5709577 217.100259,47.7363281 C217.100259,48.9016985 217.381832,49.8343064 217.944985,50.5341797 C218.508139,51.234053 219.251947,51.5839844 220.176431,51.5839844 C221.087894,51.5839844 221.826819,51.2291702 222.393228,50.5195312 C222.959637,49.8098923 223.242837,48.8821672 223.242837,47.7363281 C223.242837,46.5904891 222.959637,45.662764 222.393228,44.953125 C221.826819,44.243486 221.087894,43.8886719 220.176431,43.8886719 Z M228.51584,53 L230.215059,53 L230.215059,42.4726562 L228.51584,42.4726562 L228.51584,53 Z M229.36545,40.7734375 C229.66493,40.7734375 229.918834,40.6676443 230.127169,40.4560547 C230.335503,40.2444651 230.439669,39.992189 230.439669,39.6992188 C230.439669,39.3997381 230.335503,39.1458344 230.127169,38.9375 C229.918834,38.7291656 229.66493,38.625 229.36545,38.625 C229.07248,38.625 228.820203,38.7291656 228.608614,38.9375 C228.397024,39.1458344 228.291231,39.3997381 228.291231,39.6992188 C228.291231,39.992189 228.397024,40.2444651 228.608614,40.4560547 C228.820203,40.6676443 229.07248,40.7734375 229.36545,40.7734375 Z M233.700953,53 L235.400172,53 L235.400172,46.4667969 C235.400172,45.7311161 235.631289,45.1175155 236.093531,44.6259766 C236.555773,44.1344376 237.13845,43.8886719 237.841578,43.8886719 C238.499134,43.8886719 239.0281,44.0807272 239.428492,44.4648438 C239.828885,44.8489603 240.029078,45.3600229 240.029078,45.9980469 L240.029078,53 L241.728297,53 L241.728297,46.3789062 C241.728297,45.6562464 241.954532,45.0605492 242.407008,44.5917969 C242.859484,44.1230445 243.437278,43.8886719 244.140406,43.8886719 C244.843535,43.8886719 245.388777,44.0921204 245.776148,44.4990234 C246.16352,44.9059265 246.357203,45.4739547 246.357203,46.203125 L246.357203,53 L248.056422,53 L248.056422,45.8125 C248.056422,44.7643177 247.745553,43.9293651 247.123805,43.3076172 C246.502057,42.6858693 245.670359,42.375 244.628688,42.375 C243.893007,42.375 243.232206,42.5507795 242.646266,42.9023438 C242.060325,43.253908 241.617621,43.7421844 241.318141,44.3671875 L241.279078,44.3671875 C241.051212,43.7291635 240.68175,43.2376319 240.17068,42.8925781 C239.659609,42.5475243 239.046009,42.375 238.329859,42.375 C237.646262,42.375 237.039172,42.5361312 236.50857,42.8583984 C235.977969,43.1806657 235.588975,43.621742 235.341578,44.1816406 L235.302516,44.1816406 L235.302516,42.4726562 L233.700953,42.4726562 L233.700953,53 Z M251.493488,53 L253.192707,53 L253.192707,42.4726562 L251.493488,42.4726562 L251.493488,53 Z M252.343097,40.7734375 C252.642578,40.7734375 252.896482,40.6676443 253.104816,40.4560547 C253.31315,40.2444651 253.417316,39.992189 253.417316,39.6992188 C253.417316,39.3997381 253.31315,39.1458344 253.104816,38.9375 C252.896482,38.7291656 252.642578,38.625 252.343097,38.625 C252.050127,38.625 251.797851,38.7291656 251.586261,38.9375 C251.374672,39.1458344 251.268878,39.3997381 251.268878,39.6992188 C251.268878,39.992189 251.374672,40.2444651 251.586261,40.4560547 C251.797851,40.6676443 252.050127,40.7734375 252.343097,40.7734375 Z M260.877819,43.8691406 C260.050992,43.8691406 259.365778,44.1425754 258.822155,44.6894531 C258.278533,45.2363309 257.977429,45.9557247 257.918835,46.8476562 L263.709851,46.8476562 C263.690319,45.9557247 263.421767,45.2363309 262.904187,44.6894531 C262.386606,44.1425754 261.711157,43.8691406 260.877819,43.8691406 Z M263.670788,49.9921875 L265.350476,49.9921875 C265.207246,50.8971399 264.72548,51.6409476 263.905163,52.2236328 C263.084847,52.806318 262.111549,53.0976562 260.985241,53.0976562 C259.507369,53.0976562 258.333878,52.6175178 257.464733,51.6572266 C256.595588,50.6969353 256.161022,49.4030029 256.161022,47.7753906 C256.161022,46.1412679 256.593961,44.8326872 257.459851,43.8496094 C258.32574,42.8665315 259.474817,42.375 260.907116,42.375 C262.313373,42.375 263.426643,42.837235 264.24696,43.7617188 C265.067277,44.6862025 265.477429,45.9459556 265.477429,47.5410156 L265.477429,48.2050781 L257.918835,48.2050781 L257.918835,48.3027344 C257.918835,49.3053436 258.202035,50.1061168 258.768444,50.7050781 C259.334853,51.3040395 260.086799,51.6035156 261.024304,51.6035156 C261.681859,51.6035156 262.249887,51.4586603 262.728405,51.1689453 C263.206923,50.8792303 263.521048,50.4869816 263.670788,49.9921875 Z M268.348088,53 L270.047307,53 L270.047307,46.8867188 C270.047307,45.9817663 270.293073,45.2558621 270.784612,44.7089844 C271.276151,44.1621066 271.954855,43.8886719 272.820745,43.8886719 C273.654082,43.8886719 274.272566,44.1165342 274.676213,44.5722656 C275.079861,45.0279971 275.281682,45.6855426 275.281682,46.5449219 L275.281682,53 L276.980901,53 L276.980901,46.2519531 C276.980901,45.0540305 276.661894,44.1084019 276.02387,43.4150391 C275.385846,42.7216762 274.487417,42.375 273.328557,42.375 C272.514751,42.375 271.837674,42.5263657 271.297307,42.8291016 C270.75694,43.1318375 270.320746,43.5826793 269.988713,44.1816406 L269.949651,44.1816406 L269.949651,42.4726562 L268.348088,42.4726562 L268.348088,53 Z M280.876951,40.0996094 L280.876951,42.4726562 L279.412107,42.4726562 L279.412107,43.8789062 L280.876951,43.8789062 L280.876951,50.265625 C280.876951,51.2747446 281.0804,51.9957661 281.487303,52.4287109 C281.894206,52.8616558 282.57291,53.078125 283.523436,53.078125 C283.725259,53.078125 283.931963,53.0699871 284.143553,53.0537109 C284.355142,53.0374348 284.513018,53.0162762 284.617186,52.9902344 L284.617186,51.5546875 C284.558591,51.5611979 284.447916,51.5709635 284.285154,51.5839844 C284.122393,51.5970053 283.988931,51.6035156 283.884764,51.6035156 C283.435543,51.6035156 283.105142,51.4895845 282.893553,51.2617188 C282.681963,51.033853 282.57617,50.6790389 282.57617,50.1972656 L282.57617,43.8789062 L284.626951,43.8789062 L284.626951,42.4726562 L282.57617,42.4726562 L282.57617,40.0996094 L280.876951,40.0996094 Z M291.638236,53.0976562 C290.160364,53.0976562 288.98199,52.6110075 288.10308,51.6376953 C287.224169,50.6643832 286.78472,49.3639404 286.78472,47.7363281 C286.78472,46.1022054 287.224169,44.8001351 288.10308,43.8300781 C288.98199,42.8600212 290.160364,42.375 291.638236,42.375 C293.116108,42.375 294.294481,42.8600212 295.173392,43.8300781 C296.052303,44.8001351 296.491751,46.1022054 296.491751,47.7363281 C296.491751,49.3639404 296.052303,50.6643832 295.173392,51.6376953 C294.294481,52.6110075 293.116108,53.0976562 291.638236,53.0976562 Z M291.638236,51.5839844 C292.621314,51.5839844 293.387908,51.2438185 293.93804,50.5634766 C294.488173,49.8831346 294.763236,48.9407612 294.763236,47.7363281 C294.763236,46.5253846 294.488173,45.5813836 293.93804,44.9042969 C293.387908,44.2272102 292.621314,43.8886719 291.638236,43.8886719 C290.655158,43.8886719 289.888564,44.2288377 289.338431,44.9091797 C288.788298,45.5895216 288.513236,46.531895 288.513236,47.7363281 C288.513236,48.9407612 288.789926,49.8831346 289.343314,50.5634766 C289.896702,51.2438185 290.661668,51.5839844 291.638236,51.5839844 Z" id="de-valor-en-un-empre" fill="#FFFFFF"></path>
                        </g>
                    </g>
                    <path d="M169.963292,95 C169.963292,112.147607 169.963292,127.174558 169.963292,129.894587 C169.963292,132.614616 170.532628,146.950649 167.186946,146.950649 C163.575555,146.950649 157.738008,146.950649 160.883677,146.950649 C161.198435,146.950649 128.953901,146.950649 123.053114,146.950649 C117.606292,146.950649 117.751688,155.936699 117.606292,172.573302 C117.601947,173.070446 117.606292,204.25741 117.606292,204.25741" id="Line-Copy-4" stroke="#D6D6D6" stroke-width="5" stroke-linecap="square" stroke-dasharray="1,1,12"></path>
                    <path d="M154,326 C154,326 154,356.235675 154,374.950355 C154,377.875018 158.600355,383.793761 166.006342,383.793761 C166.535181,383.793761 183.021553,383.926856 198.433869,383.979207 C208.345545,384.012874 206.322484,405.698379 206.212307,407.557609" id="Line-Copy-5" stroke="#D6D6D6" stroke-width="5" stroke-linecap="square" stroke-dasharray="1,1,12" transform="translate(180.227052, 366.778805) scale(-1, 1) translate(-180.227052, -366.778805) "></path>
                    <path d="M170.5,534.5 L170.5,634.5" id="Line-Copy-6" stroke="#D6D6D6" stroke-width="5" stroke-linecap="square" stroke-dasharray="1,1,12"></path>
                </g>
            </g>
        </g>
    </g>
</svg>