<?xml version="1.0" encoding="UTF-8"?>
<svg width="833px" height="916px" viewBox="0 0 833 916" version="1.1" xmlns="http://www.w3.org/2000/svg" xmlns:xlink="http://www.w3.org/1999/xlink">
    <!-- Generator: Sketch 46 (44423) - http://www.bohemiancoding.com/sketch -->
    <title>Features Copy</title>
    <desc>Created with Sketch.</desc>
    <defs></defs>
    <g id="Bouse_desktop" stroke="none" stroke-width="1" fill="none" fill-rule="evenodd">
        <g id="Bous_white" transform="translate(-198.000000, -851.000000)">
            <g id="exp" transform="translate(0.000000, 710.918802)">
                <g id="Features-Copy" transform="translate(189.000000, 141.081198)">
                    <g id="benefits1" transform="translate(0.000000, 277.000000)">
                        <g id="Features">
                            <path d="M102.417969,35.6757812 L99.8007812,35.6757812 L99.8007812,33.0585938 C97.1705598,32.8632803 95.0546955,32.062507 93.453125,30.65625 C91.8515545,29.249993 91.0442709,27.4596463 91.03125,25.2851562 L94.3710938,25.2851562 C94.4752609,26.5872461 95.0025994,27.6549438 95.953125,28.4882812 C96.9036506,29.3216187 98.1861898,29.8359365 99.8007812,30.03125 L99.8007812,19.875 L98.2382812,19.4453125 C96.1549375,18.8984348 94.5468807,18.0000062 93.4140625,16.75 C92.2812443,15.4999938 91.7148438,13.9700611 91.7148438,12.1601562 C91.7148438,10.0247289 92.4407479,8.27344434 93.8925781,6.90625 C95.3444083,5.53905566 97.3137896,4.73177207 99.8007812,4.484375 L99.8007812,1.75 L102.417969,1.75 L102.417969,4.46484375 C104.865898,4.67317812 106.832024,5.47395137 108.316406,6.8671875 C109.800789,8.26042363 110.575521,10.0117082 110.640625,12.1210938 L107.320312,12.1210938 C107.28125,10.9101502 106.81576,9.87825947 105.923828,9.02539062 C105.031897,8.17252178 103.863288,7.66145918 102.417969,7.4921875 L102.417969,17.0429688 L104.078125,17.453125 C106.460949,18.091149 108.231765,19.0188741 109.390625,20.2363281 C110.549485,21.4537821 111.128906,23.0520734 111.128906,25.03125 C111.128906,27.3489699 110.36394,29.2076753 108.833984,30.6074219 C107.304029,32.0071685 105.165378,32.8177072 102.417969,33.0390625 L102.417969,35.6757812 Z M107.75,25.3046875 C107.75,24.0156186 107.323572,22.9739623 106.470703,22.1796875 C105.617834,21.3854127 104.266936,20.7929707 102.417969,20.4023438 L102.417969,30.0898438 C104.123706,29.9986975 105.438797,29.5332073 106.363281,28.6933594 C107.287765,27.8535114 107.75,26.7239654 107.75,25.3046875 Z M95.0742188,11.9648438 C95.0742188,13.1237037 95.4778605,14.0839806 96.2851562,14.8457031 C97.092452,15.6074257 98.2643152,16.15104 99.8007812,16.4765625 L99.8007812,7.4921875 C98.4335869,7.57031289 97.3040409,8.0260375 96.4121094,8.859375 C95.5201778,9.6927125 95.0742188,10.7278584 95.0742188,11.9648438 Z M138.353733,33.46875 C135.371947,33.46875 132.924055,32.710294 131.009983,31.1933594 C129.095911,29.6764247 128.138889,27.7395951 128.138889,25.3828125 C128.138889,23.6249912 128.695524,22.0820379 129.808811,20.7539062 C130.922098,19.4257746 132.383671,18.5533875 134.193576,18.1367188 L134.193576,18.0585938 C132.670131,17.5898414 131.465716,16.7923233 130.580295,15.6660156 C129.694874,14.5397079 129.25217,13.2343824 129.25217,11.75 C129.25217,9.61457266 130.114792,7.84701221 131.840061,6.44726562 C133.56533,5.04751904 135.736532,4.34765625 138.353733,4.34765625 C140.996975,4.34765625 143.171432,5.04751904 144.87717,6.44726562 C146.582908,7.84701221 147.435764,9.62108301 147.435764,11.7695312 C147.435764,13.2278719 146.99957,14.5169215 146.12717,15.6367188 C145.25477,16.756516 144.050355,17.5637996 142.513889,18.0585938 L142.513889,18.1367188 C144.336815,18.5664084 145.804899,19.4453059 146.918186,20.7734375 C148.031473,22.1015691 148.588108,23.6380121 148.588108,25.3828125 C148.588108,27.7395951 147.631086,29.6764247 145.717014,31.1933594 C143.802942,32.710294 141.348539,33.46875 138.353733,33.46875 Z M138.353733,30.4023438 C140.293846,30.4023438 141.885627,29.907557 143.129123,28.9179688 C144.372619,27.9283805 144.994358,26.6653723 144.994358,25.1289062 C144.994358,23.5794193 144.372619,22.3099008 143.129123,21.3203125 C141.885627,20.3307242 140.293846,19.8359375 138.353733,19.8359375 C136.42664,19.8359375 134.838114,20.3307242 133.588108,21.3203125 C132.338101,22.3099008 131.713108,23.5794193 131.713108,25.1289062 C131.713108,26.6653723 132.338101,27.9283805 133.588108,28.9179688 C134.838114,29.907557 136.42664,30.4023438 138.353733,30.4023438 Z M138.353733,16.75 C139.994366,16.75 141.338753,16.3138064 142.386936,15.4414062 C143.435118,14.5690061 143.959201,13.4492256 143.959201,12.0820312 C143.959201,10.6887951 143.438373,9.55599395 142.396701,8.68359375 C141.355029,7.81119355 140.007387,7.375 138.353733,7.375 C136.700078,7.375 135.352436,7.81444873 134.310764,8.69335938 C133.269092,9.57227002 132.748264,10.701816 132.748264,12.0820312 C132.748264,13.4492256 133.269092,14.5690061 134.310764,15.4414062 C135.352436,16.3138064 136.700078,16.75 138.353733,16.75 Z M156.08724,38.0195312 L159.016927,29.0546875 L155.403646,29.0546875 L153.450521,38.0195312 L156.08724,38.0195312 Z M175.695746,33.46875 C172.401459,33.46875 169.846146,32.153659 168.029731,29.5234375 C166.213315,26.893216 165.305121,23.3515848 165.305121,18.8984375 C165.305121,14.4843529 166.219826,10.9557424 168.049262,8.3125 C169.878698,5.66925762 172.427501,4.34765625 175.695746,4.34765625 C178.963992,4.34765625 181.506284,5.66274727 183.3227,8.29296875 C185.139115,10.9231902 186.047309,14.4518008 186.047309,18.8789062 C186.047309,23.3320535 185.14237,26.8769399 183.332465,29.5136719 C181.52256,32.1504038 178.977013,33.46875 175.695746,33.46875 Z M175.695746,30.4023438 C177.896278,30.4023438 179.582459,29.3639427 180.75434,27.2871094 C181.926221,25.2102761 182.512153,22.4140801 182.512153,18.8984375 C182.512153,15.4348785 181.919711,12.6582136 180.734809,10.5683594 C179.549907,8.47850518 177.870236,7.43359375 175.695746,7.43359375 C173.521256,7.43359375 171.835075,8.48176035 170.637153,10.578125 C169.43923,12.6744896 168.840278,15.4413891 168.840278,18.8789062 C168.840278,22.3945488 169.43272,25.194 170.617621,27.2773438 C171.802523,29.3606875 173.495215,30.4023438 175.695746,30.4023438 Z M201.769097,33.46875 C198.47481,33.46875 195.919497,32.153659 194.103081,29.5234375 C192.286666,26.893216 191.378472,23.3515848 191.378472,18.8984375 C191.378472,14.4843529 192.293176,10.9557424 194.122613,8.3125 C195.952049,5.66925762 198.500852,4.34765625 201.769097,4.34765625 C205.037343,4.34765625 207.579635,5.66274727 209.39605,8.29296875 C211.212466,10.9231902 212.12066,14.4518008 212.12066,18.8789062 C212.12066,23.3320535 211.215721,26.8769399 209.405816,29.5136719 C207.595911,32.1504038 205.050363,33.46875 201.769097,33.46875 Z M201.769097,30.4023438 C203.969629,30.4023438 205.65581,29.3639427 206.827691,27.2871094 C207.999572,25.2102761 208.585503,22.4140801 208.585503,18.8984375 C208.585503,15.4348785 207.993061,12.6582136 206.80816,10.5683594 C205.623258,8.47850518 203.943587,7.43359375 201.769097,7.43359375 C199.594607,7.43359375 197.908426,8.48176035 196.710503,10.578125 C195.512581,12.6744896 194.913628,15.4413891 194.913628,18.8789062 C194.913628,22.3945488 195.50607,25.194 196.690972,27.2773438 C197.875874,29.3606875 199.568565,30.4023438 201.769097,30.4023438 Z M227.842448,33.46875 C224.54816,33.46875 221.992847,32.153659 220.176432,29.5234375 C218.360017,26.893216 217.451823,23.3515848 217.451823,18.8984375 C217.451823,14.4843529 218.366527,10.9557424 220.195963,8.3125 C222.0254,5.66925762 224.574202,4.34765625 227.842448,4.34765625 C231.110693,4.34765625 233.652986,5.66274727 235.469401,8.29296875 C237.285816,10.9231902 238.19401,14.4518008 238.19401,18.8789062 C238.19401,23.3320535 237.289071,26.8769399 235.479167,29.5136719 C233.669262,32.1504038 231.123714,33.46875 227.842448,33.46875 Z M227.842448,30.4023438 C230.04298,30.4023438 231.729161,29.3639427 232.901042,27.2871094 C234.072922,25.2102761 234.658854,22.4140801 234.658854,18.8984375 C234.658854,15.4348785 234.066412,12.6582136 232.88151,10.5683594 C231.696608,8.47850518 230.016938,7.43359375 227.842448,7.43359375 C225.667958,7.43359375 223.981777,8.48176035 222.783854,10.578125 C221.585931,12.6744896 220.986979,15.4413891 220.986979,18.8789062 C220.986979,22.3945488 221.579421,25.194 222.764323,27.2773438 C223.949225,29.3606875 225.641916,30.4023438 227.842448,30.4023438 Z M255.457899,33 L258.856337,33 L258.856337,19.9335938 C258.856337,18.4622322 259.318572,17.235031 260.243055,16.2519531 C261.167539,15.2688753 262.332892,14.7773438 263.739149,14.7773438 C265.05426,14.7773438 266.112192,15.1614545 266.912977,15.9296875 C267.713762,16.6979205 268.114149,17.7200457 268.114149,18.9960938 L268.114149,33 L271.512587,33 L271.512587,19.7578125 C271.512587,18.3124928 271.965056,17.1210984 272.870008,16.1835938 C273.774961,15.2460891 274.930548,14.7773438 276.336805,14.7773438 C277.743062,14.7773438 278.833546,15.1842407 279.60829,15.9980469 C280.383033,16.811853 280.770399,17.9479094 280.770399,19.40625 L280.770399,33 L284.168837,33 L284.168837,18.625 C284.168837,16.5286354 283.547098,14.8587302 282.303602,13.6152344 C281.060106,12.3717386 279.396712,11.75 277.313368,11.75 C275.842006,11.75 274.520405,12.101559 273.348524,12.8046875 C272.176643,13.507816 271.291235,14.4843688 270.692274,15.734375 L270.614149,15.734375 C270.158418,14.458327 269.419493,13.4752639 268.397352,12.7851562 C267.375212,12.0950486 266.14801,11.75 264.715712,11.75 C263.348517,11.75 262.134337,12.0722624 261.073133,12.7167969 C260.01193,13.3613313 259.233943,14.243484 258.739149,15.3632812 L258.661024,15.3632812 L258.661024,11.9453125 L255.457899,11.9453125 L255.457899,33 Z M290.691406,33 L294.089844,33 L294.089844,11.9453125 L290.691406,11.9453125 L290.691406,33 Z M292.390625,8.546875 C292.989586,8.546875 293.497394,8.33528857 293.914062,7.91210938 C294.330731,7.48893018 294.539062,6.98437793 294.539062,6.3984375 C294.539062,5.79947617 294.330731,5.29166875 293.914062,4.875 C293.497394,4.45833125 292.989586,4.25 292.390625,4.25 C291.804684,4.25 291.300132,4.45833125 290.876953,4.875 C290.453774,5.29166875 290.242187,5.79947617 290.242187,6.3984375 C290.242187,6.98437793 290.453774,7.48893018 290.876953,7.91210938 C291.300132,8.33528857 291.804684,8.546875 292.390625,8.546875 Z M300.905382,33 L304.303819,33 L304.303819,3.5859375 L300.905382,3.5859375 L300.905382,33 Z M311.119357,33 L314.517795,33 L314.517795,3.5859375 L311.119357,3.5859375 L311.119357,33 Z M329.809896,33.1953125 C326.854152,33.1953125 324.497404,32.2220149 322.739583,30.2753906 C320.981762,28.3287663 320.102864,25.7278809 320.102864,22.4726562 C320.102864,19.2044107 320.981762,16.6002701 322.739583,14.6601562 C324.497404,12.7200424 326.854152,11.75 329.809896,11.75 C332.765639,11.75 335.122387,12.7200424 336.880208,14.6601562 C338.638029,16.6002701 339.516927,19.2044107 339.516927,22.4726562 C339.516927,25.7278809 338.638029,28.3287663 336.880208,30.2753906 C335.122387,32.2220149 332.765639,33.1953125 329.809896,33.1953125 Z M329.809896,30.1679688 C331.776051,30.1679688 333.309239,29.487637 334.409505,28.1269531 C335.509771,26.7662692 336.059896,24.8815225 336.059896,22.4726562 C336.059896,20.0507691 335.509771,18.1627672 334.409505,16.8085938 C333.309239,15.4544203 331.776051,14.7773438 329.809896,14.7773438 C327.84374,14.7773438 326.310552,15.4576755 325.210286,16.8183594 C324.11002,18.1790433 323.559896,20.06379 323.559896,22.4726562 C323.559896,24.8815225 324.113275,26.7662692 325.220052,28.1269531 C326.326828,29.487637 327.856761,30.1679688 329.809896,30.1679688 Z M344.906684,33 L348.305121,33 L348.305121,20.7734375 C348.305121,18.9635326 348.796653,17.5117242 349.779731,16.4179688 C350.762808,15.3242133 352.120217,14.7773438 353.851996,14.7773438 C355.518671,14.7773438 356.755638,15.2330684 357.562934,16.1445312 C358.370229,17.0559941 358.773871,18.3710852 358.773871,20.0898438 L358.773871,33 L362.172309,33 L362.172309,19.5039062 C362.172309,17.1080609 361.534294,15.2168038 360.258246,13.8300781 C358.982198,12.4433524 357.185341,11.75 354.867621,11.75 C353.240009,11.75 351.885856,12.0527313 350.805121,12.6582031 C349.724387,13.2636749 348.852,14.1653586 348.187934,15.3632812 L348.109809,15.3632812 L348.109809,11.9453125 L344.906684,11.9453125 L344.906684,33 Z M376.898003,14.7382812 C375.244349,14.7382812 373.87392,15.2851508 372.786675,16.3789062 C371.69943,17.4726617 371.097222,18.9114494 370.980034,20.6953125 L382.562066,20.6953125 C382.523003,18.9114494 381.985899,17.4726617 380.950737,16.3789062 C379.915576,15.2851508 378.564678,14.7382812 376.898003,14.7382812 Z M382.483941,26.984375 L385.843316,26.984375 C385.556856,28.7942799 384.593324,30.2818952 382.952691,31.4472656 C381.312057,32.612636 379.365462,33.1953125 377.112847,33.1953125 C374.157103,33.1953125 371.810121,32.2350356 370.071831,30.3144531 C368.333541,28.3938706 367.464409,25.8060059 367.464409,22.5507812 C367.464409,19.2825357 368.330286,16.6653744 370.062066,14.6992187 C371.793845,12.7330631 374.091999,11.75 376.956597,11.75 C379.769111,11.75 381.995651,12.6744699 383.636284,14.5234375 C385.276918,16.3724051 386.097222,18.8919111 386.097222,22.0820312 L386.097222,23.4101562 L370.980034,23.4101562 L370.980034,23.6054688 C370.980034,25.6106871 371.546435,27.2122336 372.679253,28.4101562 C373.812071,29.6080789 375.315962,30.2070312 377.190972,30.2070312 C378.506083,30.2070312 379.642139,29.9173206 380.599175,29.3378906 C381.556211,28.7584606 382.18446,27.9739633 382.483941,26.984375 Z M391.135416,17.8242188 C391.135416,20.6237119 392.964825,22.4986932 396.623698,23.4492188 L400.315104,24.40625 C401.513026,24.7187516 402.359372,25.0930968 402.854166,25.5292969 C403.34896,25.965497 403.596354,26.5546838 403.596354,27.296875 C403.596354,28.2474006 403.176436,28.9993462 402.336588,29.5527344 C401.49674,30.1061226 400.360684,30.3828125 398.928385,30.3828125 C397.496086,30.3828125 396.356775,30.0996122 395.510416,29.5332031 C394.664058,28.966794 394.14974,28.1497449 393.967448,27.0820312 L390.549479,27.0820312 C390.71875,28.904957 391.552075,30.3795517 393.049479,31.5058594 C394.546882,32.6321671 396.428374,33.1953125 398.69401,33.1953125 C401.128918,33.1953125 403.124341,32.6224016 404.680338,31.4765625 C406.236336,30.3307234 407.014323,28.859384 407.014323,27.0625 C407.014323,25.526034 406.584639,24.3378948 405.72526,23.4980469 C404.865881,22.6581989 403.3685,21.9713568 401.233073,21.4375 L398.029948,20.6367188 C396.819004,20.3372381 395.923831,19.9433618 395.344401,19.4550781 C394.764971,18.9667944 394.47526,18.3645869 394.47526,17.6484375 C394.47526,16.7239537 394.872391,15.9817736 395.666666,15.421875 C396.460941,14.8619764 397.509108,14.5820312 398.811198,14.5820312 C400.100266,14.5820312 401.148433,14.8684867 401.955729,15.4414062 C402.763024,16.0143258 403.218749,16.795568 403.322916,17.7851562 L406.584635,17.7851562 C406.519531,16.0533768 405.761075,14.6178442 404.309244,13.4785156 C402.857414,12.339187 401.063812,11.7695312 398.928385,11.7695312 C396.649728,11.7695312 394.781257,12.3326767 393.322916,13.4589844 C391.864576,14.5852921 391.135416,16.0403557 391.135416,17.8242188 Z" id="$-8,000-millones" fill="#FFFFFF"></path>
                            <path d="M51.8244125,13.3459621 L51.8244125,7.08654267 C51.8244125,3.73539903 49.0967934,1 45.7321048,1 C42.3742626,1 39.6397971,3.72503797 39.6397971,7.08654267 L39.6397971,13.3459621 L34.0865427,13.3459621 C30.735399,13.3459621 28,16.0735812 28,19.4382698 C28,22.796112 30.725038,25.5305775 34.0865427,25.5305775 L39.6397971,25.5305775 L39.6397971,30.9134573 C39.6397971,34.264601 42.3674162,37 45.7321048,37 C49.089947,37 51.8244125,34.274962 51.8244125,30.9134573 L51.8244125,25.5305775 L57.9134573,25.5305775 C61.264601,25.5305775 64,22.8029585 64,19.4382698 C64,16.0804277 61.274962,13.3459621 57.9134573,13.3459621 L51.8244125,13.3459621 Z" id="Combined-Shape-Copy-6" fill="#EA4A73"></path>
                            <path d="M16.6399739,65.3037109 C15.3997333,65.3037109 14.3719115,65.7138631 13.5564778,66.5341797 C12.741044,67.3544963 12.2893884,68.4335871 12.2014973,69.7714844 L20.8880208,69.7714844 C20.8587237,68.4335871 20.4558957,67.3544963 19.6795247,66.5341797 C18.9031536,65.7138631 17.8899801,65.3037109 16.6399739,65.3037109 Z M20.829427,74.4882812 L23.3489583,74.4882812 C23.1341134,75.8457099 22.4114644,76.9614214 21.1809895,77.8354492 C19.9505146,78.709477 18.4905683,79.1464844 16.8011067,79.1464844 C14.5842987,79.1464844 12.8240624,78.4262767 11.520345,76.9858398 C10.2166275,75.545403 9.56477857,73.6045044 9.56477857,71.1630859 C9.56477857,68.7119018 10.2141861,66.7490308 11.5130208,65.2744141 C12.8118554,63.7997973 14.5354709,63.0625 16.6839192,63.0625 C18.7933047,63.0625 20.4632099,63.7558524 21.6936848,65.1425781 C22.9241597,66.5293038 23.5393879,68.4189333 23.5393879,70.8115234 L23.5393879,71.8076172 L12.2014973,71.8076172 L12.2014973,71.9541016 C12.2014973,73.4580153 12.6262978,74.6591752 13.4759114,75.5576172 C14.325525,76.4560592 15.4534434,76.9052734 16.8597004,76.9052734 C17.8460335,76.9052734 18.6980758,76.6879905 19.4158528,76.253418 C20.1336298,75.8188455 20.6048165,75.2304725 20.829427,74.4882812 Z M27.6695962,79 L30.2184243,79 L30.2184243,69.8300781 C30.2184243,68.4726495 30.587073,67.3837932 31.3243814,66.5634766 C32.0616897,65.74316 33.079746,65.3330078 34.3785806,65.3330078 C35.6285868,65.3330078 36.5563119,65.6748013 37.1617837,66.3583984 C37.7672555,67.0419956 38.0699868,68.0283139 38.0699868,69.3173828 L38.0699868,79 L40.6188149,79 L40.6188149,68.8779297 C40.6188149,67.0810457 40.1403041,65.6626029 39.1832681,64.6225586 C38.226232,63.5825143 36.8785893,63.0625 35.1402993,63.0625 C33.9195901,63.0625 32.9039752,63.2895485 32.0934243,63.7436523 C31.2828734,64.1977562 30.6285831,64.8740189 30.1305337,65.7724609 L30.0719399,65.7724609 L30.0719399,63.2089844 L27.6695962,63.2089844 L27.6695962,79 Z M53.9329424,63.9560547 L53.9329424,63.9707031 L56.4817705,63.9707031 L56.4817705,63.9560547 C56.4817705,62.7744082 56.8968054,61.7880899 57.7268877,60.9970703 C58.55697,60.2060507 59.5921159,59.8105469 60.8323565,59.8105469 C61.9944716,59.8105469 62.9832313,60.1669886 63.798665,60.8798828 C64.6140988,61.592777 65.0218096,62.4570262 65.0218096,63.4726562 C65.0218096,64.3515669 64.7923197,65.176754 64.333333,65.9482422 C63.8743463,66.7197304 62.931973,67.8525316 61.5061846,69.3466797 L54.0647783,77.1835938 L54.0647783,79 L68.0100908,79 L68.0100908,76.65625 L57.7122393,76.65625 L57.7122393,76.5976562 L63.058919,71.0751953 C64.8265059,69.2490143 66.0349899,67.7939507 66.6844072,66.7099609 C67.3338245,65.6259711 67.6585283,64.49317 67.6585283,63.3115234 C67.6585283,61.6904216 67.0066794,60.318365 65.7029619,59.1953125 C64.3992445,58.07226 62.8001394,57.5107422 60.9055986,57.5107422 C58.9134012,57.5107422 57.2532615,58.123529 55.9251299,59.3491211 C54.5969982,60.5747132 53.9329424,62.1103423 53.9329424,63.9560547 Z M79.7574866,79.3515625 C81.9645289,79.3515625 83.7711514,78.6777411 85.1774085,77.3300781 C86.5836655,75.9824151 87.2867835,74.249034 87.2867835,72.1298828 C87.2867835,70.0790913 86.6300517,68.3872137 85.3165686,67.0541992 C84.0030855,65.7211847 82.3307389,65.0546875 80.2994788,65.0546875 C79.2936144,65.0546875 78.3732134,65.2353498 77.5382483,65.5966797 C76.7032832,65.9580096 76.0465515,66.4560515 75.5680335,67.0908203 L75.5094397,67.0908203 L76.153971,60.2060547 L86.0856116,60.2060547 L86.0856116,57.8623047 L73.9860022,57.8623047 L72.8287756,69.6982422 L75.3043616,69.6982422 C76.2321006,68.116203 77.7408746,67.3251953 79.8307288,67.3251953 C81.2369858,67.3251953 82.3917594,67.7817337 83.2950842,68.6948242 C84.1984091,69.6079147 84.6500647,70.7773366 84.6500647,72.203125 C84.6500647,73.6191477 84.1984091,74.7788041 83.2950842,75.6821289 C82.3917594,76.5854537 81.2223375,77.0371094 79.7867835,77.0371094 C78.5172459,77.0371094 77.4479206,76.683109 76.5787756,75.9750977 C75.7096307,75.2670863 75.2164715,74.3515681 75.0992835,73.2285156 L72.50651,73.2285156 C72.6139324,75.0253996 73.3439056,76.4951115 74.6964514,77.6376953 C76.0489973,78.7802792 77.7359921,79.3515625 79.7574866,79.3515625 Z M100.967122,59.6494141 L100.967122,63.2089844 L98.7698562,63.2089844 L98.7698562,65.3183594 L100.967122,65.3183594 L100.967122,74.8984375 C100.967122,76.4121169 101.272295,77.4936491 101.882649,78.1430664 C102.493004,78.7924837 103.51106,79.1171875 104.936848,79.1171875 C105.239584,79.1171875 105.54964,79.1049806 105.867024,79.0805664 C106.184409,79.0561522 106.421223,79.0244143 106.577473,78.9853516 L106.577473,76.8320312 C106.489582,76.8417969 106.323568,76.8564452 106.079427,76.8759766 C105.835285,76.8955079 105.635091,76.9052734 105.478841,76.9052734 C104.805009,76.9052734 104.309409,76.7343767 103.992024,76.3925781 C103.67464,76.0507795 103.51595,75.5185583 103.51595,74.7958984 L103.51595,65.3183594 L106.592122,65.3183594 L106.592122,63.2089844 L103.51595,63.2089844 L103.51595,59.6494141 L100.967122,59.6494141 Z M110.868814,79 L113.417643,79 L113.417643,69.2294922 C113.417643,68.1162054 113.727698,67.2177769 114.347818,66.5341797 C114.967939,65.8505825 115.790684,65.5087891 116.81608,65.5087891 C117.128582,65.5087891 117.414223,65.5234374 117.673014,65.5527344 C117.931804,65.5820314 118.110025,65.6162107 118.207682,65.6552734 L118.207682,63.1503906 C118.100259,63.1308593 117.953776,63.1113282 117.768229,63.0917969 C117.582681,63.0722655 117.377605,63.0625 117.152994,63.0625 C116.235021,63.0625 115.426923,63.3066382 114.728678,63.7949219 C114.030432,64.2832056 113.564128,64.9423787 113.329752,65.7724609 L113.271158,65.7724609 L113.271158,63.2089844 L110.868814,63.2089844 L110.868814,79 Z M126.688476,76.9345703 C127.977545,76.9345703 129.044429,76.5610389 129.889159,75.8139648 C130.73389,75.0668908 131.156249,74.1269588 131.156249,72.9941406 L131.156249,71.7197266 L127.02539,71.9833984 C124.623034,72.1298835 123.421874,72.9746017 123.421874,74.5175781 C123.421874,75.2500037 123.717281,75.8359353 124.308105,76.2753906 C124.898928,76.7148459 125.692377,76.9345703 126.688476,76.9345703 Z M126.146484,79.1464844 C124.544913,79.1464844 123.255864,78.7216839 122.279296,77.8720703 C121.302729,77.0224567 120.814452,75.899421 120.814452,74.5029297 C120.814452,71.7197126 122.787089,70.2060559 126.732421,69.9619141 L131.156249,69.6982422 L131.156249,68.3798828 C131.156249,67.3935498 130.843752,66.6391628 130.218749,66.1166992 C129.593746,65.5942357 128.7002,65.3330078 127.538085,65.3330078 C126.620112,65.3330078 125.846194,65.5502908 125.216308,65.9848633 C124.586422,66.4194358 124.193359,67.0126916 124.037109,67.7646484 L121.59082,67.7646484 C121.629882,66.4267511 122.223138,65.3085982 123.370605,64.4101562 C124.518071,63.5117143 125.916983,63.0625 127.567382,63.0625 C129.432626,63.0625 130.921869,63.5239212 132.035156,64.4467773 C133.148442,65.3696335 133.705077,66.6074141 133.705077,68.1601562 L133.705077,79 L131.288085,79 L131.288085,76.2607422 L131.229491,76.2607422 C130.78027,77.1396528 130.096684,77.8403294 129.17871,78.362793 C128.260737,78.8852565 127.250005,79.1464844 126.146484,79.1464844 Z M138.538411,79 L141.087239,79 L141.087239,69.8300781 C141.087239,68.4726495 141.455887,67.3837932 142.193196,66.5634766 C142.930504,65.74316 143.94856,65.3330078 145.247395,65.3330078 C146.497401,65.3330078 147.425126,65.6748013 148.030598,66.3583984 C148.63607,67.0419956 148.938801,68.0283139 148.938801,69.3173828 L148.938801,79 L151.487629,79 L151.487629,68.8779297 C151.487629,67.0810457 151.009119,65.6626029 150.052083,64.6225586 C149.095047,63.5825143 147.747404,63.0625 146.009114,63.0625 C144.788405,63.0625 143.77279,63.2895485 142.962239,63.7436523 C142.151688,64.1977562 141.497398,64.8740189 140.999348,65.7724609 L140.940754,65.7724609 L140.940754,63.2089844 L138.538411,63.2089844 L138.538411,79 Z M156.057291,67.6181641 C156.057291,69.7177839 157.429347,71.1240199 160.173502,71.8369141 L162.942056,72.5546875 C163.840498,72.7890637 164.475258,73.0698226 164.846353,73.3969727 C165.217449,73.7241227 165.402994,74.1660128 165.402994,74.7226562 C165.402994,75.4355504 165.088056,75.9995096 164.45817,76.4145508 C163.828284,76.8295919 162.976241,77.0371094 161.902017,77.0371094 C160.827793,77.0371094 159.97331,76.8247092 159.338541,76.3999023 C158.703772,75.9750955 158.318034,75.3623087 158.181314,74.5615234 L155.617838,74.5615234 C155.744791,75.9287178 156.369785,77.0346637 157.492838,77.8793945 C158.61589,78.7241253 160.027009,79.1464844 161.726236,79.1464844 C163.552417,79.1464844 165.048984,78.7168012 166.215982,77.8574219 C167.38298,76.9980426 167.96647,75.894538 167.96647,74.546875 C167.96647,73.3945255 167.644208,72.5034211 166.999674,71.8735352 C166.355139,71.2436492 165.232103,70.7285176 163.630533,70.328125 L161.228189,69.7275391 C160.319982,69.5029286 159.648602,69.2075214 159.214029,68.8413086 C158.779457,68.4750958 158.562174,68.0234402 158.562174,67.4863281 C158.562174,66.7929653 158.860022,66.2363302 159.455728,65.8164062 C160.051434,65.3964823 160.837559,65.1865234 161.814127,65.1865234 C162.780928,65.1865234 163.567053,65.401365 164.172525,65.8310547 C164.777997,66.2607443 165.11979,66.846676 165.197916,67.5888672 L167.644205,67.5888672 C167.595376,66.2900326 167.026535,65.2133832 165.937662,64.3588867 C164.848789,63.5043903 163.503588,63.0771484 161.902017,63.0771484 C160.193024,63.0771484 158.791671,63.4995075 157.697916,64.3442383 C156.60416,65.1889691 156.057291,66.2802667 156.057291,67.6181641 Z M177.340819,76.9345703 C178.629888,76.9345703 179.696772,76.5610389 180.541503,75.8139648 C181.386234,75.0668908 181.808593,74.1269588 181.808593,72.9941406 L181.808593,71.7197266 L177.677733,71.9833984 C175.275378,72.1298835 174.074218,72.9746017 174.074218,74.5175781 C174.074218,75.2500037 174.369625,75.8359353 174.960448,76.2753906 C175.551272,76.7148459 176.344721,76.9345703 177.340819,76.9345703 Z M176.798827,79.1464844 C175.197257,79.1464844 173.908207,78.7216839 172.93164,77.8720703 C171.955072,77.0224567 171.466796,75.899421 171.466796,74.5029297 C171.466796,71.7197126 173.439432,70.2060559 177.384765,69.9619141 L181.808593,69.6982422 L181.808593,68.3798828 C181.808593,67.3935498 181.496096,66.6391628 180.871093,66.1166992 C180.24609,65.5942357 179.352544,65.3330078 178.190429,65.3330078 C177.272455,65.3330078 176.498537,65.5502908 175.868651,65.9848633 C175.238765,66.4194358 174.845703,67.0126916 174.689452,67.7646484 L172.243163,67.7646484 C172.282226,66.4267511 172.875482,65.3085982 174.022948,64.4101562 C175.170415,63.5117143 176.569327,63.0625 178.219726,63.0625 C180.084969,63.0625 181.574212,63.5239212 182.687499,64.4467773 C183.800786,65.3696335 184.357421,66.6074141 184.357421,68.1601562 L184.357421,79 L181.940429,79 L181.940429,76.2607422 L181.881835,76.2607422 C181.432614,77.1396528 180.749027,77.8403294 179.831054,78.362793 C178.91308,78.8852565 177.902348,79.1464844 176.798827,79.1464844 Z M202.242512,68.3505859 C202.086261,66.9638603 201.431971,65.7358452 200.279621,64.6665039 C199.127272,63.5971626 197.574553,63.0625 195.621418,63.0625 C193.463204,63.0625 191.722499,63.7973559 190.39925,65.2670898 C189.076001,66.7368238 188.414387,68.6826051 188.414387,71.1044922 C188.414387,73.5849733 189.078443,75.545403 190.406574,76.9858398 C191.734706,78.4262767 193.482736,79.1464844 195.650715,79.1464844 C197.457365,79.1464844 198.958815,78.6630908 200.15511,77.6962891 C201.351405,76.7294874 202.056964,75.4794999 202.271809,73.9462891 L199.766926,73.9462891 C199.552081,74.8935594 199.09066,75.6186498 198.382649,76.121582 C197.674637,76.6245142 196.768885,76.8759766 195.665364,76.8759766 C194.288404,76.8759766 193.167809,76.3632864 192.303547,75.3378906 C191.439285,74.3124949 191.00716,72.9013762 191.00716,71.1044922 C191.00716,69.3564366 191.434402,67.9575248 192.288899,66.9077148 C193.143395,65.8579049 194.259107,65.3330078 195.636067,65.3330078 C196.827479,65.3330078 197.769852,65.6259736 198.463215,66.2119141 C199.156578,66.7978545 199.581378,67.510738 199.737629,68.3505859 L202.242512,68.3505859 Z M219.2194,68.3505859 C219.063149,66.9638603 218.408859,65.7358452 217.256509,64.6665039 C216.10416,63.5971626 214.551441,63.0625 212.598306,63.0625 C210.440092,63.0625 208.699387,63.7973559 207.376138,65.2670898 C206.052889,66.7368238 205.391275,68.6826051 205.391275,71.1044922 C205.391275,73.5849733 206.055331,75.545403 207.383462,76.9858398 C208.711594,78.4262767 210.459623,79.1464844 212.627603,79.1464844 C214.434253,79.1464844 215.935703,78.6630908 217.131998,77.6962891 C218.328293,76.7294874 219.033852,75.4794999 219.248697,73.9462891 L216.743814,73.9462891 C216.528969,74.8935594 216.067548,75.6186498 215.359537,76.121582 C214.651525,76.6245142 213.745773,76.8759766 212.642251,76.8759766 C211.265291,76.8759766 210.144697,76.3632864 209.280435,75.3378906 C208.416173,74.3124949 207.984048,72.9013762 207.984048,71.1044922 C207.984048,69.3564366 208.41129,67.9575248 209.265787,66.9077148 C210.120283,65.8579049 211.235995,65.3330078 212.612955,65.3330078 C213.804367,65.3330078 214.74674,65.6259736 215.440103,66.2119141 C216.133466,66.7978545 216.558266,67.510738 216.714517,68.3505859 L219.2194,68.3505859 Z M223.291014,79 L225.839843,79 L225.839843,63.2089844 L223.291014,63.2089844 L223.291014,79 Z M224.565428,60.6601562 C225.014649,60.6601562 225.395505,60.5014664 225.708007,60.184082 C226.020508,59.8666976 226.176757,59.4882834 226.176757,59.0488281 C226.176757,58.5996071 226.020508,58.2187516 225.708007,57.90625 C225.395505,57.5937484 225.014649,57.4375 224.565428,57.4375 C224.125973,57.4375 223.747559,57.5937484 223.430175,57.90625 C223.11279,58.2187516 222.9541,58.5996071 222.9541,59.0488281 C222.9541,59.4882834 223.11279,59.8666976 223.430175,60.184082 C223.747559,60.5014664 224.125973,60.6601562 224.565428,60.6601562 Z M237.396809,79.1464844 C235.180001,79.1464844 233.41244,78.4165112 232.094074,76.956543 C230.775708,75.4965747 230.116535,73.5459106 230.116535,71.1044922 C230.116535,68.6533081 230.775708,66.7002026 232.094074,65.2451172 C233.41244,63.7900318 235.180001,63.0625 237.396809,63.0625 C239.613617,63.0625 241.381177,63.7900318 242.699543,65.2451172 C244.017909,66.7002026 244.677082,68.6533081 244.677082,71.1044922 C244.677082,73.5459106 244.017909,75.4965747 242.699543,76.956543 C241.381177,78.4165112 239.613617,79.1464844 237.396809,79.1464844 Z M237.396809,76.8759766 C238.871425,76.8759766 240.021316,76.3657278 240.846516,75.3452148 C241.671715,74.3247019 242.084309,72.9111418 242.084309,71.1044922 C242.084309,69.2880769 241.671715,67.8720754 240.846516,66.8564453 C240.021316,65.8408152 238.871425,65.3330078 237.396809,65.3330078 C235.922192,65.3330078 234.772301,65.8432566 233.947102,66.8637695 C233.121902,67.8842824 232.709309,69.2978425 232.709309,71.1044922 C232.709309,72.9111418 233.124344,74.3247019 233.954426,75.3452148 C234.784508,76.3657278 235.931958,76.8759766 237.396809,76.8759766 Z M248.80729,79 L251.356118,79 L251.356118,69.8300781 C251.356118,68.4726495 251.724767,67.3837932 252.462075,66.5634766 C253.199384,65.74316 254.21744,65.3330078 255.516275,65.3330078 C256.766281,65.3330078 257.694006,65.6748013 258.299478,66.3583984 C258.90495,67.0419956 259.207681,68.0283139 259.207681,69.3173828 L259.207681,79 L261.756509,79 L261.756509,68.8779297 C261.756509,67.0810457 261.277998,65.6626029 260.320962,64.6225586 C259.363926,63.5825143 258.016283,63.0625 256.277993,63.0625 C255.057284,63.0625 254.041669,63.2895485 253.231118,63.7436523 C252.420568,64.1977562 251.766277,64.8740189 251.268228,65.7724609 L251.209634,65.7724609 L251.209634,63.2089844 L248.80729,63.2089844 L248.80729,79 Z M272.88867,65.3037109 C271.64843,65.3037109 270.620608,65.7138631 269.805174,66.5341797 C268.989741,67.3544963 268.538085,68.4335871 268.450194,69.7714844 L277.136717,69.7714844 C277.10742,68.4335871 276.704592,67.3544963 275.928221,66.5341797 C275.15185,65.7138631 274.138677,65.3037109 272.88867,65.3037109 Z M277.078124,74.4882812 L279.597655,74.4882812 C279.38281,75.8457099 278.660161,76.9614214 277.429686,77.8354492 C276.199211,78.709477 274.739265,79.1464844 273.049803,79.1464844 C270.832995,79.1464844 269.072759,78.4262767 267.769042,76.9858398 C266.465324,75.545403 265.813475,73.6045044 265.813475,71.1630859 C265.813475,68.7119018 266.462883,66.7490308 267.761717,65.2744141 C269.060552,63.7997973 270.784168,63.0625 272.932616,63.0625 C275.042001,63.0625 276.711906,63.7558524 277.942381,65.1425781 C279.172856,66.5293038 279.788085,68.4189333 279.788085,70.8115234 L279.788085,71.8076172 L268.450194,71.8076172 L268.450194,71.9541016 C268.450194,73.4580153 268.874994,74.6591752 269.724608,75.5576172 C270.574222,76.4560592 271.70214,76.9052734 273.108397,76.9052734 C274.09473,76.9052734 274.946772,76.6879905 275.664549,76.253418 C276.382326,75.8188455 276.853513,75.2304725 277.078124,74.4882812 Z M283.654621,67.6181641 C283.654621,69.7177839 285.026677,71.1240199 287.770832,71.8369141 L290.539387,72.5546875 C291.437829,72.7890637 292.072588,73.0698226 292.443683,73.3969727 C292.814779,73.7241227 293.000324,74.1660128 293.000324,74.7226562 C293.000324,75.4355504 292.685386,75.9995096 292.0555,76.4145508 C291.425614,76.8295919 290.573572,77.0371094 289.499347,77.0371094 C288.425123,77.0371094 287.57064,76.8247092 286.935871,76.3999023 C286.301102,75.9750955 285.915364,75.3623087 285.778644,74.5615234 L283.215168,74.5615234 C283.342122,75.9287178 283.967115,77.0346637 285.090168,77.8793945 C286.21322,78.7241253 287.624339,79.1464844 289.323566,79.1464844 C291.149747,79.1464844 292.646314,78.7168012 293.813312,77.8574219 C294.98031,76.9980426 295.563801,75.894538 295.563801,74.546875 C295.563801,73.3945255 295.241538,72.5034211 294.597004,71.8735352 C293.952469,71.2436492 292.829434,70.7285176 291.227863,70.328125 L288.825519,69.7275391 C287.917312,69.5029286 287.245932,69.2075214 286.811359,68.8413086 C286.376787,68.4750958 286.159504,68.0234402 286.159504,67.4863281 C286.159504,66.7929653 286.457352,66.2363302 287.053058,65.8164062 C287.648764,65.3964823 288.434889,65.1865234 289.411457,65.1865234 C290.378259,65.1865234 291.164383,65.401365 291.769855,65.8310547 C292.375327,66.2607443 292.71712,66.846676 292.795246,67.5888672 L295.241535,67.5888672 C295.192707,66.2900326 294.623865,65.2133832 293.534992,64.3588867 C292.446119,63.5043903 291.100918,63.0771484 289.499347,63.0771484 C287.790355,63.0771484 286.389001,63.4995075 285.295246,64.3442383 C284.20149,65.1889691 283.654621,66.2802667 283.654621,67.6181641 Z M314.708006,65.3037109 C313.467766,65.3037109 312.439944,65.7138631 311.62451,66.5341797 C310.809076,67.3544963 310.357421,68.4335871 310.26953,69.7714844 L318.956053,69.7714844 C318.926756,68.4335871 318.523928,67.3544963 317.747557,66.5341797 C316.971186,65.7138631 315.958012,65.3037109 314.708006,65.3037109 Z M318.897459,74.4882812 L321.416991,74.4882812 C321.202146,75.8457099 320.479497,76.9614214 319.249022,77.8354492 C318.018547,78.709477 316.558601,79.1464844 314.869139,79.1464844 C312.652331,79.1464844 310.892095,78.4262767 309.588377,76.9858398 C308.28466,75.545403 307.632811,73.6045044 307.632811,71.1630859 C307.632811,68.7119018 308.282218,66.7490308 309.581053,65.2744141 C310.879888,63.7997973 312.603503,63.0625 314.751951,63.0625 C316.861337,63.0625 318.531242,63.7558524 319.761717,65.1425781 C320.992192,66.5293038 321.60742,68.4189333 321.60742,70.8115234 L321.60742,71.8076172 L310.26953,71.8076172 L310.26953,71.9541016 C310.26953,73.4580153 310.69433,74.6591752 311.543944,75.5576172 C312.393557,76.4560592 313.521476,76.9052734 314.927733,76.9052734 C315.914066,76.9052734 316.766108,76.6879905 317.483885,76.253418 C318.201662,75.8188455 318.672849,75.2304725 318.897459,74.4882812 Z M330.981769,72.9501953 L334.805011,79 L337.646808,79 L332.373371,71.0019531 L337.72005,63.2089844 L334.878253,63.2089844 L331.06966,69.1708984 L331.011066,69.1708984 L327.158527,63.2089844 L324.31673,63.2089844 L329.634113,71.1044922 L324.228839,79 L327.070636,79 L330.923175,72.9501953 L330.981769,72.9501953 Z M341.55729,79 L344.106118,79 L344.106118,63.2089844 L341.55729,63.2089844 L341.55729,79 Z M342.831704,60.6601562 C343.280925,60.6601562 343.66178,60.5014664 343.974282,60.184082 C344.286784,59.8666976 344.443032,59.4882834 344.443032,59.0488281 C344.443032,58.5996071 344.286784,58.2187516 343.974282,57.90625 C343.66178,57.5937484 343.280925,57.4375 342.831704,57.4375 C342.392249,57.4375 342.013834,57.5937484 341.69645,57.90625 C341.379066,58.2187516 341.220376,58.5996071 341.220376,59.0488281 C341.220376,59.4882834 341.379066,59.8666976 341.69645,60.184082 C342.013834,60.5014664 342.392249,60.6601562 342.831704,60.6601562 Z M349.994139,59.6494141 L349.994139,63.2089844 L347.796873,63.2089844 L347.796873,65.3183594 L349.994139,65.3183594 L349.994139,74.8984375 C349.994139,76.4121169 350.299311,77.4936491 350.909666,78.1430664 C351.520021,78.7924837 352.538077,79.1171875 353.963865,79.1171875 C354.266601,79.1171875 354.576657,79.1049806 354.894041,79.0805664 C355.211425,79.0561522 355.448239,79.0244143 355.60449,78.9853516 L355.60449,76.8320312 C355.516599,76.8417969 355.350585,76.8564452 355.106443,76.8759766 C354.862302,76.8955079 354.662108,76.9052734 354.505857,76.9052734 C353.832026,76.9052734 353.336425,76.7343767 353.019041,76.3925781 C352.701657,76.0507795 352.542967,75.5185583 352.542967,74.7958984 L352.542967,65.3183594 L355.619139,65.3183594 L355.619139,63.2089844 L352.542967,63.2089844 L352.542967,59.6494141 L349.994139,59.6494141 Z M365.960284,79.1464844 C363.743477,79.1464844 361.975916,78.4165112 360.65755,76.956543 C359.339184,75.4965747 358.680011,73.5459106 358.680011,71.1044922 C358.680011,68.6533081 359.339184,66.7002026 360.65755,65.2451172 C361.975916,63.7900318 363.743477,63.0625 365.960284,63.0625 C368.177092,63.0625 369.944653,63.7900318 371.263019,65.2451172 C372.581385,66.7002026 373.240558,68.6533081 373.240558,71.1044922 C373.240558,73.5459106 372.581385,75.4965747 371.263019,76.956543 C369.944653,78.4165112 368.177092,79.1464844 365.960284,79.1464844 Z M365.960284,76.8759766 C367.434901,76.8759766 368.584792,76.3657278 369.409992,75.3452148 C370.235191,74.3247019 370.647784,72.9111418 370.647784,71.1044922 C370.647784,69.2880769 370.235191,67.8720754 369.409992,66.8564453 C368.584792,65.8408152 367.434901,65.3330078 365.960284,65.3330078 C364.485668,65.3330078 363.335777,65.8432566 362.510577,66.8637695 C361.685378,67.8842824 361.272784,69.2978425 361.272784,71.1044922 C361.272784,72.9111418 361.687819,74.3247019 362.517902,75.3452148 C363.347984,76.3657278 364.495433,76.8759766 365.960284,76.8759766 Z M377.107094,67.6181641 C377.107094,69.7177839 378.479151,71.1240199 381.223305,71.8369141 L383.99186,72.5546875 C384.890302,72.7890637 385.525061,73.0698226 385.896157,73.3969727 C386.267252,73.7241227 386.452797,74.1660128 386.452797,74.7226562 C386.452797,75.4355504 386.137859,75.9995096 385.507973,76.4145508 C384.878087,76.8295919 384.026045,77.0371094 382.951821,77.0371094 C381.877597,77.0371094 381.023113,76.8247092 380.388344,76.3999023 C379.753575,75.9750955 379.367837,75.3623087 379.231118,74.5615234 L376.667641,74.5615234 C376.794595,75.9287178 377.419589,77.0346637 378.542641,77.8793945 C379.665694,78.7241253 381.076812,79.1464844 382.77604,79.1464844 C384.602221,79.1464844 386.098788,78.7168012 387.265786,77.8574219 C388.432784,76.9980426 389.016274,75.894538 389.016274,74.546875 C389.016274,73.3945255 388.694012,72.5034211 388.049477,71.8735352 C387.404943,71.2436492 386.281907,70.7285176 384.680336,70.328125 L382.277993,69.7275391 C381.369785,69.5029286 380.698405,69.2075214 380.263833,68.8413086 C379.82926,68.4750958 379.611977,68.0234402 379.611977,67.4863281 C379.611977,66.7929653 379.909826,66.2363302 380.505532,65.8164062 C381.101238,65.3964823 381.887363,65.1865234 382.86393,65.1865234 C383.830732,65.1865234 384.616857,65.401365 385.222329,65.8310547 C385.8278,66.2607443 386.169594,66.846676 386.247719,67.5888672 L388.694008,67.5888672 C388.64518,66.2900326 388.076338,65.2133832 386.987465,64.3588867 C385.898593,63.5043903 384.553391,63.0771484 382.951821,63.0771484 C381.242828,63.0771484 379.841475,63.4995075 378.747719,64.3442383 C377.653964,65.1889691 377.107094,66.2802667 377.107094,67.6181641 Z M398.390623,76.9345703 C399.679692,76.9345703 400.746576,76.5610389 401.591306,75.8139648 C402.436037,75.0668908 402.858396,74.1269588 402.858396,72.9941406 L402.858396,71.7197266 L398.727537,71.9833984 C396.325181,72.1298835 395.124021,72.9746017 395.124021,74.5175781 C395.124021,75.2500037 395.419428,75.8359353 396.010252,76.2753906 C396.601075,76.7148459 397.394524,76.9345703 398.390623,76.9345703 Z M397.848631,79.1464844 C396.24706,79.1464844 394.958011,78.7216839 393.981443,77.8720703 C393.004876,77.0224567 392.516599,75.899421 392.516599,74.5029297 C392.516599,71.7197126 394.489236,70.2060559 398.434568,69.9619141 L402.858396,69.6982422 L402.858396,68.3798828 C402.858396,67.3935498 402.545899,66.6391628 401.920896,66.1166992 C401.295893,65.5942357 400.402347,65.3330078 399.240232,65.3330078 C398.322259,65.3330078 397.548341,65.5502908 396.918455,65.9848633 C396.288569,66.4194358 395.895506,67.0126916 395.739256,67.7646484 L393.292967,67.7646484 C393.332029,66.4267511 393.925285,65.3085982 395.072752,64.4101562 C396.220218,63.5117143 397.61913,63.0625 399.269529,63.0625 C401.134773,63.0625 402.624016,63.5239212 403.737303,64.4467773 C404.850589,65.3696335 405.407224,66.6074141 405.407224,68.1601562 L405.407224,79 L402.990232,79 L402.990232,76.2607422 L402.931638,76.2607422 C402.482417,77.1396528 401.798831,77.8403294 400.880857,78.362793 C399.962884,78.8852565 398.952152,79.1464844 397.848631,79.1464844 Z M409.976886,67.6181641 C409.976886,69.7177839 411.348942,71.1240199 414.093097,71.8369141 L416.861651,72.5546875 C417.760093,72.7890637 418.394853,73.0698226 418.765948,73.3969727 C419.137044,73.7241227 419.322589,74.1660128 419.322589,74.7226562 C419.322589,75.4355504 419.007651,75.9995096 418.377765,76.4145508 C417.747879,76.8295919 416.895836,77.0371094 415.821612,77.0371094 C414.747388,77.0371094 413.892905,76.8247092 413.258136,76.3999023 C412.623367,75.9750955 412.237629,75.3623087 412.100909,74.5615234 L409.537433,74.5615234 C409.664386,75.9287178 410.28938,77.0346637 411.412433,77.8793945 C412.535485,78.7241253 413.946604,79.1464844 415.645831,79.1464844 C417.472012,79.1464844 418.968579,78.7168012 420.135577,77.8574219 C421.302575,76.9980426 421.886065,75.894538 421.886065,74.546875 C421.886065,73.3945255 421.563803,72.5034211 420.919269,71.8735352 C420.274734,71.2436492 419.151698,70.7285176 417.550128,70.328125 L415.147784,69.7275391 C414.239577,69.5029286 413.568197,69.2075214 413.133624,68.8413086 C412.699052,68.4750958 412.481769,68.0234402 412.481769,67.4863281 C412.481769,66.7929653 412.779617,66.2363302 413.375323,65.8164062 C413.971029,65.3964823 414.757154,65.1865234 415.733722,65.1865234 C416.700523,65.1865234 417.486648,65.401365 418.09212,65.8310547 C418.697592,66.2607443 419.039385,66.846676 419.117511,67.5888672 L421.5638,67.5888672 C421.514971,66.2900326 420.94613,65.2133832 419.857257,64.3588867 C418.768384,63.5043903 417.423183,63.0771484 415.821612,63.0771484 C414.112619,63.0771484 412.711266,63.4995075 411.617511,64.3442383 C410.523755,65.1889691 409.976886,66.2802667 409.976886,67.6181641 Z" id="en-25-transacciones" fill="#FFFFFF"></path>
                        </g>
                    </g>
                    <g id="benefits2" transform="translate(402.000000, 538.000000)">
                        <g id="Group-3" transform="translate(0.000000, 2.000000)" fill="#FFFFFF">
                            <path d="M7.33235669,78.1464844 C5.3499249,78.1464844 3.72640598,77.4091871 2.46175122,75.9345703 C1.19709646,74.4599536 0.564778566,72.5166136 0.564778566,70.1044922 C0.564778566,67.6923708 1.1922137,65.7490308 2.44710279,64.2744141 C3.70199187,62.7997973 5.3108625,62.0625 7.27376294,62.0625 C8.40658111,62.0625 9.40998904,62.2968727 10.2840168,62.765625 C11.1580447,63.2343773 11.8343074,63.903316 12.3128254,64.7724609 L12.3714192,64.7724609 L12.3714192,55.9394531 L14.9202473,55.9394531 L14.9202473,78 L12.4886067,78 L12.4886067,75.3339844 L12.4446614,75.3339844 C11.9368463,76.242192 11.2434939,76.9379859 10.3645833,77.4213867 C9.48567261,77.9047876 8.47494053,78.1464844 7.33235669,78.1464844 Z M7.78645825,64.3330078 C6.39973257,64.3330078 5.28402107,64.8579049 4.43929029,65.9077148 C3.5945595,66.9575248 3.17220044,68.3564366 3.17220044,70.1044922 C3.17220044,71.8525478 3.5945595,73.2514596 4.43929029,74.3012695 C5.28402107,75.3510795 6.39973257,75.8759766 7.78645825,75.8759766 C9.15365259,75.8759766 10.2620399,75.3437553 11.1116536,74.2792969 C11.9612672,73.2148384 12.3860676,71.8232508 12.3860676,70.1044922 C12.3860676,68.3857336 11.9612672,66.9941459 11.1116536,65.9296875 C10.2620399,64.8652291 9.15365259,64.3330078 7.78645825,64.3330078 Z M26.2721353,64.3037109 C25.0318947,64.3037109 24.0040729,64.7138631 23.1886392,65.5341797 C22.3732054,66.3544963 21.9215498,67.4335871 21.8336587,68.7714844 L30.5201821,68.7714844 C30.4908851,67.4335871 30.0880571,66.3544963 29.311686,65.5341797 C28.535315,64.7138631 27.5221415,64.3037109 26.2721353,64.3037109 Z M30.4615884,73.4882812 L32.9811196,73.4882812 C32.7662748,74.8457099 32.0436258,75.9614214 30.8131509,76.8354492 C29.582676,77.709477 28.1227296,78.1464844 26.4332681,78.1464844 C24.2164601,78.1464844 22.4562238,77.4262767 21.1525064,75.9858398 C19.8487889,74.545403 19.1969399,72.6045044 19.1969399,70.1630859 C19.1969399,67.7119018 19.8463475,65.7490308 21.1451821,64.2744141 C22.4440168,62.7997973 24.1676323,62.0625 26.3160806,62.0625 C28.4254661,62.0625 30.0953713,62.7558524 31.3258462,64.1425781 C32.5563211,65.5293038 33.1715493,67.4189333 33.1715493,69.8115234 L33.1715493,70.8076172 L21.8336587,70.8076172 L21.8336587,70.9541016 C21.8336587,72.4580153 22.2584591,73.6591752 23.1080728,74.5576172 C23.9576864,75.4560592 25.0856048,75.9052734 26.4918618,75.9052734 C27.4781949,75.9052734 28.3302371,75.6879905 29.0480142,75.253418 C29.7657912,74.8188455 30.2369779,74.2304725 30.4615884,73.4882812 Z M58.8050127,62.2089844 L56.1536455,62.2089844 L51.715169,75.2460938 L51.6565752,75.2460938 L47.2327471,62.2089844 L44.5667315,62.2089844 L50.3968096,78 L52.9749346,78 L53.5608721,76.4033203 C53.951499,75.3388619 54.437334,74.0229571 55.0183916,72.4555664 L56.7615557,67.753418 C57.3426133,66.1860273 57.8284482,64.8701225 58.2190752,63.8056641 L58.8050127,62.2089844 Z M67.2125647,75.9345703 C68.5016337,75.9345703 69.5685175,75.5610389 70.4132483,74.8139648 C71.2579791,74.0668908 71.6803381,73.1269588 71.6803381,71.9941406 L71.6803381,70.7197266 L67.5494788,70.9833984 C65.147123,71.1298835 63.9459631,71.9746017 63.9459631,73.5175781 C63.9459631,74.2500037 64.2413703,74.8359353 64.8321936,75.2753906 C65.4230169,75.7148459 66.216466,75.9345703 67.2125647,75.9345703 Z M66.6705725,78.1464844 C65.069002,78.1464844 63.7799524,77.7216839 62.803385,76.8720703 C61.8268176,76.0224567 61.3385413,74.899421 61.3385413,73.5029297 C61.3385413,70.7197126 63.3111778,69.2060559 67.25651,68.9619141 L71.6803381,68.6982422 L71.6803381,67.3798828 C71.6803381,66.3935498 71.3678413,65.6391628 70.7428381,65.1166992 C70.117835,64.5942357 69.2242893,64.3330078 68.0621741,64.3330078 C67.1442007,64.3330078 66.3702827,64.5502908 65.7403967,64.9848633 C65.1105108,65.4194358 64.7174483,66.0126916 64.5611975,66.7646484 L62.1149085,66.7646484 C62.1539712,65.4267511 62.7472269,64.3085982 63.8946936,63.4101562 C65.0421603,62.5117143 66.4410721,62.0625 68.091471,62.0625 C69.9567147,62.0625 71.4459576,62.5239212 72.5592444,63.4467773 C73.6725312,64.3696335 74.2291663,65.6074141 74.2291663,67.1601562 L74.2291663,78 L71.8121741,78 L71.8121741,75.2607422 L71.7535803,75.2607422 C71.3043593,76.1396528 70.6207724,76.8403294 69.7027991,77.362793 C68.7848257,77.8852565 67.7740937,78.1464844 66.6705725,78.1464844 Z M79.2089839,78 L81.757812,78 L81.757812,55.9394531 L79.2089839,55.9394531 L79.2089839,78 Z M93.3147781,78.1464844 C91.0979701,78.1464844 89.3304097,77.4165112 88.0120437,75.956543 C86.6936777,74.4965747 86.0345047,72.5459106 86.0345047,70.1044922 C86.0345047,67.6533081 86.6936777,65.7002026 88.0120437,64.2451172 C89.3304097,62.7900318 91.0979701,62.0625 93.3147781,62.0625 C95.531586,62.0625 97.2991465,62.7900318 98.6175125,64.2451172 C99.9358784,65.7002026 100.595052,67.6533081 100.595052,70.1044922 C100.595052,72.5459106 99.9358784,74.4965747 98.6175125,75.956543 C97.2991465,77.4165112 95.531586,78.1464844 93.3147781,78.1464844 Z M93.3147781,75.8759766 C94.7893948,75.8759766 95.9392857,75.3657278 96.7644851,74.3452148 C97.5896846,73.3247019 98.0022781,71.9111418 98.0022781,70.1044922 C98.0022781,68.2880769 97.5896846,66.8720754 96.7644851,65.8564453 C95.9392857,64.8408152 94.7893948,64.3330078 93.3147781,64.3330078 C91.8401613,64.3330078 90.6902705,64.8432566 89.8650711,65.8637695 C89.0398716,66.8842824 88.6272781,68.2978425 88.6272781,70.1044922 C88.6272781,71.9111418 89.042313,73.3247019 89.8723953,74.3452148 C90.7024776,75.3657278 91.849927,75.8759766 93.3147781,75.8759766 Z M104.72526,78 L107.274088,78 L107.274088,68.2294922 C107.274088,67.1162054 107.584143,66.2177769 108.204264,65.5341797 C108.824384,64.8505825 109.64713,64.5087891 110.672525,64.5087891 C110.985027,64.5087891 111.270669,64.5234374 111.529459,64.5527344 C111.788249,64.5820314 111.96647,64.6162107 112.064127,64.6552734 L112.064127,62.1503906 C111.956705,62.1308593 111.810222,62.1113282 111.624674,62.0917969 C111.439126,62.0722655 111.23405,62.0625 111.009439,62.0625 C110.091466,62.0625 109.283369,62.3066382 108.585123,62.7949219 C107.886877,63.2832056 107.420573,63.9423787 107.186197,64.7724609 L107.127604,64.7724609 L107.127604,62.2089844 L104.72526,62.2089844 L104.72526,78 Z M130.607747,64.3037109 C129.367506,64.3037109 128.339684,64.7138631 127.524251,65.5341797 C126.708817,66.3544963 126.257161,67.4335871 126.16927,68.7714844 L134.855793,68.7714844 C134.826496,67.4335871 134.423668,66.3544963 133.647297,65.5341797 C132.870926,64.7138631 131.857753,64.3037109 130.607747,64.3037109 Z M134.7972,73.4882812 L137.316731,73.4882812 C137.101886,74.8457099 136.379237,75.9614214 135.148762,76.8354492 C133.918287,77.709477 132.458341,78.1464844 130.768879,78.1464844 C128.552071,78.1464844 126.791835,77.4262767 125.488118,75.9858398 C124.1844,74.545403 123.532551,72.6045044 123.532551,70.1630859 C123.532551,67.7119018 124.181959,65.7490308 125.480793,64.2744141 C126.779628,62.7997973 128.503244,62.0625 130.651692,62.0625 C132.761077,62.0625 134.430983,62.7558524 135.661458,64.1425781 C136.891932,65.5293038 137.507161,67.4189333 137.507161,69.8115234 L137.507161,70.8076172 L126.16927,70.8076172 L126.16927,70.9541016 C126.16927,72.4580153 126.59407,73.6591752 127.443684,74.5576172 C128.293298,75.4560592 129.421216,75.9052734 130.827473,75.9052734 C131.813806,75.9052734 132.665848,75.6879905 133.383626,75.253418 C134.101403,74.8188455 134.572589,74.2304725 134.7972,73.4882812 Z M141.637369,78 L144.186197,78 L144.186197,68.8300781 C144.186197,67.4726495 144.554846,66.3837932 145.292154,65.5634766 C146.029462,64.74316 147.047519,64.3330078 148.346353,64.3330078 C149.59636,64.3330078 150.524085,64.6748013 151.129556,65.3583984 C151.735028,66.0419956 152.03776,67.0283139 152.03776,68.3173828 L152.03776,78 L154.586588,78 L154.586588,67.8779297 C154.586588,66.0810457 154.108077,64.6626029 153.151041,63.6225586 C152.194005,62.5825143 150.846362,62.0625 149.108072,62.0625 C147.887363,62.0625 146.871748,62.2895485 146.061197,62.7436523 C145.250646,63.1977562 144.596356,63.8740189 144.098306,64.7724609 L144.039713,64.7724609 L144.039713,62.2089844 L141.637369,62.2089844 L141.637369,78 Z M180.923176,62.2089844 L178.374348,62.2089844 L178.374348,71.3789062 C178.374348,72.7363349 178.005699,73.8251912 177.268391,74.6455078 C176.531083,75.4658244 175.513026,75.8759766 174.214192,75.8759766 C172.973951,75.8759766 172.048667,75.5366245 171.438313,74.8579102 C170.827958,74.1791958 170.522785,73.1904362 170.522785,71.8916016 L170.522785,62.2089844 L167.973957,62.2089844 L167.973957,72.3310547 C167.973957,74.1279387 168.452468,75.5463815 169.409504,76.5864258 C170.36654,77.62647 171.7093,78.1464844 173.437824,78.1464844 C174.648768,78.1464844 175.666824,77.9145531 176.492024,77.4506836 C177.317223,76.9868141 177.973955,76.3007858 178.462239,75.3925781 L178.520832,75.3925781 L178.520832,78 L180.923176,78 L180.923176,62.2089844 Z M185.829751,78 L188.37858,78 L188.37858,68.8300781 C188.37858,67.4726495 188.747228,66.3837932 189.484537,65.5634766 C190.221845,64.74316 191.239901,64.3330078 192.538736,64.3330078 C193.788742,64.3330078 194.716467,64.6748013 195.321939,65.3583984 C195.927411,66.0419956 196.230142,67.0283139 196.230142,68.3173828 L196.230142,78 L198.77897,78 L198.77897,67.8779297 C198.77897,66.0810457 198.300459,64.6626029 197.343423,63.6225586 C196.386387,62.5825143 195.038745,62.0625 193.300455,62.0625 C192.079745,62.0625 191.064131,62.2895485 190.25358,62.7436523 C189.443029,63.1977562 188.788738,63.8740189 188.290689,64.7724609 L188.232095,64.7724609 L188.232095,62.2089844 L185.829751,62.2089844 L185.829751,78 Z M218.53841,64.3037109 C217.29817,64.3037109 216.270348,64.7138631 215.454914,65.5341797 C214.63948,66.3544963 214.187825,67.4335871 214.099934,68.7714844 L222.786457,68.7714844 C222.75716,67.4335871 222.354332,66.3544963 221.577961,65.5341797 C220.80159,64.7138631 219.788416,64.3037109 218.53841,64.3037109 Z M222.727863,73.4882812 L225.247395,73.4882812 C225.03255,74.8457099 224.309901,75.9614214 223.079426,76.8354492 C221.848951,77.709477 220.389005,78.1464844 218.699543,78.1464844 C216.482735,78.1464844 214.722499,77.4262767 213.418781,75.9858398 C212.115064,74.545403 211.463215,72.6045044 211.463215,70.1630859 C211.463215,67.7119018 212.112622,65.7490308 213.411457,64.2744141 C214.710292,62.7997973 216.433907,62.0625 218.582355,62.0625 C220.691741,62.0625 222.361646,62.7558524 223.592121,64.1425781 C224.822596,65.5293038 225.437824,67.4189333 225.437824,69.8115234 L225.437824,70.8076172 L214.099934,70.8076172 L214.099934,70.9541016 C214.099934,72.4580153 214.524734,73.6591752 215.374348,74.5576172 C216.223961,75.4560592 217.35188,75.9052734 218.758137,75.9052734 C219.74447,75.9052734 220.596512,75.6879905 221.314289,75.253418 C222.032066,74.8188455 222.503253,74.2304725 222.727863,73.4882812 Z M229.568033,78 L232.116861,78 L232.116861,68.2001953 C232.116861,67.0966742 232.463537,66.1762732 233.1569,65.4389648 C233.850263,64.7016565 234.724277,64.3330078 235.77897,64.3330078 C236.765303,64.3330078 237.558752,64.6210909 238.159341,65.1972656 C238.75993,65.7734404 239.06022,66.5400343 239.06022,67.4970703 L239.06022,78 L241.609048,78 L241.609048,68.0683594 C241.609048,66.9843696 241.9484,66.0908238 242.627115,65.3876953 C243.305829,64.6845668 244.172519,64.3330078 245.227212,64.3330078 C246.281905,64.3330078 247.099768,64.6381805 247.680825,65.2485352 C248.261883,65.8588898 248.552408,66.710932 248.552408,67.8046875 L248.552408,78 L251.101236,78 L251.101236,67.21875 C251.101236,65.6464765 250.634932,64.3940476 249.70231,63.4614258 C248.769688,62.5288039 247.522142,62.0625 245.959634,62.0625 C244.856113,62.0625 243.864912,62.3261692 242.986001,62.8535156 C242.107091,63.380862 241.443035,64.1132766 240.993814,65.0507812 L240.93522,65.0507812 C240.593421,64.0937452 240.039228,63.3564479 239.272622,62.8388672 C238.506017,62.3212865 237.585616,62.0625 236.511392,62.0625 C235.485996,62.0625 234.575361,62.3041968 233.779458,62.7875977 C232.983556,63.2709985 232.400066,63.932613 232.02897,64.7724609 L231.970376,64.7724609 L231.970376,62.2089844 L229.568033,62.2089844 L229.568033,78 Z M263.52246,62.0625 C265.534188,62.0625 267.165031,62.7997973 268.415038,64.2744141 C269.665044,65.7490308 270.290038,67.6923708 270.290038,70.1044922 C270.290038,72.5166136 269.669927,74.4599536 268.429686,75.9345703 C267.189445,77.4091871 265.573251,78.1464844 263.581053,78.1464844 C262.458001,78.1464844 261.461917,77.9096703 260.592772,77.4360352 C259.723627,76.9624 259.04004,76.2959027 258.541991,75.4365234 L258.483397,75.4365234 L258.483397,83.2734375 L255.934569,83.2734375 L255.934569,62.2089844 L258.351561,62.2089844 L258.351561,64.7724609 L258.410155,64.7724609 C258.869141,63.9521443 259.562494,63.2954126 260.490233,62.8022461 C261.417972,62.3090796 262.428704,62.0625 263.52246,62.0625 Z M263.05371,75.8759766 C264.450201,75.8759766 265.570795,75.3510795 266.415526,74.3012695 C267.260257,73.2514596 267.682616,71.8525478 267.682616,70.1044922 C267.682616,68.3564366 267.260257,66.9575248 266.415526,65.9077148 C265.570795,64.8579049 264.450201,64.3330078 263.05371,64.3330078 C261.696281,64.3330078 260.592776,64.8652291 259.743163,65.9296875 C258.893549,66.9941459 258.468749,68.3857336 258.468749,70.1044922 C258.468749,71.8232508 258.893549,73.2148384 259.743163,74.2792969 C260.592776,75.3437553 261.696281,75.8759766 263.05371,75.8759766 Z M274.420246,78 L276.969074,78 L276.969074,68.2294922 C276.969074,67.1162054 277.27913,66.2177769 277.89925,65.5341797 C278.51937,64.8505825 279.342116,64.5087891 280.367512,64.5087891 C280.680013,64.5087891 280.965655,64.5234374 281.224445,64.5527344 C281.483235,64.5820314 281.661456,64.6162107 281.759113,64.6552734 L281.759113,62.1503906 C281.651691,62.1308593 281.505208,62.1113282 281.31966,62.0917969 C281.134112,62.0722655 280.929036,62.0625 280.704426,62.0625 C279.786452,62.0625 278.978355,62.3066382 278.280109,62.7949219 C277.581863,63.2832056 277.11556,63.9423787 276.881183,64.7724609 L276.82259,64.7724609 L276.82259,62.2089844 L274.420246,62.2089844 L274.420246,78 Z M290.943032,64.3037109 C289.702792,64.3037109 288.67497,64.7138631 287.859536,65.5341797 C287.044102,66.3544963 286.592447,67.4335871 286.504556,68.7714844 L295.191079,68.7714844 C295.161782,67.4335871 294.758954,66.3544963 293.982583,65.5341797 C293.206212,64.7138631 292.193039,64.3037109 290.943032,64.3037109 Z M295.132485,73.4882812 L297.652017,73.4882812 C297.437172,74.8457099 296.714523,75.9614214 295.484048,76.8354492 C294.253573,77.709477 292.793627,78.1464844 291.104165,78.1464844 C288.887357,78.1464844 287.127121,77.4262767 285.823403,75.9858398 C284.519686,74.545403 283.867837,72.6045044 283.867837,70.1630859 C283.867837,67.7119018 284.517245,65.7490308 285.816079,64.2744141 C287.114914,62.7997973 288.838529,62.0625 290.986978,62.0625 C293.096363,62.0625 294.766268,62.7558524 295.996743,64.1425781 C297.227218,65.5293038 297.842446,67.4189333 297.842446,69.8115234 L297.842446,70.8076172 L286.504556,70.8076172 L286.504556,70.9541016 C286.504556,72.4580153 286.929356,73.6591752 287.77897,74.5576172 C288.628583,75.4560592 289.756502,75.9052734 291.162759,75.9052734 C292.149092,75.9052734 293.001134,75.6879905 293.718911,75.253418 C294.436688,74.8188455 294.907875,74.2304725 295.132485,73.4882812 Z M301.972655,78 L304.521483,78 L304.521483,68.8300781 C304.521483,67.4726495 304.890131,66.3837932 305.62744,65.5634766 C306.364748,64.74316 307.382804,64.3330078 308.681639,64.3330078 C309.931645,64.3330078 310.85937,64.6748013 311.464842,65.3583984 C312.070314,66.0419956 312.373045,67.0283139 312.373045,68.3173828 L312.373045,78 L314.921873,78 L314.921873,67.8779297 C314.921873,66.0810457 314.443362,64.6626029 313.486326,63.6225586 C312.52929,62.5825143 311.181648,62.0625 309.443358,62.0625 C308.222648,62.0625 307.207034,62.2895485 306.396483,62.7436523 C305.585932,63.1977562 304.931641,63.8740189 304.433592,64.7724609 L304.374998,64.7724609 L304.374998,62.2089844 L301.972655,62.2089844 L301.972655,78 Z M325.746418,78.1464844 C323.763986,78.1464844 322.140467,77.4091871 320.875812,75.9345703 C319.611157,74.4599536 318.978839,72.5166136 318.978839,70.1044922 C318.978839,67.6923708 319.606275,65.7490308 320.861164,64.2744141 C322.116053,62.7997973 323.724923,62.0625 325.687824,62.0625 C326.820642,62.0625 327.82405,62.2968727 328.698078,62.765625 C329.572105,63.2343773 330.248368,63.903316 330.726886,64.7724609 L330.78548,64.7724609 L330.78548,55.9394531 L333.334308,55.9394531 L333.334308,78 L330.902668,78 L330.902668,75.3339844 L330.858722,75.3339844 C330.350907,76.242192 329.657555,76.9379859 328.778644,77.4213867 C327.899733,77.9047876 326.889001,78.1464844 325.746418,78.1464844 Z M326.200519,64.3330078 C324.813793,64.3330078 323.698082,64.8579049 322.853351,65.9077148 C322.00862,66.9575248 321.586261,68.3564366 321.586261,70.1044922 C321.586261,71.8525478 322.00862,73.2514596 322.853351,74.3012695 C323.698082,75.3510795 324.813793,75.8759766 326.200519,75.8759766 C327.567713,75.8759766 328.676101,75.3437553 329.525714,74.2792969 C330.375328,73.2148384 330.800128,71.8232508 330.800128,70.1044922 C330.800128,68.3857336 330.375328,66.9941459 329.525714,65.9296875 C328.676101,64.8652291 327.567713,64.3330078 326.200519,64.3330078 Z M338.533852,78 L341.08268,78 L341.08268,62.2089844 L338.533852,62.2089844 L338.533852,78 Z M339.808266,59.6601562 C340.257487,59.6601562 340.638343,59.5014664 340.950845,59.184082 C341.263346,58.8666976 341.419595,58.4882834 341.419595,58.0488281 C341.419595,57.5996071 341.263346,57.2187516 340.950845,56.90625 C340.638343,56.5937484 340.257487,56.4375 339.808266,56.4375 C339.368811,56.4375 338.990397,56.5937484 338.673012,56.90625 C338.355628,57.2187516 338.196938,57.5996071 338.196938,58.0488281 C338.196938,58.4882834 338.355628,58.8666976 338.673012,59.184082 C338.990397,59.5014664 339.368811,59.6601562 339.808266,59.6601562 Z M346.13574,78 L348.684568,78 L348.684568,68.2001953 C348.684568,67.0966742 349.031245,66.1762732 349.724607,65.4389648 C350.41797,64.7016565 351.291985,64.3330078 352.346678,64.3330078 C353.333011,64.3330078 354.12646,64.6210909 354.727049,65.1972656 C355.327638,65.7734404 355.627928,66.5400343 355.627928,67.4970703 L355.627928,78 L358.176756,78 L358.176756,68.0683594 C358.176756,66.9843696 358.516108,66.0908238 359.194822,65.3876953 C359.873537,64.6845668 360.740227,64.3330078 361.79492,64.3330078 C362.849613,64.3330078 363.667476,64.6381805 364.248533,65.2485352 C364.829591,65.8588898 365.120115,66.710932 365.120115,67.8046875 L365.120115,78 L367.668943,78 L367.668943,67.21875 C367.668943,65.6464765 367.202639,64.3940476 366.270018,63.4614258 C365.337396,62.5288039 364.08985,62.0625 362.527342,62.0625 C361.423821,62.0625 360.43262,62.3261692 359.553709,62.8535156 C358.674798,63.380862 358.010743,64.1132766 357.561522,65.0507812 L357.502928,65.0507812 C357.161129,64.0937452 356.606936,63.3564479 355.84033,62.8388672 C355.073725,62.3212865 354.153324,62.0625 353.0791,62.0625 C352.053704,62.0625 351.143068,62.3041968 350.347166,62.7875977 C349.551264,63.2709985 348.967773,63.932613 348.596678,64.7724609 L348.538084,64.7724609 L348.538084,62.2089844 L346.13574,62.2089844 L346.13574,78 Z M372.648761,78 L375.197589,78 L375.197589,62.2089844 L372.648761,62.2089844 L372.648761,78 Z M373.923175,59.6601562 C374.372396,59.6601562 374.753252,59.5014664 375.065753,59.184082 C375.378255,58.8666976 375.534503,58.4882834 375.534503,58.0488281 C375.534503,57.5996071 375.378255,57.2187516 375.065753,56.90625 C374.753252,56.5937484 374.372396,56.4375 373.923175,56.4375 C373.48372,56.4375 373.105306,56.5937484 372.787921,56.90625 C372.470537,57.2187516 372.311847,57.5996071 372.311847,58.0488281 C372.311847,58.4882834 372.470537,58.8666976 372.787921,59.184082 C373.105306,59.5014664 373.48372,59.6601562 373.923175,59.6601562 Z M386.549477,64.3037109 C385.309237,64.3037109 384.281415,64.7138631 383.465981,65.5341797 C382.650547,66.3544963 382.198892,67.4335871 382.111001,68.7714844 L390.797524,68.7714844 C390.768227,67.4335871 390.365399,66.3544963 389.589028,65.5341797 C388.812657,64.7138631 387.799483,64.3037109 386.549477,64.3037109 Z M390.73893,73.4882812 L393.258461,73.4882812 C393.043617,74.8457099 392.320968,75.9614214 391.090493,76.8354492 C389.860018,77.709477 388.400071,78.1464844 386.71061,78.1464844 C384.493802,78.1464844 382.733566,77.4262767 381.429848,75.9858398 C380.126131,74.545403 379.474282,72.6045044 379.474282,70.1630859 C379.474282,67.7119018 380.123689,65.7490308 381.422524,64.2744141 C382.721359,62.7997973 384.444974,62.0625 386.593422,62.0625 C388.702808,62.0625 390.372713,62.7558524 391.603188,64.1425781 C392.833663,65.5293038 393.448891,67.4189333 393.448891,69.8115234 L393.448891,70.8076172 L382.111001,70.8076172 L382.111001,70.9541016 C382.111001,72.4580153 382.535801,73.6591752 383.385415,74.5576172 C384.235028,75.4560592 385.362947,75.9052734 386.769204,75.9052734 C387.755537,75.9052734 388.607579,75.6879905 389.325356,75.253418 C390.043133,74.8188455 390.51432,74.2304725 390.73893,73.4882812 Z M397.579099,78 L400.127928,78 L400.127928,68.8300781 C400.127928,67.4726495 400.496576,66.3837932 401.233885,65.5634766 C401.971193,64.74316 402.989249,64.3330078 404.288084,64.3330078 C405.53809,64.3330078 406.465815,64.6748013 407.071287,65.3583984 C407.676759,66.0419956 407.97949,67.0283139 407.97949,68.3173828 L407.97949,78 L410.528318,78 L410.528318,67.8779297 C410.528318,66.0810457 410.049807,64.6626029 409.092771,63.6225586 C408.135735,62.5825143 406.788092,62.0625 405.049803,62.0625 C403.829093,62.0625 402.813478,62.2895485 402.002928,62.7436523 C401.192377,63.1977562 400.538086,63.8740189 400.040037,64.7724609 L399.981443,64.7724609 L399.981443,62.2089844 L397.579099,62.2089844 L397.579099,78 Z M416.196612,58.6494141 L416.196612,62.2089844 L413.999347,62.2089844 L413.999347,64.3183594 L416.196612,64.3183594 L416.196612,73.8984375 C416.196612,75.4121169 416.501785,76.4936491 417.11214,77.1430664 C417.722494,77.7924837 418.740551,78.1171875 420.166339,78.1171875 C420.469075,78.1171875 420.77913,78.1049806 421.096515,78.0805664 C421.413899,78.0561522 421.650713,78.0244143 421.806964,77.9853516 L421.806964,75.8320312 C421.719073,75.8417969 421.553059,75.8564452 421.308917,75.8759766 C421.064775,75.8955079 420.864582,75.9052734 420.708331,75.9052734 C420.0345,75.9052734 419.538899,75.7343767 419.221515,75.3925781 C418.90413,75.0507795 418.74544,74.5185583 418.74544,73.7958984 L418.74544,64.3183594 L421.821612,64.3183594 L421.821612,62.2089844 L418.74544,62.2089844 L418.74544,58.6494141 L416.196612,58.6494141 Z M432.162758,78.1464844 C429.94595,78.1464844 428.17839,77.4165112 426.860024,75.956543 C425.541658,74.4965747 424.882485,72.5459106 424.882485,70.1044922 C424.882485,67.6533081 425.541658,65.7002026 426.860024,64.2451172 C428.17839,62.7900318 429.94595,62.0625 432.162758,62.0625 C434.379566,62.0625 436.147127,62.7900318 437.465492,64.2451172 C438.783858,65.7002026 439.443032,67.6533081 439.443032,70.1044922 C439.443032,72.5459106 438.783858,74.4965747 437.465492,75.956543 C436.147127,77.4165112 434.379566,78.1464844 432.162758,78.1464844 Z M432.162758,75.8759766 C433.637375,75.8759766 434.787266,75.3657278 435.612465,74.3452148 C436.437665,73.3247019 436.850258,71.9111418 436.850258,70.1044922 C436.850258,68.2880769 436.437665,66.8720754 435.612465,65.8564453 C434.787266,64.8408152 433.637375,64.3330078 432.162758,64.3330078 C430.688141,64.3330078 429.538251,64.8432566 428.713051,65.8637695 C427.887852,66.8842824 427.475258,68.2978425 427.475258,70.1044922 C427.475258,71.9111418 427.890293,73.3247019 428.720375,74.3452148 C429.550458,75.3657278 430.697907,75.8759766 432.162758,75.8759766 Z" id="de-valor-en-un-empre"></path>
                            <path d="M75.453125,31 L78.8515625,31 L78.8515625,2.81640625 L75.4140625,2.81640625 L74.28125,3.62695312 C73.5260379,4.16732041 72.6536508,4.79556934 71.6640625,5.51171875 C70.6744742,6.22786816 69.8020871,6.85611709 69.046875,7.39648438 L67.9140625,8.20703125 L67.9140625,11.9179688 L69.0371094,11.1074219 C69.785811,10.5670546 70.654943,9.94206084 71.6445312,9.23242188 C72.6341195,8.52278291 73.5032515,7.89778916 74.2519531,7.35742188 L75.375,6.546875 L75.453125,6.546875 L75.453125,31 Z M97.1319443,31.46875 C100.074667,31.46875 102.483497,30.5703215 104.358507,28.7734375 C106.233516,26.9765535 107.171007,24.6653787 107.171007,21.8398438 C107.171007,19.1054551 106.295365,16.8496183 104.544054,15.0722656 C102.792743,13.294913 100.562947,12.40625 97.8546005,12.40625 C96.513448,12.40625 95.2862467,12.647133 94.1729599,13.1289062 C93.0596731,13.6106795 92.1840308,14.2747354 91.5460068,15.1210938 L91.4678818,15.1210938 L92.3272568,5.94140625 L105.569444,5.94140625 L105.569444,2.81640625 L89.4366318,2.81640625 L87.893663,18.5976562 L91.1944443,18.5976562 C92.4314297,16.4882707 94.4431283,15.4335938 97.2296005,15.4335938 C99.1046099,15.4335938 100.644308,16.0423116 101.848741,17.2597656 C103.053174,18.4772196 103.655382,20.0364488 103.655382,21.9375 C103.655382,23.8255303 103.053174,25.3717388 101.848741,26.5761719 C100.644308,27.780605 99.0850789,28.3828125 97.1710068,28.3828125 C95.47829,28.3828125 94.052523,27.910812 92.893663,26.9667969 C91.7348031,26.0227817 91.0772576,24.8020908 90.9210068,23.3046875 L87.4639755,23.3046875 C87.6072054,25.7005328 88.580503,27.6601486 90.3838974,29.1835938 C92.1872919,30.7070389 94.4366183,31.46875 97.1319443,31.46875 Z M122.150607,31.46875 C118.85632,31.46875 116.301007,30.153659 114.484592,27.5234375 C112.668176,24.893216 111.759982,21.3515848 111.759982,16.8984375 C111.759982,12.4843529 112.674687,8.95574238 114.504123,6.3125 C116.333559,3.66925762 118.882362,2.34765625 122.150607,2.34765625 C125.418853,2.34765625 127.961145,3.66274727 129.77756,6.29296875 C131.593976,8.92319023 132.50217,12.4518008 132.50217,16.8789062 C132.50217,21.3320535 131.597231,24.8769399 129.787326,27.5136719 C127.977421,30.1504038 125.431874,31.46875 122.150607,31.46875 Z M122.150607,28.4023438 C124.351139,28.4023438 126.03732,27.3639427 127.209201,25.2871094 C128.381082,23.2102761 128.967014,20.4140801 128.967014,16.8984375 C128.967014,13.4348785 128.374572,10.6582136 127.18967,8.56835938 C126.004768,6.47850518 124.325097,5.43359375 122.150607,5.43359375 C119.976117,5.43359375 118.289936,6.48176035 117.092014,8.578125 C115.894091,10.6744896 115.295139,13.4413891 115.295139,16.8789062 C115.295139,20.3945488 115.887581,23.194 117.072482,25.2773438 C118.257384,27.3606875 119.950076,28.4023438 122.150607,28.4023438 Z M145.391927,22.9335938 L150.489583,31 L154.278645,31 L147.247395,20.3359375 L154.376302,9.9453125 L150.587239,9.9453125 L145.509114,17.8945312 L145.430989,17.8945312 L140.29427,9.9453125 L136.505208,9.9453125 L143.595052,20.4726562 L136.38802,31 L140.177083,31 L145.313802,22.9335938 L145.391927,22.9335938 Z M177.812065,31.1953125 C175.168823,31.1953125 173.004131,30.2122494 171.317925,28.2460938 C169.631718,26.2799381 168.788628,23.6888182 168.788628,20.4726562 C168.788628,17.2564943 169.625208,14.6653744 171.298393,12.6992188 C172.971579,10.7330631 175.11674,9.75 177.73394,9.75 C179.244364,9.75 180.582242,10.0624969 181.747612,10.6875 C182.912983,11.3125031 183.814666,12.2044213 184.45269,13.3632812 L184.530815,13.3632812 L184.530815,1.5859375 L187.929253,1.5859375 L187.929253,31 L184.687065,31 L184.687065,27.4453125 L184.628471,27.4453125 C183.951385,28.6562561 183.026915,29.5839812 181.855034,30.2285156 C180.683153,30.8730501 179.33551,31.1953125 177.812065,31.1953125 Z M178.417534,12.7773438 C176.568566,12.7773438 175.080951,13.4772065 173.954643,14.8769531 C172.828336,16.2766997 172.26519,18.1419154 172.26519,20.4726562 C172.26519,22.8033971 172.828336,24.6686128 173.954643,26.0683594 C175.080951,27.468106 176.568566,28.1679688 178.417534,28.1679688 C180.24046,28.1679688 181.71831,27.4583404 182.851128,26.0390625 C183.983946,24.6197846 184.550346,22.7643344 184.550346,20.4726562 C184.550346,18.1809781 183.983946,16.3255279 182.851128,14.90625 C181.71831,13.4869721 180.24046,12.7773438 178.417534,12.7773438 Z M202.576822,12.7382812 C200.923168,12.7382812 199.552739,13.2851508 198.465494,14.3789062 C197.378249,15.4726617 196.776041,16.9114494 196.658853,18.6953125 L208.240885,18.6953125 C208.201822,16.9114494 207.664718,15.4726617 206.629556,14.3789062 C205.594395,13.2851508 204.243497,12.7382812 202.576822,12.7382812 Z M208.16276,24.984375 L211.522135,24.984375 C211.235675,26.7942799 210.272143,28.2818952 208.63151,29.4472656 C206.990876,30.612636 205.044281,31.1953125 202.791666,31.1953125 C199.835922,31.1953125 197.48894,30.2350356 195.75065,28.3144531 C194.01236,26.3938706 193.143228,23.8060059 193.143228,20.5507812 C193.143228,17.2825357 194.009105,14.6653744 195.740885,12.6992188 C197.472664,10.7330631 199.770818,9.75 202.635416,9.75 C205.44793,9.75 207.67447,10.6744699 209.315103,12.5234375 C210.955736,14.3724051 211.776041,16.8919111 211.776041,20.0820312 L211.776041,21.4101562 L196.658853,21.4101562 L196.658853,21.6054688 C196.658853,23.6106871 197.225254,25.2122336 198.358072,26.4101562 C199.49089,27.6080789 200.994781,28.2070312 202.869791,28.2070312 C204.184902,28.2070312 205.320958,27.9173206 206.277994,27.3378906 C207.23503,26.7584606 207.863279,25.9739633 208.16276,24.984375 Z M236.325086,27.9726562 C238.174053,27.9726562 239.668179,27.2727935 240.807508,25.8730469 C241.946836,24.4733003 242.516492,22.6471467 242.516492,20.3945312 C242.516492,18.1288949 241.946836,16.2929758 240.807508,14.8867188 C239.668179,13.4804617 238.174053,12.7773438 236.325086,12.7773438 C234.489139,12.7773438 233.0178,13.4706962 231.911023,14.8574219 C230.804247,16.2441476 230.250867,18.0898322 230.250867,20.3945312 C230.250867,22.6862094 230.804247,24.5221285 231.911023,25.9023438 C233.0178,27.282559 234.489139,27.9726562 236.325086,27.9726562 Z M236.442273,38.9296875 C234.163616,38.9296875 232.19749,38.347011 230.543836,37.1816406 C228.890182,36.0162702 227.913629,34.5416756 227.614148,32.7578125 L231.129773,32.7578125 C231.468316,33.7343799 232.132372,34.5188772 233.121961,35.1113281 C234.111549,35.703779 235.270391,36 236.598523,36 C238.43447,36 239.879768,35.5117236 240.934461,34.5351562 C241.989153,33.5585889 242.516492,32.2760496 242.516492,30.6875 L242.516492,27.3867188 L242.438367,27.3867188 C241.774301,28.5325578 240.849831,29.4212208 239.664929,30.0527344 C238.480028,30.6842479 237.151916,31 235.680554,31 C233.01127,31 230.859599,30.0267024 229.225476,28.0800781 C227.591354,26.1334538 226.774304,23.5716305 226.774304,20.3945312 C226.774304,17.1783693 227.594609,14.6002701 229.235242,12.6601562 C230.875875,10.7200424 233.050333,9.75 235.758679,9.75 C237.243062,9.75 238.580939,10.0624969 239.772351,10.6875 C240.963763,11.3125031 241.91102,12.2044213 242.614148,13.3632812 L242.672742,13.3632812 L242.672742,9.9453125 L245.914929,9.9453125 L245.914929,30.5703125 C245.914929,33.0833459 245.058818,35.1048101 243.34657,36.6347656 C241.634322,38.1647212 239.332913,38.9296875 236.442273,38.9296875 Z M260.367186,12.7382812 C258.713532,12.7382812 257.343103,13.2851508 256.255858,14.3789062 C255.168613,15.4726617 254.566406,16.9114494 254.449217,18.6953125 L266.031249,18.6953125 C265.992186,16.9114494 265.455082,15.4726617 264.419921,14.3789062 C263.384759,13.2851508 262.033861,12.7382812 260.367186,12.7382812 Z M265.953124,24.984375 L269.312499,24.984375 C269.026039,26.7942799 268.062507,28.2818952 266.421874,29.4472656 C264.78124,30.612636 262.834645,31.1953125 260.58203,31.1953125 C257.626286,31.1953125 255.279304,30.2350356 253.541014,28.3144531 C251.802724,26.3938706 250.933592,23.8060059 250.933592,20.5507812 C250.933592,17.2825357 251.799469,14.6653744 253.531249,12.6992188 C255.263028,10.7330631 257.561182,9.75 260.42578,9.75 C263.238294,9.75 265.464834,10.6744699 267.105467,12.5234375 C268.746101,14.3724051 269.566405,16.8919111 269.566405,20.0820312 L269.566405,21.4101562 L254.449217,21.4101562 L254.449217,21.6054688 C254.449217,23.6106871 255.015618,25.2122336 256.148436,26.4101562 C257.281254,27.6080789 258.785146,28.2070312 260.660155,28.2070312 C261.975266,28.2070312 263.111322,27.9173206 264.068358,27.3378906 C265.025394,26.7584606 265.653643,25.9739633 265.953124,24.984375 Z M274.585068,31 L277.983505,31 L277.983505,18.7734375 C277.983505,16.9635326 278.475037,15.5117242 279.458115,14.4179688 C280.441193,13.3242133 281.798601,12.7773438 283.53038,12.7773438 C285.197055,12.7773438 286.434022,13.2330684 287.241318,14.1445312 C288.048614,15.0559941 288.452255,16.3710852 288.452255,18.0898438 L288.452255,31 L291.850693,31 L291.850693,17.5039062 C291.850693,15.1080609 291.212679,13.2168038 289.93663,11.8300781 C288.660582,10.4433524 286.863725,9.75 284.546005,9.75 C282.918393,9.75 281.56424,10.0527313 280.483505,10.6582031 C279.402771,11.2636749 278.530384,12.1653586 277.866318,13.3632812 L277.788193,13.3632812 L277.788193,9.9453125 L274.585068,9.9453125 L274.585068,31 Z M306.205294,12.7382812 C304.551639,12.7382812 303.18121,13.2851508 302.093965,14.3789062 C301.00672,15.4726617 300.404513,16.9114494 300.287325,18.6953125 L311.869356,18.6953125 C311.830293,16.9114494 311.293189,15.4726617 310.258028,14.3789062 C309.222866,13.2851508 307.871969,12.7382812 306.205294,12.7382812 Z M311.791231,24.984375 L315.150606,24.984375 C314.864146,26.7942799 313.900614,28.2818952 312.259981,29.4472656 C310.619348,30.612636 308.672753,31.1953125 306.420137,31.1953125 C303.464393,31.1953125 301.117412,30.2350356 299.379122,28.3144531 C297.640832,26.3938706 296.7717,23.8060059 296.7717,20.5507812 C296.7717,17.2825357 297.637577,14.6653744 299.369356,12.6992188 C301.101136,10.7330631 303.39929,9.75 306.263887,9.75 C309.076401,9.75 311.302942,10.6744699 312.943575,12.5234375 C314.584208,14.3724051 315.404512,16.8919111 315.404512,20.0820312 L315.404512,21.4101562 L300.287325,21.4101562 L300.287325,21.6054688 C300.287325,23.6106871 300.853725,25.2122336 301.986544,26.4101562 C303.119362,27.6080789 304.623253,28.2070312 306.498262,28.2070312 C307.813373,28.2070312 308.949429,27.9173206 309.906465,27.3378906 C310.863501,26.7584606 311.49175,25.9739633 311.791231,24.984375 Z M320.423175,31 L323.821613,31 L323.821613,17.9726562 C323.821613,16.4882738 324.23502,15.2903691 325.061847,14.3789062 C325.888674,13.4674434 326.985668,13.0117188 328.352863,13.0117188 C328.769532,13.0117188 329.150387,13.0312498 329.495441,13.0703125 C329.840495,13.1093752 330.078123,13.1549477 330.208332,13.2070312 L330.208332,9.8671875 C330.065102,9.8411457 329.869791,9.8151043 329.622394,9.7890625 C329.374997,9.7630207 329.101562,9.75 328.802082,9.75 C327.578117,9.75 326.500654,10.0755176 325.56966,10.7265625 C324.638665,11.3776074 324.016927,12.2565049 323.704425,13.3632812 L323.6263,13.3632812 L323.6263,9.9453125 L320.423175,9.9453125 L320.423175,31 Z M341.027776,28.2460938 C342.746534,28.2460938 344.169046,27.7480519 345.295354,26.7519531 C346.421662,25.7558544 346.984807,24.5026117 346.984807,22.9921875 L346.984807,21.2929688 L341.476995,21.6445312 C338.273854,21.8398447 336.672307,22.9661355 336.672307,25.0234375 C336.672307,26.0000049 337.066183,26.7812471 337.853948,27.3671875 C338.641712,27.9531279 339.699644,28.2460938 341.027776,28.2460938 Z M340.30512,31.1953125 C338.169692,31.1953125 336.450959,30.6289119 335.14887,29.4960938 C333.84678,28.3632756 333.195745,26.8658947 333.195745,25.0039062 C333.195745,21.2929502 335.825927,19.2747412 341.08637,18.9492188 L346.984807,18.5976562 L346.984807,16.8398438 C346.984807,15.524733 346.568145,14.5188837 345.734807,13.8222656 C344.90147,13.1256476 343.710075,12.7773438 342.160588,12.7773438 C340.936624,12.7773438 339.904733,13.0670544 339.064885,13.6464844 C338.225037,14.2259144 337.700954,15.0169221 337.49262,16.0195312 L334.230901,16.0195312 C334.282984,14.2356682 335.073992,12.7447977 336.603948,11.546875 C338.133903,10.3489523 339.999119,9.75 342.199651,9.75 C344.686642,9.75 346.6723,10.3652282 348.156682,11.5957031 C349.641065,12.826178 350.383245,14.4765521 350.383245,16.546875 L350.383245,31 L347.160588,31 L347.160588,27.3476562 L347.082463,27.3476562 C346.483502,28.5195371 345.572053,29.4537726 344.348088,30.1503906 C343.124124,30.8470087 341.776481,31.1953125 340.30512,31.1953125 Z M373.741751,16.8007812 C373.533417,14.9518137 372.66103,13.3144603 371.124564,11.8886719 C369.588098,10.4628835 367.517806,9.75 364.913626,9.75 C362.036008,9.75 359.715068,10.7298079 357.950736,12.6894531 C356.186404,14.6490983 355.304251,17.2434734 355.304251,20.4726562 C355.304251,23.7799645 356.189659,26.3938706 357.960501,28.3144531 C359.731344,30.2350356 362.062049,31.1953125 364.952689,31.1953125 C367.361555,31.1953125 369.363488,30.5507877 370.958548,29.2617188 C372.553608,27.9726498 373.494354,26.3059998 373.780814,24.2617188 L370.44097,24.2617188 C370.15451,25.5247459 369.539282,26.4915331 368.595267,27.1621094 C367.651252,27.8326856 366.443582,28.1679688 364.97222,28.1679688 C363.136274,28.1679688 361.642148,27.4843818 360.489798,26.1171875 C359.337449,24.7499932 358.761283,22.8685016 358.761283,20.4726562 C358.761283,18.1419154 359.330938,16.2766997 360.470267,14.8769531 C361.609596,13.4772065 363.097211,12.7773438 364.933158,12.7773438 C366.521707,12.7773438 367.778205,13.1679648 368.702689,13.9492188 C369.627173,14.7304727 370.193573,15.680984 370.401908,16.8007812 L373.741751,16.8007812 Z M378.682289,31 L382.080727,31 L382.080727,9.9453125 L378.682289,9.9453125 L378.682289,31 Z M380.381508,6.546875 C380.98047,6.546875 381.488277,6.33528857 381.904946,5.91210938 C382.321614,5.48893018 382.529946,4.98437793 382.529946,4.3984375 C382.529946,3.79947617 382.321614,3.29166875 381.904946,2.875 C381.488277,2.45833125 380.98047,2.25 380.381508,2.25 C379.795568,2.25 379.291016,2.45833125 378.867836,2.875 C378.444657,3.29166875 378.233071,3.79947617 378.233071,4.3984375 C378.233071,4.98437793 378.444657,5.48893018 378.867836,5.91210938 C379.291016,6.33528857 379.795568,6.546875 380.381508,6.546875 Z M397.001734,31.1953125 C394.04599,31.1953125 391.689243,30.2220149 389.931421,28.2753906 C388.1736,26.3287663 387.294703,23.7278809 387.294703,20.4726562 C387.294703,17.2044107 388.1736,14.6002701 389.931421,12.6601562 C391.689243,10.7200424 394.04599,9.75 397.001734,9.75 C399.957478,9.75 402.314225,10.7200424 404.072046,12.6601562 C405.829868,14.6002701 406.708765,17.2044107 406.708765,20.4726562 C406.708765,23.7278809 405.829868,26.3287663 404.072046,28.2753906 C402.314225,30.2220149 399.957478,31.1953125 397.001734,31.1953125 Z M397.001734,28.1679688 C398.967889,28.1679688 400.501077,27.487637 401.601343,26.1269531 C402.701609,24.7662692 403.251734,22.8815225 403.251734,20.4726562 C403.251734,18.0507691 402.701609,16.1627672 401.601343,14.8085938 C400.501077,13.4544203 398.967889,12.7773438 397.001734,12.7773438 C395.035578,12.7773438 393.50239,13.4576755 392.402124,14.8183594 C391.301858,16.1790433 390.751734,18.06379 390.751734,20.4726562 C390.751734,22.8815225 391.305114,24.7662692 392.41189,26.1269531 C393.518666,27.487637 395.048599,28.1679688 397.001734,28.1679688 Z M398.447046,6.5859375 L403.544703,0.7265625 L399.677515,0.7265625 L395.556421,6.5859375 L398.447046,6.5859375 Z M411.727428,31 L415.125866,31 L415.125866,18.7734375 C415.125866,16.9635326 415.617397,15.5117242 416.600475,14.4179688 C417.583553,13.3242133 418.940961,12.7773438 420.672741,12.7773438 C422.339416,12.7773438 423.576382,13.2330684 424.383678,14.1445312 C425.190974,15.0559941 425.594616,16.3710852 425.594616,18.0898438 L425.594616,31 L428.993053,31 L428.993053,17.5039062 C428.993053,15.1080609 428.355039,13.2168038 427.078991,11.8300781 C425.802943,10.4433524 424.006086,9.75 421.688366,9.75 C420.060753,9.75 418.7066,10.0527313 417.625866,10.6582031 C416.545131,11.2636749 415.672744,12.1653586 415.008678,13.3632812 L414.930553,13.3632812 L414.930553,9.9453125 L411.727428,9.9453125 L411.727428,31 Z" id="150x-de-generacin"></path>
                        </g>
                        <path d="M36.8244125,12.3459621 L36.8244125,6.08654267 C36.8244125,2.73539903 34.0967934,0 30.7321048,0 C27.3742626,0 24.6397971,2.72503797 24.6397971,6.08654267 L24.6397971,12.3459621 L19.0865427,12.3459621 C15.735399,12.3459621 13,15.0735812 13,18.4382698 C13,21.796112 15.725038,24.5305775 19.0865427,24.5305775 L24.6397971,24.5305775 L24.6397971,29.9134573 C24.6397971,33.264601 27.3674162,36 30.7321048,36 C34.089947,36 36.8244125,33.274962 36.8244125,29.9134573 L36.8244125,24.5305775 L42.9134573,24.5305775 C46.264601,24.5305775 49,21.8029585 49,18.4382698 C49,15.0804277 46.274962,12.3459621 42.9134573,12.3459621 L36.8244125,12.3459621 Z" id="Combined-Shape-Copy-6" fill="#EA4A73"></path>
                    </g>
                    <path d="M230,386 C230,386 230,483.566551 230,543.956365 C230,553.393868 239.630587,572.492875 255.134608,572.492875 C257.201798,572.492875 375.740066,573.990261 378.63454,572.492875" id="Line" stroke="#D6D6D6" stroke-width="5" stroke-linecap="square" stroke-dasharray="1,1,12"></path>
                    <path d="M680.5,647.5 L680.5,911.653365" id="Line-Copy-2" stroke="#D6D6D6" stroke-width="5" stroke-linecap="square" stroke-dasharray="1,1,12"></path>
                    <path d="M465,142.322188 C465,159.469795 465,174.882137 465,177.216775 C465,179.551412 467.54998,194.272837 452.565118,194.272837 C436.390181,194.272837 410.244591,194.272837 424.33362,194.272837 C425.743378,194.272837 281.324422,194.272837 254.89559,194.272837 C230.5,194.272837 231.15121,203.258887 230.5,219.895489 C230.48054,220.392634 230.5,251.579598 230.5,251.579598" id="Line-Copy" stroke="#D6D6D6" stroke-width="5" stroke-linecap="square" stroke-dasharray="1,1,12"></path>
                    <g id="Group-4" opacity="0.812103714" transform="translate(383.000000, 0.000000)" stroke-width="1.8" stroke="#FFFFFF">
                        <polygon id="Shape" points="62.7853558 4.4408921e-16 0 4.4408921e-16 62.7853558 22.3286746"></polygon>
                        <polygon id="Shape" points="111.612414 4.4408921e-16 174.821017 4.4408921e-16 111.612414 22.3286746"></polygon>
                        <path d="M38.3493274,62.7223938 L38.3493274,0 L63.0112596,0 L63.0112596,62.0987417 C63.0112596,79.9735604 72.140271,89.2272104 87.1955389,89.2272104 C102.250807,89.2272104 111.376618,80.2865904 111.376618,62.8813168 L111.376618,0.000802641165 L136.04175,0.000802641165 L136.04175,61.9422266 C136.04175,95.1844131 116.982039,111.492476 86.8739032,111.492476 C56.7657677,111.492476 38.3493274,95.0270954 38.3493274,62.7223938 Z" id="Shape" fill="#073B4B"></path>
                    </g>
                </g>
            </g>
        </g>
    </g>
</svg>