<?xml version="1.0" encoding="utf-8"?>
<!-- Generator: Adobe Illustrator 16.0.0, SVG Export Plug-In . SVG Version: 6.00 Build 0)  -->
<!DOCTYPE svg PUBLIC "-//W3C//DTD SVG 1.1//EN" "http://www.w3.org/Graphics/SVG/1.1/DTD/svg11.dtd">
<svg version="1.1" id="Layer_1" xmlns="http://www.w3.org/2000/svg" xmlns:xlink="http://www.w3.org/1999/xlink" x="0px" y="0px"
	 width="352.814px" height="35.856px" viewBox="0 0 352.814 35.856" enable-background="new 0 0 352.814 35.856"
	 xml:space="preserve">
<g>
	<g>
		<defs>
			<path id="SVGID_1_" d="M13.045,29.173c2.664,0,4.27-0.92,4.27-2.912v-0.076c0-1.801-1.371-2.912-4.465-2.912H5.876v5.9H13.045
				L13.045,29.173z M11.439,18.37c2.664,0,4.348-0.843,4.348-2.835v-0.077c0-1.762-1.41-2.758-3.957-2.758H5.876v5.67H11.439z
				 M0,7.529h12.732c3.133,0,5.602,0.842,7.168,2.375c1.254,1.226,1.881,2.72,1.881,4.559v0.076c0,3.026-1.646,4.712-3.604,5.785
				c3.173,1.187,5.132,2.987,5.132,6.589v0.076c0,4.903-4.074,7.355-10.264,7.355H0V7.529L0,7.529z"/>
		</defs>
		<clipPath id="SVGID_2_">
			<use xlink:href="#SVGID_1_"  overflow="visible"/>
		</clipPath>
		<rect x="-5" y="2.529" clip-path="url(#SVGID_2_)" fill="#003C4C" width="33.309" height="36.815"/>
	</g>
	<g>
		<defs>
			<path id="SVGID_3_" d="M49.905,21.014v-0.077c0-4.597-3.448-8.428-8.306-8.428c-4.856,0-8.227,3.754-8.227,8.352v0.076
				c0,4.598,3.448,8.428,8.306,8.428C46.537,29.364,49.905,25.61,49.905,21.014z M27.066,21.014v-0.077
				c0-7.623,6.15-13.867,14.612-13.867s14.533,6.167,14.533,13.79v0.077c0,7.623-6.149,13.867-14.612,13.867
				C33.139,34.804,27.066,28.637,27.066,21.014z"/>
		</defs>
		<clipPath id="SVGID_4_">
			<use xlink:href="#SVGID_3_"  overflow="visible"/>
		</clipPath>
		<rect x="22.066" y="2.069" clip-path="url(#SVGID_4_)" fill="#003C4C" width="39.146" height="37.734"/>
	</g>
	<g>
		<defs>
			<path id="SVGID_5_" d="M61.145,22.852V7.529h6.033v15.17c0,4.366,2.232,6.627,5.916,6.627c3.682,0,5.914-2.184,5.914-6.436V7.529
				h6.033v15.132c0,8.12-4.662,12.104-12.026,12.104S61.145,30.743,61.145,22.852z"/>
		</defs>
		<clipPath id="SVGID_6_">
			<use xlink:href="#SVGID_5_"  overflow="visible"/>
		</clipPath>
		<rect x="56.145" y="2.529" clip-path="url(#SVGID_6_)" fill="#E8194E" width="33.896" height="37.236"/>
	</g>
	<g>
		<defs>
			<path id="SVGID_7_" d="M89.309,30.437l3.564-4.176c2.469,1.992,5.054,3.257,8.188,3.257c2.468,0,3.957-0.958,3.957-2.528v-0.077
				c0-1.494-0.941-2.26-5.524-3.409c-5.523-1.379-9.088-2.873-9.088-8.198v-0.077c0-4.864,3.995-8.082,9.597-8.082
				c3.996,0,7.404,1.226,10.186,3.409l-3.134,4.444c-2.429-1.648-4.818-2.644-7.13-2.644c-2.311,0-3.525,1.034-3.525,2.337v0.076
				c0,1.763,1.176,2.337,5.916,3.524c5.562,1.417,8.695,3.371,8.695,8.045v0.076c0,5.325-4.152,8.313-10.066,8.313
				C96.791,34.728,92.599,33.31,89.309,30.437z"/>
		</defs>
		<clipPath id="SVGID_8_">
			<use xlink:href="#SVGID_7_"  overflow="visible"/>
		</clipPath>
		<rect x="84.309" y="2.146" clip-path="url(#SVGID_8_)" fill="#003C4C" width="31.701" height="37.582"/>
	</g>
	<g>
		<defs>
			<polygon id="SVGID_9_" points="67.182,7.499 51.824,7.499 67.182,12.953 			"/>
		</defs>
		<clipPath id="SVGID_10_">
			<use xlink:href="#SVGID_9_"  overflow="visible"/>
		</clipPath>
		<rect x="46.824" y="2.499" clip-path="url(#SVGID_10_)" fill="#003C4C" width="25.357" height="15.454"/>
	</g>
	<g>
		<defs>
			<polygon id="SVGID_11_" points="79,7.499 94.461,7.499 79,12.953 			"/>
		</defs>
		<clipPath id="SVGID_12_">
			<use xlink:href="#SVGID_11_"  overflow="visible"/>
		</clipPath>
		<rect x="74" y="2.499" clip-path="url(#SVGID_12_)" fill="#003C4C" width="25.461" height="15.454"/>
	</g>
	<text transform="matrix(1 0 0 1 130.0059 31.9365)" fill="#064D5E" font-family="'GothamPro-Regular'" font-size="20">Investment Banking </text>
	<text transform="matrix(1 0 0 1 310.0039 15.0674)" fill="#EE2B5F" font-family="'GothamPro-Bold'" font-size="17.7268">Tech</text>
</g>
</svg>
