<?xml version="1.0" encoding="UTF-8"?>
<svg width="343px" height="31px" viewBox="0 0 343 31" version="1.1" xmlns="http://www.w3.org/2000/svg" xmlns:xlink="http://www.w3.org/1999/xlink">
    <!-- Generator: Sketch 45.1 (43504) - http://www.bohemiancoding.com/sketch -->
    <title>Group 4</title>
    <desc>Created with Sketch.</desc>
    <defs></defs>
    <g id="Symbols" stroke="none" stroke-width="1" fill="none" fill-rule="evenodd">
        <g id="MAIN-NAV-2" transform="translate(-172.000000, -46.000000)">
            <g id="Group-4" transform="translate(172.000000, 27.000000)">
                <g id="LOGO-BOUS-FINAL" transform="translate(0.000000, 21.000000)">
                    <g id="Layer_1">
                        <g id="Group" transform="translate(0.919192, 0.078431)">
                            <g id="Shape">
                                <path d="M0.0759343434,0.513921569 L12.8072664,0.513921569 C15.9413194,0.513921569 18.4093813,1.35647059 19.9762121,2.88901961 C21.2295202,4.11490196 21.8567614,5.60882353 21.8567614,7.44745098 L21.8567614,7.5245098 C21.8567614,10.5505882 20.2112563,12.2362745 18.2522285,13.3090196 C21.4256187,14.4960784 23.3846465,16.2968627 23.3846465,19.8978431 L23.3846465,19.9745098 C23.3846465,24.8776471 19.3104167,27.3294118 13.1207891,27.3294118 L0.0761300505,27.3294118 L0.0761300505,0.513921569 L0.0759343434,0.513921569 Z M11.5144255,11.355098 C14.1785859,11.355098 15.8632323,10.5121569 15.8632323,8.52 L15.8632323,8.44333333 C15.8632323,6.68156863 14.4527715,5.68529412 11.9062311,5.68529412 L5.95164773,5.68529412 L5.95164773,11.355098 L11.5144255,11.355098 Z M13.1205934,22.1576471 C15.7843624,22.1576471 17.3905303,21.2382353 17.3905303,19.2458824 L17.3905303,19.1692157 C17.3905303,17.3692157 16.0194066,16.2578431 12.9252778,16.2578431 L5.95164773,16.2578431 L5.95164773,22.157451 L13.1205934,22.157451 L13.1205934,22.1576471 Z" fill="#003B4C"></path>
                                <path d="M27.1420265,13.9986275 L27.1420265,13.9211765 C27.1420265,6.29823529 33.2923169,0.0541176471 41.7542992,0.0541176471 C50.2154987,0.0541176471 56.2875063,6.22156863 56.2875063,13.844902 L56.2875063,13.9211765 C56.2875063,21.5443137 50.1376073,27.7886275 41.675625,27.7886275 C33.2142298,27.7888235 27.1420265,21.6215686 27.1420265,13.9986275 Z M49.980846,13.9986275 L49.980846,13.9211765 C49.980846,9.32470588 46.5330745,5.49392157 41.6754293,5.49392157 C36.8183712,5.49392157 33.4488826,9.24803922 33.4488826,13.845098 L33.4488826,13.9213725 C33.4488826,18.5188235 36.896654,22.3492157 41.7542992,22.3492157 C46.6119444,22.3492157 49.980846,18.5952941 49.980846,13.9986275 Z" fill="#003B4C"></path>
                                <path d="M61.2204987,15.8364706 L61.2204987,0.513921569 L67.2529735,0.513921569 L67.2529735,15.6841176 C67.2529735,20.0507843 69.4859912,22.3113725 73.1686111,22.3113725 C76.8512311,22.3113725 79.0834659,20.1272549 79.0834659,15.8752941 L79.0834659,0.514117647 L85.1167235,0.514117647 L85.1167235,15.6458824 C85.1167235,23.7666667 80.4545896,27.7505882 73.0899369,27.7505882 C65.7252841,27.7505882 61.2204987,23.7282353 61.2204987,15.8364706 Z" fill="#E9004C"></path>
                                <path d="M89.3833333,23.4217647 L92.948529,19.2458824 C95.4165909,21.2380392 98.002077,22.502549 101.13613,22.502549 C103.603801,22.502549 105.092348,21.5443137 105.092348,19.9741176 L105.092348,19.897451 C105.092348,18.4031373 104.151976,17.6372549 99.5685164,16.4878431 C94.0450758,15.1088235 90.4806629,13.6145098 90.4806629,8.29019608 L90.4806629,8.21294118 C90.4806629,3.34803922 94.4762184,0.130392157 100.077942,0.130392157 C104.073889,0.130392157 107.481932,1.35588235 110.263125,3.53980392 L107.129072,7.98372549 C104.700739,6.33607843 102.31096,5.34019608 99.9994634,5.34019608 C97.6883586,5.34019608 96.4736048,6.3745098 96.4736048,7.67705882 L96.4736048,7.75372549 C96.4736048,9.51588235 97.6490215,10.0901961 102.389242,11.2782353 C107.952412,12.6954902 111.085682,14.6494118 111.085682,19.3231373 L111.085682,19.3994118 C111.085682,24.7245098 106.932973,27.7127451 101.018706,27.7127451 C96.8659975,27.7129412 92.673952,26.2945098 89.3833333,23.4217647 Z" fill="#003B4C"></path>
                            </g>
                            <polygon id="Shape" fill="#003B4C" points="67.2576705 0.48372549 51.8999495 0.48372549 67.2576705 5.93843137"></polygon>
                            <polygon id="Shape" fill="#003B4C" points="79.0758333 0.48372549 94.5370833 0.48372549 79.0758333 5.93843137"></polygon>
                        </g>
                    </g>
                </g>
                <g id="Group-3-Copy" transform="translate(131.000000, 0.000000)" line-spacing="49" font-weight="normal">
                    <text id="Investment-Banking" font-family="GothamPro-Regular, Gotham Pro" font-size="20" fill="#073B4B">
                        <tspan x="0" y="29">Investment Banking </tspan>
                    </text>
                    <text id="Tech" font-family=".SFNSText, .SF NS Text" font-size="14" fill="#E9004C">
                        <tspan x="180" y="14">Tech</tspan>
                    </text>
                </g>
            </g>
        </g>
    </g>
</svg>