<?xml version="1.0" encoding="UTF-8"?>
<svg width="343px" height="31px" viewBox="0 0 343 31" version="1.1" xmlns="http://www.w3.org/2000/svg" xmlns:xlink="http://www.w3.org/1999/xlink">
    <!-- Generator: Sketch 46 (44423) - http://www.bohemiancoding.com/sketch -->
    <title>Group 4</title>
    <desc>Created with Sketch.</desc>
    <defs></defs>
    <g id="Symbols" stroke="none" stroke-width="1" fill="none" fill-rule="evenodd">
        <g id="MAIN-NAV-2" transform="translate(-172.000000, -46.000000)">
            <g id="Group-4" transform="translate(172.000000, 27.000000)">
                <g id="LOGO-BOUS-FINAL" transform="translate(0.000000, 21.000000)">
                    <g id="Layer_1">
                        <g id="Group" transform="translate(0.919192, 0.078431)">
                            <g id="Shape">
                                <path d="M0.0759343434,0.513921569 L12.8072664,0.513921569 C15.9413194,0.513921569 18.4093813,1.35647059 19.9762121,2.88901961 C21.2295202,4.11490196 21.8567614,5.60882353 21.8567614,7.44745098 L21.8567614,7.5245098 C21.8567614,10.5505882 20.2112563,12.2362745 18.2522285,13.3090196 C21.4256187,14.4960784 23.3846465,16.2968627 23.3846465,19.8978431 L23.3846465,19.9745098 C23.3846465,24.8776471 19.3104167,27.3294118 13.1207891,27.3294118 L0.0761300505,27.3294118 L0.0761300505,0.513921569 L0.0759343434,0.513921569 Z M11.5144255,11.355098 C14.1785859,11.355098 15.8632323,10.5121569 15.8632323,8.52 L15.8632323,8.44333333 C15.8632323,6.68156863 14.4527715,5.68529412 11.9062311,5.68529412 L5.95164773,5.68529412 L5.95164773,11.355098 L11.5144255,11.355098 Z M13.1205934,22.1576471 C15.7843624,22.1576471 17.3905303,21.2382353 17.3905303,19.2458824 L17.3905303,19.1692157 C17.3905303,17.3692157 16.0194066,16.2578431 12.9252778,16.2578431 L5.95164773,16.2578431 L5.95164773,22.157451 L13.1205934,22.157451 L13.1205934,22.1576471 Z" fill="#003B4C"></path>
                                <path d="M27.1420265,13.9986275 L27.1420265,13.9211765 C27.1420265,6.29823529 33.2923169,0.0541176471 41.7542992,0.0541176471 C50.2154987,0.0541176471 56.2875063,6.22156863 56.2875063,13.844902 L56.2875063,13.9211765 C56.2875063,21.5443137 50.1376073,27.7886275 41.675625,27.7886275 C33.2142298,27.7888235 27.1420265,21.6215686 27.1420265,13.9986275 Z M49.980846,13.9986275 L49.980846,13.9211765 C49.980846,9.32470588 46.5330745,5.49392157 41.6754293,5.49392157 C36.8183712,5.49392157 33.4488826,9.24803922 33.4488826,13.845098 L33.4488826,13.9213725 C33.4488826,18.5188235 36.896654,22.3492157 41.7542992,22.3492157 C46.6119444,22.3492157 49.980846,18.5952941 49.980846,13.9986275 Z" fill="#003B4C"></path>
                                <path d="M61.2204987,15.8364706 L61.2204987,0.513921569 L67.2529735,0.513921569 L67.2529735,15.6841176 C67.2529735,20.0507843 69.4859912,22.3113725 73.1686111,22.3113725 C76.8512311,22.3113725 79.0834659,20.1272549 79.0834659,15.8752941 L79.0834659,0.514117647 L85.1167235,0.514117647 L85.1167235,15.6458824 C85.1167235,23.7666667 80.4545896,27.7505882 73.0899369,27.7505882 C65.7252841,27.7505882 61.2204987,23.7282353 61.2204987,15.8364706 Z" fill="#E9004C"></path>
                                <path d="M89.3833333,23.4217647 L92.948529,19.2458824 C95.4165909,21.2380392 98.002077,22.502549 101.13613,22.502549 C103.603801,22.502549 105.092348,21.5443137 105.092348,19.9741176 L105.092348,19.897451 C105.092348,18.4031373 104.151976,17.6372549 99.5685164,16.4878431 C94.0450758,15.1088235 90.4806629,13.6145098 90.4806629,8.29019608 L90.4806629,8.21294118 C90.4806629,3.34803922 94.4762184,0.130392157 100.077942,0.130392157 C104.073889,0.130392157 107.481932,1.35588235 110.263125,3.53980392 L107.129072,7.98372549 C104.700739,6.33607843 102.31096,5.34019608 99.9994634,5.34019608 C97.6883586,5.34019608 96.4736048,6.3745098 96.4736048,7.67705882 L96.4736048,7.75372549 C96.4736048,9.51588235 97.6490215,10.0901961 102.389242,11.2782353 C107.952412,12.6954902 111.085682,14.6494118 111.085682,19.3231373 L111.085682,19.3994118 C111.085682,24.7245098 106.932973,27.7127451 101.018706,27.7127451 C96.8659975,27.7129412 92.673952,26.2945098 89.3833333,23.4217647 Z" fill="#003B4C"></path>
                            </g>
                            <polygon id="Shape" fill="#003B4C" points="67.2576705 0.48372549 51.8999495 0.48372549 67.2576705 5.93843137"></polygon>
                            <polygon id="Shape" fill="#003B4C" points="79.0758333 0.48372549 94.5370833 0.48372549 79.0758333 5.93843137"></polygon>
                        </g>
                    </g>
                </g>
                <g id="Group-3-Copy" transform="translate(131.000000, 0.000000)">
                    <path d="M3.11523438,46 L3.11523438,31.9082031 L1.35742188,31.9082031 L1.35742188,46 L3.11523438,46 Z M5.63476562,46 L7.33398438,46 L7.33398438,39.8867188 C7.33398438,38.9817663 7.57975015,38.2558621 8.07128906,37.7089844 C8.56282798,37.1621066 9.24153213,36.8886719 10.1074219,36.8886719 C10.9407594,36.8886719 11.5592428,37.1165342 11.9628906,37.5722656 C12.3665385,38.0279971 12.5683594,38.6855426 12.5683594,39.5449219 L12.5683594,46 L14.2675781,46 L14.2675781,39.2519531 C14.2675781,38.0540305 13.9485709,37.1084019 13.3105469,36.4150391 C12.6725229,35.7216762 11.7740943,35.375 10.6152344,35.375 C9.80142822,35.375 9.12435166,35.5263657 8.58398438,35.8291016 C8.04361709,36.1318375 7.60742354,36.5826793 7.27539062,37.1816406 L7.23632812,37.1816406 L7.23632812,35.4726562 L5.63476562,35.4726562 L5.63476562,46 Z M25.1074219,35.4726562 L23.3398438,35.4726562 L20.3808594,44.1640625 L20.3417969,44.1640625 L17.3925781,35.4726562 L15.6152344,35.4726562 L19.5019531,46 L21.2207031,46 L21.6113281,44.9355469 C21.8717461,44.2259079 22.1956361,43.348638 22.5830078,42.3037109 L23.7451172,39.1689453 C24.1324889,38.1240182 24.4563789,37.2467483 24.7167969,36.5371094 L25.1074219,35.4726562 Z M30.703125,36.8691406 C29.8762979,36.8691406 29.1910834,37.1425754 28.6474609,37.6894531 C28.1038384,38.2363309 27.8027347,38.9557247 27.7441406,39.8476562 L33.5351562,39.8476562 C33.5156249,38.9557247 33.2470729,38.2363309 32.7294922,37.6894531 C32.2119115,37.1425754 31.5364625,36.8691406 30.703125,36.8691406 Z M33.4960938,42.9921875 L35.1757812,42.9921875 C35.0325514,43.8971399 34.5507854,44.6409476 33.7304688,45.2236328 C32.9101521,45.806318 31.9368546,46.0976562 30.8105469,46.0976562 C29.3326749,46.0976562 28.159184,45.6175178 27.2900391,44.6572266 C26.4208941,43.6969353 25.9863281,42.4030029 25.9863281,40.7753906 C25.9863281,39.1412679 26.4192665,37.8326872 27.2851562,36.8496094 C28.151046,35.8665315 29.300123,35.375 30.7324219,35.375 C32.1386789,35.375 33.251949,35.837235 34.0722656,36.7617188 C34.8925822,37.6862025 35.3027344,38.9459556 35.3027344,40.5410156 L35.3027344,41.2050781 L27.7441406,41.2050781 L27.7441406,41.3027344 C27.7441406,42.3053436 28.0273409,43.1061168 28.59375,43.7050781 C29.1601591,44.3040395 29.9121047,44.6035156 30.8496094,44.6035156 C31.5071647,44.6035156 32.0751929,44.4586603 32.5537109,44.1689453 C33.032229,43.8792303 33.3463534,43.4869816 33.4960938,42.9921875 Z M36.9140625,38.4121094 C36.9140625,39.811856 37.8287669,40.7493466 39.6582031,41.2246094 L41.5039062,41.703125 C42.1028676,41.8593758 42.5260404,42.0465484 42.7734375,42.2646484 C43.0208346,42.4827485 43.1445312,42.7773419 43.1445312,43.1484375 C43.1445312,43.6237003 42.9345724,43.9996731 42.5146484,44.2763672 C42.0947245,44.5530613 41.5266963,44.6914062 40.8105469,44.6914062 C40.0943975,44.6914062 39.5247417,44.5498061 39.1015625,44.2666016 C38.6783833,43.983397 38.4212244,43.5748725 38.3300781,43.0410156 L36.6210938,43.0410156 C36.7057296,43.9524785 37.1223921,44.6897758 37.8710938,45.2529297 C38.6197954,45.8160835 39.5605412,46.0976562 40.6933594,46.0976562 C41.9108134,46.0976562 42.9085248,45.8112008 43.6865234,45.2382812 C44.4645221,44.6653617 44.8535156,43.929692 44.8535156,43.03125 C44.8535156,42.263017 44.638674,41.6689474 44.2089844,41.2490234 C43.7792947,40.8290995 43.0306043,40.4856784 41.9628906,40.21875 L40.3613281,39.8183594 C39.7558563,39.668619 39.3082697,39.4716809 39.0185547,39.2275391 C38.7288397,38.9833972 38.5839844,38.6822935 38.5839844,38.3242188 C38.5839844,37.8619769 38.7825501,37.4908868 39.1796875,37.2109375 C39.5768249,36.9309882 40.1009082,36.7910156 40.7519531,36.7910156 C41.3964876,36.7910156 41.9205709,36.9342434 42.3242188,37.2207031 C42.7278666,37.5071629 42.9557289,37.897784 43.0078125,38.3925781 L44.6386719,38.3925781 C44.6061196,37.5266884 44.2268917,36.8089221 43.5009766,36.2392578 C42.7750615,35.6695935 41.8782605,35.3847656 40.8105469,35.3847656 C39.6712183,35.3847656 38.7369828,35.6663383 38.0078125,36.2294922 C37.2786422,36.792646 36.9140625,37.5201778 36.9140625,38.4121094 Z M47.2558594,33.0996094 L47.2558594,35.4726562 L45.7910156,35.4726562 L45.7910156,36.8789062 L47.2558594,36.8789062 L47.2558594,43.265625 C47.2558594,44.2747446 47.4593079,44.9957661 47.8662109,45.4287109 C48.273114,45.8616558 48.9518182,46.078125 49.9023438,46.078125 C50.1041677,46.078125 50.3108713,46.0699871 50.5224609,46.0537109 C50.7340505,46.0374348 50.8919266,46.0162762 50.9960938,45.9902344 L50.9960938,44.5546875 C50.9374997,44.5611979 50.8268237,44.5709635 50.6640625,44.5839844 C50.5013013,44.5970053 50.3678391,44.6035156 50.2636719,44.6035156 C49.8144509,44.6035156 49.4840505,44.4895845 49.2724609,44.2617188 C49.0608713,44.033853 48.9550781,43.6790389 48.9550781,43.1972656 L48.9550781,36.8789062 L51.0058594,36.8789062 L51.0058594,35.4726562 L48.9550781,35.4726562 L48.9550781,33.0996094 L47.2558594,33.0996094 Z M52.890625,46 L54.5898438,46 L54.5898438,39.4667969 C54.5898438,38.7311161 54.8209612,38.1175155 55.2832031,37.6259766 C55.745445,37.1344376 56.3281215,36.8886719 57.03125,36.8886719 C57.6888054,36.8886719 58.2177714,37.0807272 58.6181641,37.4648438 C59.0185567,37.8489603 59.21875,38.3600229 59.21875,38.9980469 L59.21875,46 L60.9179688,46 L60.9179688,39.3789062 C60.9179688,38.6562464 61.1442035,38.0605492 61.5966797,37.5917969 C62.0491559,37.1230445 62.6269496,36.8886719 63.3300781,36.8886719 C64.0332066,36.8886719 64.5784486,37.0921204 64.9658203,37.4990234 C65.353192,37.9059265 65.546875,38.4739547 65.546875,39.203125 L65.546875,46 L67.2460938,46 L67.2460938,38.8125 C67.2460938,37.7643177 66.9352245,36.9293651 66.3134766,36.3076172 C65.6917287,35.6858693 64.8600312,35.375 63.8183594,35.375 C63.0826786,35.375 62.4218779,35.5507795 61.8359375,35.9023438 C61.2499971,36.253908 60.8072932,36.7421844 60.5078125,37.3671875 L60.46875,37.3671875 C60.2408843,36.7291635 59.8714218,36.2376319 59.3603516,35.8925781 C58.8492813,35.5475243 58.2356807,35.375 57.5195312,35.375 C56.8359341,35.375 56.2288438,35.5361312 55.6982422,35.8583984 C55.1676406,36.1806657 54.7786471,36.621742 54.53125,37.1816406 L54.4921875,37.1816406 L54.4921875,35.4726562 L52.890625,35.4726562 L52.890625,46 Z M73.7011719,36.8691406 C72.8743448,36.8691406 72.1891303,37.1425754 71.6455078,37.6894531 C71.1018853,38.2363309 70.8007815,38.9557247 70.7421875,39.8476562 L76.5332031,39.8476562 C76.5136718,38.9557247 76.2451198,38.2363309 75.7275391,37.6894531 C75.2099583,37.1425754 74.5345094,36.8691406 73.7011719,36.8691406 Z M76.4941406,42.9921875 L78.1738281,42.9921875 C78.0305982,43.8971399 77.5488322,44.6409476 76.7285156,45.2236328 C75.908199,45.806318 74.9349015,46.0976562 73.8085938,46.0976562 C72.3307218,46.0976562 71.1572309,45.6175178 70.2880859,44.6572266 C69.418941,43.6969353 68.984375,42.4030029 68.984375,40.7753906 C68.984375,39.1412679 69.4173134,37.8326872 70.2832031,36.8496094 C71.1490929,35.8665315 72.2981699,35.375 73.7304688,35.375 C75.1367258,35.375 76.2499959,35.837235 77.0703125,36.7617188 C77.8906291,37.6862025 78.3007812,38.9459556 78.3007812,40.5410156 L78.3007812,41.2050781 L70.7421875,41.2050781 L70.7421875,41.3027344 C70.7421875,42.3053436 71.0253878,43.1061168 71.5917969,43.7050781 C72.158206,44.3040395 72.9101516,44.6035156 73.8476562,44.6035156 C74.5052116,44.6035156 75.0732398,44.4586603 75.5517578,44.1689453 C76.0302758,43.8792303 76.3444003,43.4869816 76.4941406,42.9921875 Z M80.0878906,46 L81.7871094,46 L81.7871094,39.8867188 C81.7871094,38.9817663 82.0328751,38.2558621 82.5244141,37.7089844 C83.015953,37.1621066 83.6946571,36.8886719 84.5605469,36.8886719 C85.3938844,36.8886719 86.0123678,37.1165342 86.4160156,37.5722656 C86.8196635,38.0279971 87.0214844,38.6855426 87.0214844,39.5449219 L87.0214844,46 L88.7207031,46 L88.7207031,39.2519531 C88.7207031,38.0540305 88.4016959,37.1084019 87.7636719,36.4150391 C87.1256479,35.7216762 86.2272193,35.375 85.0683594,35.375 C84.2545532,35.375 83.5774767,35.5263657 83.0371094,35.8291016 C82.4967421,36.1318375 82.0605485,36.5826793 81.7285156,37.1816406 L81.6894531,37.1816406 L81.6894531,35.4726562 L80.0878906,35.4726562 L80.0878906,46 Z M91.5332031,33.0996094 L91.5332031,35.4726562 L90.0683594,35.4726562 L90.0683594,36.8789062 L91.5332031,36.8789062 L91.5332031,43.265625 C91.5332031,44.2747446 91.7366516,44.9957661 92.1435547,45.4287109 C92.5504578,45.8616558 93.2291619,46.078125 94.1796875,46.078125 C94.3815114,46.078125 94.5882151,46.0699871 94.7998047,46.0537109 C95.0113943,46.0374348 95.1692703,46.0162762 95.2734375,45.9902344 L95.2734375,44.5546875 C95.2148435,44.5611979 95.1041675,44.5709635 94.9414062,44.5839844 C94.778645,44.5970053 94.6451828,44.6035156 94.5410156,44.6035156 C94.0917946,44.6035156 93.7613943,44.4895845 93.5498047,44.2617188 C93.3382151,44.033853 93.2324219,43.6790389 93.2324219,43.1972656 L93.2324219,36.8789062 L95.2832031,36.8789062 L95.2832031,35.4726562 L93.2324219,35.4726562 L93.2324219,33.0996094 L91.5332031,33.0996094 Z M107.666016,46 L102.167969,46 L102.167969,31.9082031 L107.685547,31.9082031 C108.88998,31.9082031 109.864905,32.2304655 110.610352,32.875 C111.355798,33.5195345 111.728516,34.3691354 111.728516,35.4238281 C111.728516,36.1529984 111.492515,36.8170543 111.020508,37.4160156 C110.5485,38.014977 109.973962,38.3763015 109.296875,38.5 L109.296875,38.578125 C110.253911,38.7018235 111.01725,39.0761688 111.586914,39.7011719 C112.156578,40.326175 112.441406,41.1074172 112.441406,42.0449219 C112.441406,43.2819072 112.019861,44.250322 111.176758,44.9501953 C110.333655,45.6500686 109.163419,46 107.666016,46 Z M103.925781,33.4609375 L103.925781,37.9824219 L106.738281,37.9824219 C107.779953,37.9824219 108.575844,37.780601 109.125977,37.3769531 C109.67611,36.9733053 109.951172,36.3906288 109.951172,35.6289062 C109.951172,34.9322882 109.720054,34.3968118 109.257812,34.0224609 C108.795571,33.6481101 108.138025,33.4609375 107.285156,33.4609375 L103.925781,33.4609375 Z M103.925781,44.4472656 L107.402344,44.4472656 C108.463547,44.4472656 109.267575,44.2356792 109.814453,43.8125 C110.361331,43.3893208 110.634766,42.7708374 110.634766,41.9570312 C110.634766,41.1432251 110.349938,40.5296245 109.780273,40.1162109 C109.210609,39.7027974 108.362636,39.4960938 107.236328,39.4960938 L103.925781,39.4960938 L103.925781,44.4472656 Z M117.65625,44.6230469 C118.515629,44.6230469 119.226885,44.3740259 119.790039,43.8759766 C120.353193,43.3779272 120.634766,42.7513059 120.634766,41.9960938 L120.634766,41.1464844 L117.880859,41.3222656 C116.279289,41.4199224 115.478516,41.9830678 115.478516,43.0117188 C115.478516,43.5000024 115.675454,43.8906235 116.069336,44.1835938 C116.463218,44.476564 116.992184,44.6230469 117.65625,44.6230469 Z M117.294922,46.0976562 C116.227208,46.0976562 115.367842,45.814456 114.716797,45.2480469 C114.065752,44.6816378 113.740234,43.9329474 113.740234,43.0019531 C113.740234,41.1464751 115.055325,40.1373706 117.685547,39.9746094 L120.634766,39.7988281 L120.634766,38.9199219 C120.634766,38.2623665 120.426434,37.7594418 120.009766,37.4111328 C119.593097,37.0628238 118.9974,36.8886719 118.222656,36.8886719 C117.610674,36.8886719 117.094729,37.0335272 116.674805,37.3232422 C116.254881,37.6129572 115.992839,38.008461 115.888672,38.5097656 L114.257812,38.5097656 C114.283854,37.6178341 114.679358,36.8723988 115.444336,36.2734375 C116.209314,35.6744762 117.141922,35.375 118.242188,35.375 C119.485683,35.375 120.478512,35.6826141 121.220703,36.2978516 C121.962894,36.913089 122.333984,37.7382761 122.333984,38.7734375 L122.333984,46 L120.722656,46 L120.722656,44.1738281 L120.683594,44.1738281 C120.384113,44.7597686 119.928388,45.2268863 119.316406,45.5751953 C118.704424,45.9235043 118.030603,46.0976562 117.294922,46.0976562 Z M124.589844,46 L126.289062,46 L126.289062,39.8867188 C126.289062,38.9817663 126.534828,38.2558621 127.026367,37.7089844 C127.517906,37.1621066 128.19661,36.8886719 129.0625,36.8886719 C129.895837,36.8886719 130.514321,37.1165342 130.917969,37.5722656 C131.321617,38.0279971 131.523438,38.6855426 131.523438,39.5449219 L131.523438,46 L133.222656,46 L133.222656,39.2519531 C133.222656,38.0540305 132.903649,37.1084019 132.265625,36.4150391 C131.627601,35.7216762 130.729172,35.375 129.570312,35.375 C128.756506,35.375 128.07943,35.5263657 127.539062,35.8291016 C126.998695,36.1318375 126.562502,36.5826793 126.230469,37.1816406 L126.191406,37.1816406 L126.191406,35.4726562 L124.589844,35.4726562 L124.589844,46 Z M137.275391,40.1796875 L137.275391,31.2929688 L135.576172,31.2929688 L135.576172,46 L137.275391,46 L137.275391,42.0058594 L138.271484,41.0683594 L142.226562,46 L144.199219,46 L139.462891,40.0234375 L144.0625,35.4726562 L141.992188,35.4726562 L141.513672,35.9462891 C141.19466,36.2620458 140.802411,36.6542945 140.336914,37.1230469 C139.871417,37.5917992 139.404299,38.0605445 138.935547,38.5292969 C138.466795,38.9980492 138.072918,39.3902979 137.753906,39.7060547 L137.275391,40.1796875 Z M145.595703,46 L147.294922,46 L147.294922,35.4726562 L145.595703,35.4726562 L145.595703,46 Z M146.445312,33.7734375 C146.744793,33.7734375 146.998697,33.6676443 147.207031,33.4560547 C147.415366,33.2444651 147.519531,32.992189 147.519531,32.6992188 C147.519531,32.3997381 147.415366,32.1458344 147.207031,31.9375 C146.998697,31.7291656 146.744793,31.625 146.445312,31.625 C146.152342,31.625 145.900066,31.7291656 145.688477,31.9375 C145.476887,32.1458344 145.371094,32.3997381 145.371094,32.6992188 C145.371094,32.992189 145.476887,33.2444651 145.688477,33.4560547 C145.900066,33.6676443 146.152342,33.7734375 146.445312,33.7734375 Z M149.697266,46 L151.396484,46 L151.396484,39.8867188 C151.396484,38.9817663 151.64225,38.2558621 152.133789,37.7089844 C152.625328,37.1621066 153.304032,36.8886719 154.169922,36.8886719 C155.003259,36.8886719 155.621743,37.1165342 156.025391,37.5722656 C156.429038,38.0279971 156.630859,38.6855426 156.630859,39.5449219 L156.630859,46 L158.330078,46 L158.330078,39.2519531 C158.330078,38.0540305 158.011071,37.1084019 157.373047,36.4150391 C156.735023,35.7216762 155.836594,35.375 154.677734,35.375 C153.863928,35.375 153.186852,35.5263657 152.646484,35.8291016 C152.106117,36.1318375 151.669924,36.5826793 151.337891,37.1816406 L151.298828,37.1816406 L151.298828,35.4726562 L149.697266,35.4726562 L149.697266,46 Z M164.84375,44.4863281 C165.768234,44.4863281 166.515297,44.1363967 167.084961,43.4365234 C167.654625,42.7366501 167.939453,41.8235733 167.939453,40.6972656 C167.939453,39.5644475 167.654625,38.6464879 167.084961,37.9433594 C166.515297,37.2402309 165.768234,36.8886719 164.84375,36.8886719 C163.925777,36.8886719 163.190107,37.2353481 162.636719,37.9287109 C162.083331,38.6220738 161.806641,39.5449161 161.806641,40.6972656 C161.806641,41.8431047 162.083331,42.7610643 162.636719,43.4511719 C163.190107,44.1412795 163.925777,44.4863281 164.84375,44.4863281 Z M164.902344,49.9648438 C163.763015,49.9648438 162.779952,49.6735055 161.953125,49.0908203 C161.126298,48.5081351 160.638022,47.7708378 160.488281,46.8789062 L162.246094,46.8789062 C162.415365,47.3671899 162.747393,47.7594386 163.242188,48.0556641 C163.736982,48.3518895 164.316403,48.5 164.980469,48.5 C165.898442,48.5 166.621091,48.2558618 167.148438,47.7675781 C167.675784,47.2792944 167.939453,46.6380248 167.939453,45.84375 L167.939453,44.1933594 L167.900391,44.1933594 C167.568358,44.7662789 167.106123,45.2106104 166.513672,45.5263672 C165.921221,45.842124 165.257165,46 164.521484,46 C163.186842,46 162.111007,45.5133512 161.293945,44.5400391 C160.476884,43.5667269 160.068359,42.2858152 160.068359,40.6972656 C160.068359,39.0891847 160.478512,37.8001351 161.298828,36.8300781 C162.119145,35.8600212 163.206373,35.375 164.560547,35.375 C165.302738,35.375 165.971677,35.5312484 166.567383,35.84375 C167.163089,36.1562516 167.636717,36.6022106 167.988281,37.1816406 L168.017578,37.1816406 L168.017578,35.4726562 L169.638672,35.4726562 L169.638672,45.7851562 C169.638672,47.0416729 169.210616,48.052405 168.354492,48.8173828 C167.498368,49.5823606 166.347663,49.9648438 164.902344,49.9648438 Z" id="Investment-Banking" fill="#073B4B"></path>
                    <path d="M185.044922,30 L185.044922,21.2431641 L188.223633,21.2431641 L188.223633,20.1357422 L180.635742,20.1357422 L180.635742,21.2431641 L183.814453,21.2431641 L183.814453,30 L185.044922,30 Z M192.762695,23.5400391 C192.174802,23.5400391 191.691734,23.7382793 191.313477,24.1347656 C190.935219,24.531252 190.723308,25.0553353 190.677734,25.7070312 L194.738281,25.7070312 C194.724609,25.0553353 194.537762,24.531252 194.177734,24.1347656 C193.817707,23.7382793 193.346032,23.5400391 192.762695,23.5400391 Z M194.704102,28.0927734 L195.879883,28.0927734 C195.702148,28.7262401 195.342125,29.2241193 194.799805,29.5864258 C194.257484,29.9487323 193.583012,30.1298828 192.776367,30.1298828 C191.755529,30.1298828 190.946618,29.78695 190.349609,29.1010742 C189.752601,28.4151984 189.454102,27.4889381 189.454102,26.3222656 C189.454102,25.1647078 189.75488,24.2384475 190.356445,23.543457 C190.958011,22.8484666 191.764643,22.5009766 192.776367,22.5009766 C193.769862,22.5009766 194.551429,22.8325162 195.121094,23.4956055 C195.690758,24.1586947 195.975586,25.0621688 195.975586,26.2060547 L195.975586,26.6572266 L190.677734,26.6572266 L190.677734,26.7119141 C190.709636,27.4410844 190.915851,28.0198546 191.296387,28.4482422 C191.676922,28.8766297 192.179359,29.0908203 192.803711,29.0908203 C193.277672,29.0908203 193.674152,29.0053719 193.993164,28.8344727 C194.312176,28.6635734 194.549153,28.4163428 194.704102,28.0927734 Z M203.768555,24.8867188 C203.668294,24.2304655 203.352704,23.6687849 202.821777,23.2016602 C202.29085,22.7345354 201.576502,22.5009766 200.678711,22.5009766 C199.648758,22.5009766 198.828454,22.8450486 198.217773,23.5332031 C197.607093,24.2213576 197.301758,25.1396427 197.301758,26.2880859 C197.301758,27.4593158 197.608233,28.3924119 198.221191,29.0874023 C198.83415,29.7823928 199.655594,30.1298828 200.685547,30.1298828 C201.569666,30.1298828 202.278318,29.9065778 202.811523,29.4599609 C203.344729,29.0133441 203.663736,28.4528029 203.768555,27.7783203 L202.579102,27.7783203 C202.469726,28.1930359 202.249839,28.5120432 201.919434,28.7353516 C201.589028,28.95866 201.175458,29.0703125 200.678711,29.0703125 C200.022458,29.0703125 199.498374,28.819664 199.106445,28.3183594 C198.714516,27.8170548 198.518555,27.1403037 198.518555,26.2880859 C198.518555,25.4540974 198.713377,24.7910181 199.103027,24.2988281 C199.492678,23.8066382 200.0179,23.5605469 200.678711,23.5605469 C201.207359,23.5605469 201.632323,23.6904284 201.953613,23.9501953 C202.274904,24.2099622 202.483398,24.5221336 202.579102,24.8867188 L203.768555,24.8867188 Z M205.422852,30 L206.598633,30 L206.598633,25.6386719 C206.598633,25.0143198 206.774087,24.5118834 207.125,24.1313477 C207.475913,23.7508119 207.981768,23.5605469 208.642578,23.5605469 C209.19857,23.5605469 209.621255,23.7234684 209.910645,24.0493164 C210.200034,24.3751644 210.344727,24.863929 210.344727,25.515625 L210.344727,30 L211.520508,30 L211.520508,25.2285156 C211.520508,24.3626259 211.291506,23.6915714 210.833496,23.215332 C210.375486,22.7390927 209.75684,22.5009766 208.977539,22.5009766 C208.412432,22.5009766 207.939618,22.6149077 207.559082,22.8427734 C207.178546,23.0706392 206.894858,23.3873678 206.708008,23.7929688 L206.598633,23.7929688 L206.598633,19.7050781 L205.422852,19.7050781 L205.422852,30 Z" id="Tech" fill="#E9004C"></path>
                </g>
            </g>
        </g>
    </g>
</svg>