<?xml version="1.0" encoding="UTF-8"?>
<svg width="341px" height="104px" viewBox="0 0 341 104" version="1.1" xmlns="http://www.w3.org/2000/svg" xmlns:xlink="http://www.w3.org/1999/xlink">
    <!-- Generator: Sketch 46 (44423) - http://www.bohemiancoding.com/sketch -->
    <title>Group 9</title>
    <desc>Created with Sketch.</desc>
    <defs></defs>
    <g id="Bouse_desktop" stroke="none" stroke-width="1" fill="none" fill-rule="evenodd">
        <g id="Bous_white" transform="translate(-178.000000, -278.000000)">
            <g id="Hero" transform="translate(0.000000, 1.000000)">
                <g id="Group-9" transform="translate(178.000000, 264.000000)">
                    <path d="M22.03125,22.1640625 L22.265625,22.1640625 L30.0703125,49 L34.0546875,49 L43.265625,15.1796875 L38.859375,15.1796875 L32.0859375,42.7890625 L31.8984375,42.7890625 L24.28125,15.1796875 L20.015625,15.1796875 L12.3984375,42.7890625 L12.2109375,42.7890625 L5.4375,15.1796875 L1.03125,15.1796875 L10.2421875,49 L14.2265625,49 L14.7890625,47.0664062 C15.1640644,45.7773373 15.6484345,44.1132914 16.2421875,42.0742188 C16.8359405,40.0351461 17.4648404,37.8711052 18.1289062,35.5820312 C18.7929721,33.2929573 19.421872,31.1289164 20.015625,29.0898438 C20.609378,27.0507711 21.0937481,25.3867252 21.46875,24.0976562 L22.03125,22.1640625 Z M56.7880207,27.0859375 C54.8036358,27.0859375 53.159121,27.7421809 51.854427,29.0546875 C50.549733,30.3671941 49.8270839,32.0937393 49.6864582,34.234375 L63.5848957,34.234375 C63.5380205,32.0937393 62.8934957,30.3671941 61.651302,29.0546875 C60.4091083,27.7421809 58.7880307,27.0859375 56.7880207,27.0859375 Z M63.4911457,41.78125 L67.5223957,41.78125 C67.178644,43.9531359 66.0224056,45.7382743 64.0536457,47.1367188 C62.0848859,48.5351632 59.7489717,49.234375 57.0458332,49.234375 C53.4989405,49.234375 50.6825624,48.0820428 48.5966145,45.7773438 C46.5106666,43.4726447 45.4677082,40.367207 45.4677082,36.4609375 C45.4677082,32.5390429 46.5067603,29.3984493 48.5848957,27.0390625 C50.6630311,24.6796757 53.420816,23.5 56.8583332,23.5 C60.2333501,23.5 62.9051984,24.6093639 64.8739582,26.828125 C66.8427181,29.0468861 67.8270832,32.0702934 67.8270832,35.8984375 L67.8270832,37.4921875 L49.6864582,37.4921875 L49.6864582,37.7265625 C49.6864582,40.1328245 50.3661389,42.0546803 51.7255207,43.4921875 C53.0849025,44.9296947 54.889572,45.6484375 57.1395832,45.6484375 C58.7177161,45.6484375 60.0809837,45.3007847 61.229427,44.6054688 C62.3778702,43.9101528 63.1317689,42.9687559 63.4911457,41.78125 Z M96.6531247,49.234375 C93.4812338,49.234375 90.8836036,48.0546993 88.8601559,45.6953125 C86.8367083,43.3359257 85.8249997,40.2265818 85.8249997,36.3671875 C85.8249997,32.5077932 86.8288959,29.3984493 88.8367184,27.0390625 C90.844541,24.6796757 93.418734,23.5 96.5593747,23.5 C98.3718838,23.5 99.9773364,23.8749963 101.375781,24.625 C102.774225,25.3750037 103.856246,26.4453055 104.621875,27.8359375 L104.715625,27.8359375 L104.715625,13.703125 L108.79375,13.703125 L108.79375,49 L104.903125,49 L104.903125,44.734375 L104.832812,44.734375 C104.020308,46.1875073 102.910944,47.3007774 101.504687,48.0742188 C100.09843,48.8476601 98.4812588,49.234375 96.6531247,49.234375 Z M97.3796872,27.1328125 C95.1609261,27.1328125 93.3757877,27.9726479 92.0242184,29.6523438 C90.6726492,31.3320396 89.9968747,33.5702985 89.9968747,36.3671875 C89.9968747,39.1640765 90.6726492,41.4023354 92.0242184,43.0820312 C93.3757877,44.7617271 95.1609261,45.6015625 97.3796872,45.6015625 C99.5671981,45.6015625 101.340618,44.7500085 102.7,43.046875 C104.059381,41.3437415 104.739062,39.1172013 104.739062,36.3671875 C104.739062,33.6171738 104.059381,31.3906335 102.7,29.6875 C101.340618,27.9843665 99.5671981,27.1328125 97.3796872,27.1328125 Z M126.698958,49.234375 C123.152065,49.234375 120.323968,48.0664179 118.214583,45.7304688 C116.105197,43.3945196 115.05052,40.273457 115.05052,36.3671875 C115.05052,32.4452929 116.105197,29.3203241 118.214583,26.9921875 C120.323968,24.6640509 123.152065,23.5 126.698958,23.5 C130.245851,23.5 133.073947,24.6640509 135.183333,26.9921875 C137.292718,29.3203241 138.347395,32.4452929 138.347395,36.3671875 C138.347395,40.273457 137.292718,43.3945196 135.183333,45.7304688 C133.073947,48.0664179 130.245851,49.234375 126.698958,49.234375 Z M126.698958,45.6015625 C129.058345,45.6015625 130.89817,44.7851644 132.218489,43.1523438 C133.538808,41.5195231 134.198958,39.257827 134.198958,36.3671875 C134.198958,33.460923 133.538808,31.1953206 132.218489,29.5703125 C130.89817,27.9453044 129.058345,27.1328125 126.698958,27.1328125 C124.339571,27.1328125 122.499746,27.9492106 121.179427,29.5820312 C119.859108,31.2148519 119.198958,33.476548 119.198958,36.3671875 C119.198958,39.257827 119.863014,41.5195231 121.191145,43.1523438 C122.519277,44.7851644 124.355196,45.6015625 126.698958,45.6015625 Z M189.556249,23.734375 L185.524999,23.734375 L180.392187,44.3828125 L180.298437,44.3828125 L174.509374,23.734375 L170.571874,23.734375 L164.782812,44.3828125 L164.689062,44.3828125 L159.556249,23.734375 L155.524999,23.734375 L162.603124,49 L166.728124,49 L172.493749,29.359375 L172.587499,29.359375 L178.353124,49 L182.478124,49 L183.192968,46.4453125 C183.669533,44.742179 184.259371,42.6367313 184.962499,40.1289062 L187.071874,32.6054688 C187.775003,30.0976437 188.364841,27.992196 188.841406,26.2890625 L189.556249,23.734375 Z M204.836458,27.0859375 C202.852073,27.0859375 201.207558,27.7421809 199.902864,29.0546875 C198.59817,30.3671941 197.875521,32.0937393 197.734895,34.234375 L211.633333,34.234375 C211.586457,32.0937393 210.941933,30.3671941 209.699739,29.0546875 C208.457545,27.7421809 206.836468,27.0859375 204.836458,27.0859375 Z M211.539583,41.78125 L215.570833,41.78125 C215.227081,43.9531359 214.070842,45.7382743 212.102083,47.1367188 C210.133323,48.5351632 207.797409,49.234375 205.09427,49.234375 C201.547377,49.234375 198.730999,48.0820428 196.645051,45.7773438 C194.559103,43.4726447 193.516145,40.367207 193.516145,36.4609375 C193.516145,32.5390429 194.555197,29.3984493 196.633333,27.0390625 C198.711468,24.6796757 201.469253,23.5 204.90677,23.5 C208.281787,23.5 210.953635,24.6093639 212.922395,26.828125 C214.891155,29.0468861 215.87552,32.0702934 215.87552,35.8984375 L215.87552,37.4921875 L197.734895,37.4921875 L197.734895,37.7265625 C197.734895,40.1328245 198.414576,42.0546803 199.773958,43.4921875 C201.133339,44.9296947 202.938009,45.6484375 205.18802,45.6484375 C206.766153,45.6484375 208.129421,45.3007847 209.277864,44.6054688 C210.426307,43.9101528 211.180206,42.9687559 211.539583,41.78125 Z M222.132291,49 L226.210416,49 L226.210416,13.703125 L222.132291,13.703125 L222.132291,49 Z M233.943749,49 L238.021874,49 L238.021874,13.703125 L233.943749,13.703125 L233.943749,49 Z M248.16927,55.0234375 L251.684895,44.265625 L247.348957,44.265625 L245.005207,55.0234375 L248.16927,55.0234375 Z M34.7109375,85.734375 L30.6796875,85.734375 L25.546875,106.382812 L25.453125,106.382812 L19.6640625,85.734375 L15.7265625,85.734375 L9.9375,106.382812 L9.84375,106.382812 L4.7109375,85.734375 L0.6796875,85.734375 L7.7578125,111 L11.8828125,111 L17.6484375,91.359375 L17.7421875,91.359375 L23.5078125,111 L27.6328125,111 L28.3476562,108.445312 C28.8242211,106.742179 29.414059,104.636731 30.1171875,102.128906 L32.2265625,94.6054688 C32.929691,92.0976437 33.5195289,89.992196 33.9960938,88.2890625 L34.7109375,85.734375 Z M40.1473957,111 L44.2255207,111 L44.2255207,96.46875 C44.2255207,94.2499889 44.8427021,92.4726629 46.0770832,91.1367188 C47.3114644,89.8007746 48.9911351,89.1328125 51.1161457,89.1328125 C53.1161557,89.1328125 54.6239532,89.7070255 55.6395832,90.8554688 C56.6552133,92.003912 57.1630207,93.5859274 57.1630207,95.6015625 L57.1630207,111 L61.2411457,111 L61.2411457,94.875 C61.2411457,92.0624859 60.4481849,89.7968836 58.8622395,88.078125 C57.2762941,86.3593664 55.1005346,85.5 52.3348957,85.5 C50.397386,85.5 48.7724023,85.8632776 47.4598957,86.5898438 C46.1473892,87.3164099 45.1005246,88.3984303 44.3192707,89.8359375 L44.2255207,89.8359375 L44.2255207,75.703125 L40.1473957,75.703125 L40.1473957,111 Z M78.4666665,89.0859375 C76.4822815,89.0859375 74.8377667,89.7421809 73.5330727,91.0546875 C72.2283787,92.3671941 71.5057297,94.0937393 71.365104,96.234375 L85.2635415,96.234375 C85.2166662,94.0937393 84.5721414,92.3671941 83.3299477,91.0546875 C82.087754,89.7421809 80.4666765,89.0859375 78.4666665,89.0859375 Z M85.1697915,103.78125 L89.2010415,103.78125 C88.8572897,105.953136 87.7010513,107.738274 85.7322915,109.136719 C83.7635316,110.535163 81.4276175,111.234375 78.724479,111.234375 C75.1775862,111.234375 72.3612081,110.082043 70.2752602,107.777344 C68.1893123,105.472645 67.146354,102.367207 67.146354,98.4609375 C67.146354,94.5390429 68.1854061,91.3984493 70.2635415,89.0390625 C72.3416769,86.6796757 75.0994618,85.5 78.536979,85.5 C81.9119958,85.5 84.5838441,86.6093639 86.552604,88.828125 C88.5213638,91.0468861 89.505729,94.0702934 89.505729,97.8984375 L89.505729,99.4921875 L71.365104,99.4921875 L71.365104,99.7265625 C71.365104,102.132825 72.0447847,104.05468 73.4041665,105.492188 C74.7635483,106.929695 76.5682177,107.648438 78.818229,107.648438 C80.3963619,107.648438 81.7596295,107.300785 82.9080727,106.605469 C84.056516,105.910153 84.8104147,104.968756 85.1697915,103.78125 Z M95.5281247,111 L99.6062497,111 L99.6062497,96.328125 C99.6062497,94.1562391 100.196088,92.4140691 101.375781,91.1015625 C102.555474,89.7890559 104.184364,89.1328125 106.2625,89.1328125 C108.26251,89.1328125 109.74687,89.679682 110.715625,90.7734375 C111.68438,91.867193 112.16875,93.4453022 112.16875,95.5078125 L112.16875,111 L116.246875,111 L116.246875,94.8046875 C116.246875,91.9296731 115.481257,89.6601646 113.95,87.9960938 C112.418742,86.3320229 110.262514,85.5 107.48125,85.5 C105.528115,85.5 103.903131,85.8632776 102.60625,86.5898438 C101.309368,87.3164099 100.262504,88.3984303 99.4656247,89.8359375 L99.3718747,89.8359375 L99.3718747,85.734375 L95.5281247,85.734375 L95.5281247,111 Z M199.068749,111.234375 C195.896858,111.234375 193.299228,110.054699 191.27578,107.695312 C189.252333,105.335926 188.240624,102.226582 188.240624,98.3671875 C188.240624,94.5077932 189.24452,91.3984493 191.252343,89.0390625 C193.260165,86.6796757 195.834358,85.5 198.974999,85.5 C200.787508,85.5 202.392961,85.8749962 203.791405,86.625 C205.18985,87.3750038 206.27187,88.4453055 207.037499,89.8359375 L207.131249,89.8359375 L207.131249,75.703125 L211.209374,75.703125 L211.209374,111 L207.318749,111 L207.318749,106.734375 L207.248437,106.734375 C206.435933,108.187507 205.326569,109.300777 203.920312,110.074219 C202.514055,110.84766 200.896883,111.234375 199.068749,111.234375 Z M199.795312,89.1328125 C197.57655,89.1328125 195.791412,89.9726479 194.439843,91.6523438 C193.088274,93.3320396 192.412499,95.5702985 192.412499,98.3671875 C192.412499,101.164076 193.088274,103.402335 194.439843,105.082031 C195.791412,106.761727 197.57655,107.601562 199.795312,107.601562 C201.982823,107.601562 203.756242,106.750009 205.115624,105.046875 C206.475006,103.343741 207.154687,101.117201 207.154687,98.3671875 C207.154687,95.6171738 206.475006,93.3906335 205.115624,91.6875 C203.756242,89.9843665 201.982823,89.1328125 199.795312,89.1328125 Z M229.114582,111.234375 C225.56769,111.234375 222.739593,110.066418 220.630207,107.730469 C218.520822,105.39452 217.466145,102.273457 217.466145,98.3671875 C217.466145,94.4452929 218.520822,91.3203241 220.630207,88.9921875 C222.739593,86.6640509 225.56769,85.5 229.114582,85.5 C232.661475,85.5 235.489572,86.6640509 237.598957,88.9921875 C239.708343,91.3203241 240.76302,94.4452929 240.76302,98.3671875 C240.76302,102.273457 239.708343,105.39452 237.598957,107.730469 C235.489572,110.066418 232.661475,111.234375 229.114582,111.234375 Z M229.114582,107.601562 C231.473969,107.601562 233.313794,106.785164 234.634114,105.152344 C235.954433,103.519523 236.614582,101.257827 236.614582,98.3671875 C236.614582,95.460923 235.954433,93.1953206 234.634114,91.5703125 C233.313794,89.9453044 231.473969,89.1328125 229.114582,89.1328125 C226.755196,89.1328125 224.91537,89.9492106 223.595051,91.5820312 C222.274732,93.2148519 221.614582,95.476548 221.614582,98.3671875 C221.614582,101.257827 222.278638,103.519523 223.60677,105.152344 C224.934901,106.785164 226.770821,107.601562 229.114582,107.601562 Z M291.971874,85.734375 L287.940624,85.734375 L282.807811,106.382812 L282.714061,106.382812 L276.924999,85.734375 L272.987499,85.734375 L267.198436,106.382812 L267.104686,106.382812 L261.971874,85.734375 L257.940624,85.734375 L265.018749,111 L269.143749,111 L274.909374,91.359375 L275.003124,91.359375 L280.768749,111 L284.893749,111 L285.608593,108.445312 C286.085157,106.742179 286.674995,104.636731 287.378124,102.128906 L289.487499,94.6054688 C290.190627,92.0976437 290.780465,89.992196 291.25703,88.2890625 L291.971874,85.734375 Z M307.252082,89.0859375 C305.267697,89.0859375 303.623182,89.7421809 302.318488,91.0546875 C301.013794,92.3671941 300.291145,94.0937393 300.150519,96.234375 L314.048957,96.234375 C314.002082,94.0937393 313.357557,92.3671941 312.115363,91.0546875 C310.87317,89.7421809 309.252092,89.0859375 307.252082,89.0859375 Z M313.955207,103.78125 L317.986457,103.78125 C317.642705,105.953136 316.486467,107.738274 314.517707,109.136719 C312.548947,110.535163 310.213033,111.234375 307.509894,111.234375 C303.963002,111.234375 301.146624,110.082043 299.060676,107.777344 C296.974728,105.472645 295.931769,102.367207 295.931769,98.4609375 C295.931769,94.5390429 296.970822,91.3984493 299.048957,89.0390625 C301.127092,86.6796757 303.884877,85.5 307.322394,85.5 C310.697411,85.5 313.36926,86.6093639 315.338019,88.828125 C317.306779,91.0468861 318.291144,94.0702934 318.291144,97.8984375 L318.291144,99.4921875 L300.150519,99.4921875 L300.150519,99.7265625 C300.150519,102.132825 300.8302,104.05468 302.189582,105.492188 C303.548964,106.929695 305.353633,107.648438 307.603644,107.648438 C309.181777,107.648438 310.545045,107.300785 311.693488,106.605469 C312.841931,105.910153 313.59583,104.968756 313.955207,103.78125 Z M324.547915,111 L328.62604,111 L328.62604,75.703125 L324.547915,75.703125 L324.547915,111 Z M336.359373,111 L340.437498,111 L340.437498,75.703125 L336.359373,75.703125 L336.359373,111 Z" id="We-do-well,-when-do-Copy" fill="#073B4B"></path>
                    <g id="Group" transform="translate(124.000000, 79.697158)" fill-rule="nonzero">
                        <path d="M12.7698017,20.974442 L12.7698017,0.158489168 L20.9810558,0.158489168 L20.9810558,20.7670112 C20.9810558,26.6994123 24.0203681,29.7702301 29.0326181,29.7702301 C34.0446276,29.7702301 37.082978,26.8034283 37.082978,21.0267507 L37.082978,0.158489168 L45.295194,0.158489168 L45.295194,20.7150633 C45.295194,31.7472562 38.9492541,37.1599378 28.9254756,37.1599378 C18.9014566,37.1599378 12.7698017,31.6956691 12.7698017,20.974442 Z" id="Shape" fill="#E9004C"></path>
                        <polygon id="Shape" fill="#003B4C" points="20.9871885 0.117484004 0.0836938245 0.117484004 20.9871885 7.52775447"></polygon>
                        <polygon id="Shape" fill="#003B4C" points="37.0727568 0.117484004 58.1171842 0.117484004 37.0727568 7.52775447"></polygon>
                    </g>
                </g>
            </g>
        </g>
    </g>
</svg>